<svg width="46" height="46" viewBox="0 0 46 46" fill="none" xmlns="http://www.w3.org/2000/svg">
<path d="M13.4165 27.1784V5.75004C13.4165 5.24171 13.2146 4.7542 12.8551 4.39475C12.4957 4.03531 12.0082 3.83337 11.4998 3.83337C10.9915 3.83337 10.504 4.03531 10.1445 4.39475C9.7851 4.7542 9.58317 5.24171 9.58317 5.75004V27.1784C8.47313 27.5813 7.51405 28.3162 6.83628 29.2832C6.15851 30.2502 5.79492 31.4025 5.79492 32.5834C5.79492 33.7643 6.15851 34.9165 6.83628 35.8836C7.51405 36.8506 8.47313 37.5855 9.58317 37.9884V40.25C9.58317 40.7584 9.7851 41.2459 10.1445 41.6053C10.504 41.9648 10.9915 42.1667 11.4998 42.1667C12.0082 42.1667 12.4957 41.9648 12.8551 41.6053C13.2146 41.2459 13.4165 40.7584 13.4165 40.25V37.9884C14.5265 37.5855 15.4856 36.8506 16.1634 35.8836C16.8412 34.9165 17.2047 33.7643 17.2047 32.5834C17.2047 31.4025 16.8412 30.2502 16.1634 29.2832C15.4856 28.3162 14.5265 27.5813 13.4165 27.1784Z" fill="#0CBC8B"/>
<path d="M40.2498 24.9167C40.2465 23.7304 39.8763 22.5742 39.19 21.6065C38.5038 20.6388 37.535 19.9071 36.4165 19.5117V5.75004C36.4165 5.24171 36.2146 4.7542 35.8551 4.39475C35.4957 4.03531 35.0082 3.83337 34.4998 3.83337C33.9915 3.83337 33.504 4.03531 33.1445 4.39475C32.7851 4.7542 32.5832 5.24171 32.5832 5.75004V19.5117C31.4731 19.9146 30.5141 20.6495 29.8363 21.6165C29.1585 22.5836 28.7949 23.7358 28.7949 24.9167C28.7949 26.0976 29.1585 27.2499 29.8363 28.2169C30.5141 29.1839 31.4731 29.9188 32.5832 30.3217V40.25C32.5832 40.7584 32.7851 41.2459 33.1445 41.6053C33.504 41.9648 33.9915 42.1667 34.4998 42.1667C35.0082 42.1667 35.4957 41.9648 35.8551 41.6053C36.2146 41.2459 36.4165 40.7584 36.4165 40.25V30.3217C37.535 29.9263 38.5038 29.1946 39.19 28.2269C39.8763 27.2593 40.2465 26.103 40.2498 24.9167Z" fill="#0CBC8B"/>
<path d="M28.75 9.58267C28.7529 8.52783 28.4657 7.49251 27.9196 6.58999C27.3736 5.68748 26.5898 4.95257 25.654 4.46569C24.7183 3.9788 23.6666 3.75871 22.6142 3.82949C21.5617 3.90027 20.549 4.25921 19.6868 4.86701C18.8247 5.47482 18.1464 6.30806 17.7261 7.27557C17.3058 8.24307 17.1598 9.30754 17.304 10.3525C17.4482 11.3974 17.877 12.3826 18.5436 13.2001C19.2102 14.0176 20.0888 14.6361 21.0833 14.9877V40.2493C21.0833 40.7577 21.2852 41.2452 21.6447 41.6046C22.0041 41.9641 22.4916 42.166 23 42.166C23.5083 42.166 23.9958 41.9641 24.3553 41.6046C24.7147 41.2452 24.9166 40.7577 24.9166 40.2493V14.9877C26.0351 14.5922 27.0039 13.8605 27.6902 12.8929C28.3765 11.9252 28.7466 10.769 28.75 9.58267Z" fill="#0CBC8B"/>
</svg>
