<svg width="57" height="58" viewBox="0 0 57 58" fill="none" xmlns="http://www.w3.org/2000/svg">
<path d="M30.9971 47.3066H13.1907V20.2829C13.1918 20.1253 13.2351 19.9708 13.316 19.8355C13.3968 19.7002 13.5124 19.589 13.6507 19.5133L29.6879 10.7472C29.8228 10.6734 29.9746 10.6361 30.1284 10.6388C30.2821 10.6416 30.4325 10.6843 30.5646 10.7629C30.6968 10.8415 30.8062 10.9532 30.882 11.0869C30.9579 11.2207 30.9975 11.3719 30.9971 11.5257V47.3066Z" stroke="#222D39" stroke-width="1.92997" stroke-linecap="round"/>
<path d="M43.4253 47.3073H31.0856V19.7617L43.0096 26.5818C43.1371 26.6614 43.2421 26.7723 43.3149 26.9038C43.3876 27.0354 43.4256 27.1833 43.4253 27.3336V47.3073Z" stroke="#222D39" stroke-width="1.92997" stroke-linecap="round"/>
<path d="M25.0528 22.6533H18.8254" stroke="#E98862" stroke-width="1.92997" stroke-linecap="round"/>
<path d="M38.8167 29.332H35.703" stroke="#E98862" stroke-width="1.92997" stroke-linecap="round"/>
<path d="M38.8167 33.3037H35.703" stroke="#E98862" stroke-width="1.92997" stroke-linecap="round"/>
<path d="M38.8167 37.5596H35.703" stroke="#E98862" stroke-width="1.92997" stroke-linecap="round"/>
<path d="M38.8167 41.5225H35.703" stroke="#E98862" stroke-width="1.92997" stroke-linecap="round"/>
<path d="M25.0528 27.5898H18.8254" stroke="#E98862" stroke-width="1.92997" stroke-linecap="round"/>
<path d="M25.0528 32.4551H18.8254" stroke="#E98862" stroke-width="1.92997" stroke-linecap="round"/>
<path d="M25.0528 37.3203H18.8254" stroke="#E98862" stroke-width="1.92997" stroke-linecap="round"/>
<path d="M25.0528 42.1855H18.8254" stroke="#E98862" stroke-width="1.92997" stroke-linecap="round"/>
<path d="M8.56439 47.3076H48.4409" stroke="#222D39" stroke-width="1.92997" stroke-linecap="round"/>
</svg>
