<svg width="43" height="31" viewBox="0 0 43 31" fill="none" xmlns="http://www.w3.org/2000/svg">
<path d="M23.745 8.53271H22.2669V10.0101H23.745V8.53271Z" fill="#0CBC8B"/>
<path d="M31.2241 8.53271H29.7475V10.0101H31.2241V8.53271Z" fill="#0CBC8B"/>
<path d="M26.0744 14.4104C26.6731 14.4606 27.4106 14.5264 28.1164 14.7186V11.415H25.3916V14.3557C25.6199 14.3749 25.849 14.3926 26.0744 14.4104Z" fill="#0CBC8B"/>
<path d="M34.1877 14.166V7.62176H35.2504L34.1433 0.897949H19.3654L18.2576 7.62176H19.3203V13.6198C19.9544 13.7684 20.6551 13.911 21.4444 14.0108C21.4732 14.0145 21.5072 14.0182 21.5367 14.0219V7.6225H31.972V14.8112C32.6859 14.6013 33.4523 14.3788 34.1877 14.166Z" fill="#E98862"/>
<path d="M11.9469 26.8015L10.9366 25.8637C13.4863 24.1188 16.189 23.8631 18.5495 23.7774C19.0196 23.7596 23.5972 23.7596 27.826 24.2688C28.6751 24.3265 29.4031 23.8712 29.4031 23.8712C35.7463 19.8168 41.1546 17.5953 41.1546 17.5953C42.4376 17.1134 42.8152 16.5377 42.7968 16.0958C42.7583 15.2939 42.3053 15.0182 42.3009 15.0123C41.8641 14.5179 40.6255 14.3612 39.6322 14.5127C39.137 14.5888 31.9099 16.7188 31.9099 16.7188C32.1154 17.3625 32.4531 18.5383 31.2285 19.7422C30.3927 20.4724 29.1053 20.6904 27.4335 20.6564C25.7641 20.6246 23.9556 20.3637 22.561 20.1901C22.1087 20.1346 20.8524 19.9683 20.8524 19.9683C20.8524 19.9683 21.737 19.5596 22.935 19.5197C24.4316 19.4702 25.6111 19.4806 26.2888 19.5197C27.033 19.5619 28.0994 19.6557 28.548 19.6712C30.5885 19.7481 31.0741 18.437 31.0837 17.9182C31.1088 16.4468 30.2774 15.959 27.6981 15.7447C26.0412 15.6058 24.2601 15.4957 23.0192 15.3397C20.627 15.0367 18.9072 14.3634 18.0307 14.2792C17.4284 14.2215 15.8646 13.9289 14.3791 15.1579C11.6513 17.4149 7.591 19.1598 4.81294 20.1871L3.67186 19.1273L0.349121 22.4153L8.48228 30.0016L11.9469 26.8015ZM7.52005 26.633C7.52005 26.2081 7.86371 25.8637 8.29013 25.8637C8.71582 25.8637 9.06021 26.2081 9.06021 26.633C9.06021 27.0587 8.71656 27.4031 8.29013 27.4031C7.86371 27.4031 7.52005 27.0587 7.52005 26.633Z" fill="#222D39"/>
</svg>
