<svg width="96" height="96" viewBox="0 0 96 96" fill="none" xmlns="http://www.w3.org/2000/svg">
<path d="M72.9711 42.8936H60.3073C59.4611 42.8936 58.7754 43.5792 58.7754 44.4255V50.5531C58.7754 51.3994 59.4611 52.085 60.3073 52.085H72.9711C73.8174 52.085 74.503 51.3994 74.503 50.5531V44.4255C74.503 43.5792 73.8174 42.8936 72.9711 42.8936ZM71.4392 49.0212H61.8392V45.9574H71.4392V49.0212Z" fill="#367CFF"/>
<path d="M35.5406 73.0215H23.03C22.1839 73.0215 21.498 73.7072 21.498 74.5534V86.2981C21.498 87.1443 22.1839 87.83 23.03 87.83H35.5406C36.3866 87.83 37.0725 87.1443 37.0725 86.2981V74.5534C37.0725 73.7072 36.3866 73.0215 35.5406 73.0215ZM34.0087 84.7662H24.5619V76.0853H34.0087V84.7662Z" fill="#FF6C59"/>
<path d="M54.1793 73.0215H41.6686C40.8226 73.0215 40.1367 73.7072 40.1367 74.5534V86.2981C40.1367 87.1443 40.8226 87.83 41.6686 87.83H54.1793C55.0255 87.83 55.7112 87.1443 55.7112 86.2981V74.5534C55.7112 73.7072 55.0255 73.0215 54.1793 73.0215ZM52.6474 84.7662H43.2005V76.0853H52.6474V84.7662Z" fill="#FF6C59"/>
<path d="M35.5406 55.1489H23.03C22.1839 55.1489 21.498 55.8346 21.498 56.6808V68.4255C21.498 69.2718 22.1839 69.9574 23.03 69.9574H35.5406C36.3866 69.9574 37.0725 69.2718 37.0725 68.4255V56.6808C37.0725 55.8346 36.3866 55.1489 35.5406 55.1489ZM34.0087 66.8936H24.5619V58.2128H34.0087V66.8936Z" fill="#FF6C59"/>
<path d="M54.1793 55.1489H41.6686C40.8226 55.1489 40.1367 55.8346 40.1367 56.6808V68.4255C40.1367 69.2718 40.8226 69.9574 41.6686 69.9574H54.1793C55.0255 69.9574 55.7112 69.2718 55.7112 68.4255V56.6808C55.7112 55.8346 55.0255 55.1489 54.1793 55.1489ZM52.6474 66.8936H43.2005V58.2128H52.6474V66.8936Z" fill="#FF6C59"/>
<path d="M72.9711 55.1489H60.3073C59.4611 55.1489 58.7754 55.8346 58.7754 56.6808V86.2979C58.7754 87.1441 59.4611 87.8298 60.3073 87.8298H72.9711C73.8174 87.8298 74.503 87.1441 74.503 86.2979V76.0851C74.503 75.2389 73.8174 74.5532 72.9711 74.5532C72.1249 74.5532 71.4392 75.2389 71.4392 76.0851V84.7659H61.8392V58.2128H71.4392V69.9574C71.4392 70.8037 72.1249 71.4894 72.9711 71.4894C73.8174 71.4894 74.503 70.8037 74.503 69.9574V56.6808C74.503 55.8346 73.8174 55.1489 72.9711 55.1489Z" fill="#367CFF"/>
<path d="M75.0132 0H20.9877C16.7641 0 13.3281 3.43598 13.3281 7.65957V88.3404C13.3281 92.564 16.7641 96 20.9877 96H75.0132C79.2368 96 82.6728 92.564 82.6728 88.3404V7.65957C82.6728 3.43598 79.2368 0 75.0132 0ZM79.609 88.3404C79.609 90.8744 77.5472 92.9362 75.0132 92.9362H20.9877C18.4535 92.9362 16.392 90.8744 16.392 88.3404V7.65957C16.392 5.12558 18.4535 3.06383 20.9877 3.06383H75.0132C77.5472 3.06383 79.609 5.12558 79.609 7.65957V88.3404Z" fill="#222D39"/>
<path d="M72.9705 8.17041H23.1833C22.3373 8.17041 21.6514 8.8561 21.6514 9.70232V28.0853C21.6514 28.9315 22.3373 29.6172 23.1833 29.6172H72.9705C73.8167 29.6172 74.5024 28.9315 74.5024 28.0853V9.70232C74.5024 8.8561 73.8167 8.17041 72.9705 8.17041ZM24.7152 11.2342H43.9955L28.6763 26.5534H24.7152V11.2342ZM71.4386 26.5534H45.2647L49.6746 22.1435C50.2729 21.545 50.2729 20.5752 49.6746 19.977C49.0761 19.3789 48.1061 19.3791 47.508 19.977L40.9316 26.5534H33.0094L48.3285 11.2342H56.2506L51.8407 15.6441C51.2424 16.2426 51.2424 17.2124 51.8407 17.8106C52.1399 18.1097 52.5321 18.2592 52.9241 18.2592C53.316 18.2592 53.7082 18.1097 54.0075 17.8106L60.5839 11.2342H71.4386V26.5534Z" fill="#222D39"/>
<path d="M72.9708 34.7236H41.6686C40.8226 34.7236 40.1367 35.4093 40.1367 36.2555C40.1367 37.1018 40.8226 37.7875 41.6686 37.7875H72.9708C73.817 37.7875 74.5027 37.1018 74.5027 36.2555C74.5027 35.4093 73.817 34.7236 72.9708 34.7236Z" fill="#0CBC8B"/>
<path d="M35.5407 34.7236H23.1833C22.3373 34.7236 21.6514 35.4093 21.6514 36.2555C21.6514 37.1018 22.3373 37.7875 23.1833 37.7875H35.5407C36.3868 37.7875 37.0726 37.1018 37.0726 36.2555C37.0726 35.4093 36.3868 34.7236 35.5407 34.7236Z" fill="#0CBC8B"/>
</svg>
