<svg width="21" height="24" viewBox="0 0 21 24" fill="none" xmlns="http://www.w3.org/2000/svg">
<g clip-path="url(#clip0_217_28)">
<path d="M4.44156 1.5C4.44156 0.671719 5.10317 0 5.92208 0C6.74099 0 7.4026 0.671719 7.4026 1.5V3H13.3247V1.5C13.3247 0.671719 13.9863 0 14.8052 0C15.6241 0 16.2857 0.671719 16.2857 1.5V3H18.5065C19.7325 3 20.7273 4.00734 20.7273 5.25V7.5H0V5.25C0 4.00734 0.994261 3 2.22078 3H4.44156V1.5ZM20.7273 21.75C20.7273 22.9922 19.7325 24 18.5065 24H2.22078C0.994261 24 0 22.9922 0 21.75V9H20.7273V21.75Z" fill="#0CBC8B"/>
<path d="M4.44156 1.5C4.44156 0.671719 5.10317 0 5.92208 0C6.74099 0 7.4026 0.671719 7.4026 1.5V3H13.3247V1.5C13.3247 0.671719 13.9863 0 14.8052 0C15.6241 0 16.2857 0.671719 16.2857 1.5V3H18.5065C19.7325 3 20.7273 4.00734 20.7273 5.25V7.5H0V5.25C0 4.00734 0.994261 3 2.22078 3H4.44156V1.5Z" fill="#4B88E6"/>
</g>
<defs>
<clipPath id="clip0_217_28">
<rect width="20.7273" height="24" fill="white"/>
</clipPath>
</defs>
</svg>
