<svg width="52" height="61" viewBox="0 0 52 61" fill="none" xmlns="http://www.w3.org/2000/svg">
<path d="M42.2285 14.352L46.426 10.1544L50.5109 14.2393L46.3134 18.4369C50.4611 23.6287 52.4636 30.2116 51.9094 36.8337C51.3552 43.4557 48.2865 49.6143 43.3335 54.0445C38.3804 58.4746 31.9191 60.8402 25.2765 60.6553C18.6338 60.4704 12.3141 57.749 7.61522 53.0501C2.91635 48.3513 0.194998 42.0315 0.0100788 35.3889C-0.174841 28.7462 2.1907 22.2849 6.62089 17.3319C11.0511 12.3789 17.2096 9.31016 23.8317 8.75598C30.4537 8.20179 37.0367 10.2042 42.2285 14.352ZM23.1098 20.2222V37.5555H28.8876V20.2222H23.1098ZM14.4432 0H37.5543V5.77777H14.4432V0Z" fill="#222D39"/>
<path d="M23.11 20.2222V37.5555H28.8878V20.2222H23.11ZM14.4434 0H37.5544V5.77777H14.4434V0Z" fill="#E98862"/>
</svg>
