<svg width="56" height="68" viewBox="0 0 56 68" fill="none" xmlns="http://www.w3.org/2000/svg">
<path d="M42.4001 18.4923H54.1416C54.3469 18.498 54.5511 18.4619 54.7418 18.3859C54.9326 18.31 55.1058 18.196 55.251 18.0509C55.3961 17.9057 55.5101 17.7325 55.586 17.5417C55.6619 17.351 55.6981 17.1468 55.6924 16.9415C55.7058 16.7356 55.673 16.5292 55.5963 16.3375C55.5196 16.1459 55.4011 15.9738 55.2493 15.8339L40.6278 1.21232C40.4879 1.06057 40.3158 0.942022 40.1241 0.865359C39.9325 0.788697 39.7261 0.755856 39.5201 0.769241C39.3149 0.763511 39.1107 0.799705 38.9199 0.875611C38.7292 0.951516 38.556 1.06554 38.4108 1.2107C38.2656 1.35586 38.1516 1.52911 38.0757 1.71984C37.9998 1.91058 37.9636 2.1148 37.9693 2.32001V14.0616C37.973 15.2355 38.441 16.3604 39.2711 17.1905C40.1013 18.0207 41.2261 18.4887 42.4001 18.4923Z" fill="#FF6C59"/>
<path d="M53.477 25.1388H37.9693C36.2077 25.1351 34.5194 24.4337 33.2738 23.1881C32.0282 21.9425 31.3268 20.2542 31.3231 18.4926V2.98495C31.3231 2.39739 31.0897 1.8339 30.6742 1.41843C30.2588 1.00297 29.6953 0.769562 29.1077 0.769562H6.95389C5.19235 0.77322 3.504 1.47461 2.25839 2.72022C1.01279 3.96582 0.311398 5.65417 0.307739 7.41572V60.5849C0.311398 62.3465 1.01279 64.0348 2.25839 65.2804C3.504 66.5261 5.19235 67.2274 6.95389 67.2311H49.0462C50.8077 67.2274 52.4961 66.5261 53.7417 65.2804C54.9873 64.0348 55.6887 62.3465 55.6923 60.5849V27.3542C55.6923 27.0632 55.635 26.7752 55.5237 26.5064C55.4124 26.2376 55.2492 25.9934 55.0435 25.7877C54.8378 25.5819 54.5935 25.4188 54.3248 25.3074C54.056 25.1961 53.7679 25.1388 53.477 25.1388ZM9.16928 22.9234C9.19403 22.3502 9.43747 21.8083 9.84954 21.4091C10.2616 21.0099 10.811 20.7838 11.3847 20.7773H20.4539C20.7375 20.7754 21.0188 20.8295 21.2815 20.9364C21.5443 21.0432 21.7834 21.2008 21.9853 21.4001C22.1872 21.5994 22.3478 21.8365 22.458 22.0979C22.5683 22.3592 22.6259 22.6398 22.6277 22.9234V25.1249C22.6102 25.702 22.3722 26.2504 21.9627 26.6573C21.5532 27.0642 21.0033 27.2987 20.4262 27.3126H11.3847C11.0958 27.3183 10.8088 27.2656 10.5408 27.1576C10.2729 27.0497 10.0294 26.8887 9.82515 26.6845C9.62087 26.4802 9.45994 26.2368 9.35199 25.9688C9.24405 25.7008 9.19132 25.4138 9.19697 25.1249L9.16928 22.9234ZM42.4 51.6819C42.4 52.2694 42.1666 52.8329 41.7512 53.2484C41.3357 53.6638 40.7722 53.8973 40.1847 53.8973H11.3847C10.7971 53.8973 10.2336 53.6638 9.81815 53.2484C9.40268 52.8329 9.16928 52.2694 9.16928 51.6819V49.508C9.16928 48.9205 9.40268 48.357 9.81815 47.9415C10.2336 47.526 10.7971 47.2926 11.3847 47.2926H40.1847C40.7722 47.2926 41.3357 47.526 41.7512 47.9415C42.1666 48.357 42.4 48.9205 42.4 49.508V51.6819ZM46.8308 38.3896C46.8363 38.684 46.7831 38.9765 46.6742 39.2501C46.5654 39.5237 46.4031 39.7729 46.1968 39.983C45.9905 40.1931 45.7444 40.36 45.4729 40.474C45.2014 40.5879 44.9099 40.6465 44.6154 40.6465H11.3847C10.7971 40.6465 10.2336 40.4131 9.81815 39.9976C9.40268 39.5821 9.16928 39.0187 9.16928 38.4311V36.2157C9.16928 35.6282 9.40268 35.0647 9.81815 34.6492C10.2336 34.2337 10.7971 34.0003 11.3847 34.0003H44.6154C45.203 34.0003 45.7665 34.2337 46.1819 34.6492C46.5974 35.0647 46.8308 35.6282 46.8308 36.2157V38.3896Z" fill="#222D39"/>
</svg>
