<svg width="54" height="54" viewBox="0 0 54 54" fill="none" xmlns="http://www.w3.org/2000/svg">
<g clip-path="url(#clip0_381_976)">
<path d="M52.4329 11.7472L43.8804 20.2732L38.7567 15.1675L47.3092 6.64457C42.5399 4.32426 35.85 4.31477 31.8897 8.26352C28.1645 11.976 27.6994 17.82 29.5124 22.4174L10.5016 41.2773C10.3837 41.3949 10.29 41.5346 10.2262 41.6885C10.1623 41.8423 10.1294 42.0073 10.1294 42.1738C10.1294 42.3404 10.1623 42.5053 10.2262 42.6592C10.29 42.813 10.3837 42.9527 10.5016 43.0703L16.0145 48.5663C16.1321 48.6843 16.2718 48.7779 16.4256 48.8418C16.5795 48.9057 16.7444 48.9385 16.911 48.9385C17.0776 48.9385 17.2425 48.9057 17.3963 48.8418C17.5502 48.7779 17.6899 48.6843 17.8075 48.5663L36.7918 29.5292C41.3439 31.2388 47.1278 30.7568 50.7918 27.1034C54.7468 23.1536 54.7384 16.5207 52.4329 11.7472Z" fill="#E98862"/>
<path d="M38.5436 32.5498L30.9678 40.1436L38.9338 48.5726C39.0394 48.6848 39.1664 48.7747 39.3074 48.8368C39.4484 48.8988 39.6004 48.9319 39.7544 48.934C39.9085 48.936 40.0613 48.9071 40.2039 48.8488C40.3465 48.7905 40.4759 48.7041 40.5844 48.5948L46.9125 42.2181C47.0208 42.1085 47.1061 41.9784 47.1635 41.8354C47.2209 41.6924 47.2492 41.5395 47.2469 41.3854C47.2445 41.2314 47.2115 41.0793 47.1497 40.9382C47.088 40.797 46.9988 40.6696 46.8872 40.5633L38.5436 32.5498Z" fill="#222D39"/>
<path d="M12.5509 22.3593C12.5509 21.8457 12.1291 21.3753 11.7652 21.0114L11.7388 20.9861L11.5764 20.8311C11.5663 20.8196 11.5587 20.8062 11.554 20.7917C11.5492 20.7772 11.5475 20.7619 11.549 20.7467C11.8541 20.5749 12.2046 20.5013 12.553 20.5357C12.687 20.5495 13.1764 20.6307 13.8608 21.0536C14.2173 21.274 17.3023 24.2419 18.4941 25.3462C18.2851 25.5647 18.1696 25.8563 18.1724 26.1587C18.1751 26.4611 18.2959 26.7504 18.5089 26.9651L19.2925 27.7941L26.2176 20.9207L25.3475 20.0938C25.1336 19.88 24.8438 19.7593 24.5414 19.7582C24.2389 19.757 23.9483 19.8754 23.7327 20.0875C21.3069 17.4845 20.6741 16.3486 20.4632 15.6104C19.997 13.9788 20.8998 12.6572 21.9398 11.8135C22.5557 11.3262 23.8255 10.9613 24.9983 10.8643C25.4076 10.8402 25.8183 10.8614 26.2228 10.9275C26.5888 10.9803 26.8873 11.0478 27.0023 11.0752C27.4003 11.1825 27.7884 11.3236 28.1624 11.4971L29.428 9.49317C29.0373 8.81398 28.5624 8.18676 28.0148 7.62637C27.8471 7.4513 27.6657 7.27095 27.4674 7.08848C26.6468 6.33438 24.5142 5.06348 21.7098 5.06348C20.0902 5.0617 18.4859 5.37775 16.988 5.99372C13.0392 7.61161 10.4616 9.81696 9.27718 10.9877L9.26979 10.995C8.47389 11.7949 7.73752 12.6518 7.06655 13.559C6.50229 14.3532 6.56347 15.2296 6.6046 15.8097C6.6046 15.8434 6.6046 15.8804 6.61198 15.9152C6.28125 15.6756 5.8834 15.5464 5.47503 15.546C5.22207 15.5443 4.97131 15.5931 4.73748 15.6896C4.50366 15.7862 4.29148 15.9285 4.11343 16.1082L0.211083 19.9989C0.076863 20.1332 0.00146484 20.3153 0.00146484 20.5052C0.00146484 20.695 0.076863 20.8771 0.211083 21.0114L6.85561 27.6327C6.98852 27.7655 7.16871 27.8401 7.35659 27.8401C7.54447 27.8401 7.72467 27.7655 7.85757 27.6327L11.7662 23.7304C12.1291 23.3676 12.5509 22.8719 12.5509 22.3593Z" fill="#222D39"/>
</g>
<defs>
<clipPath id="clip0_381_976">
<rect width="54" height="54" fill="white"/>
</clipPath>
</defs>
</svg>
