<svg width="55" height="51" viewBox="0 0 55 51" fill="none" xmlns="http://www.w3.org/2000/svg">
<path d="M54.2658 33.8825C53.0128 32.1815 50.6233 31.8138 48.9243 33.0736L37.4923 41.4943H25.9744C25.139 41.4943 24.5323 40.8019 24.5323 39.9672C24.5323 39.1315 25.2247 38.4391 25.9744 38.4391H33.4477C34.8898 38.4391 36.3845 37.4 36.6347 35.8968C36.9451 33.9867 35.4772 32.3268 33.6148 32.3268H18.251C15.7583 32.3268 13.1778 33.2102 11.1722 34.8338L6.73118 38.4381L1.44212 38.3521C0.692505 38.3521 0 39.1352 0 39.9661V49.1327C0 49.975 0.692505 50.6627 1.44212 50.6627H34.4963C36.6003 50.6627 38.6909 49.9762 40.389 48.7268L53.2917 39.2221C55.154 37.9701 55.5169 35.5824 54.2658 33.8825Z" fill="#222D39"/>
<path d="M18.1894 28.1151H26.8628C27.3293 28.1151 27.7076 28.4936 27.7077 28.96V28.96C27.7077 29.4264 27.3292 29.8049 26.8628 29.8049H17.3445C16.878 29.8049 16.4996 29.4264 16.4996 28.96V15.5275H13.7751C13.4341 15.5275 13.125 15.3218 12.9945 15.0056C12.8628 14.6893 12.9357 14.326 13.1772 14.0846L13.1772 14.0846L25.8449 1.41813L25.845 1.418C26.7111 0.553234 28.2066 0.554156 29.0694 1.41816L29.0693 1.4181L28.8926 1.59491L29.0695 1.41828L18.1894 28.1151ZM18.1894 28.1151V14.6826C18.1894 14.2161 17.8109 13.8377 17.3445 13.8377H15.8148L27.0395 2.61288C27.2562 2.39619 27.6572 2.39546 27.8746 2.61288L32.2138 6.95205L32.2144 6.95266C32.4547 7.19133 32.8163 7.27021 33.1358 7.13428C33.4514 7.00355 33.6566 6.69476 33.6566 6.35409V2.43982H36.726V11.1132C36.726 11.3382 36.8157 11.5528 36.9741 11.7112L39.1006 13.8377H37.5708C37.1044 13.8377 36.7259 14.2161 36.7259 14.6826C36.7259 15.149 37.1044 15.5275 37.5708 15.5275H41.1402C41.4811 15.5275 41.7901 15.322 41.9207 15.0071C42.0526 14.6908 41.9797 14.3273 41.7382 14.0858L38.4158 10.7634L18.1894 28.1151ZM31.9668 4.31458V4.66807L32.2168 4.91798V4.56449L31.9668 4.31458ZM16.4996 15.2775H16.7496V15.5275L16.4996 15.2775Z" fill="#E98862" stroke="#E98862" stroke-width="0.5"/>
<path d="M30.4966 16.5921V16.5922H30.6216C31.019 16.5922 31.3415 16.2697 31.3415 15.8723C31.3415 15.4748 31.019 15.1523 30.6216 15.1523H22.2932C21.8957 15.1523 21.5732 15.4748 21.5732 15.8723V24.2007C21.5732 24.5982 21.8957 24.9206 22.2932 24.9206H29.4319C29.8293 24.9206 30.1518 24.5982 30.1518 24.2007C30.1518 23.8033 29.8293 23.4808 29.4319 23.4808H23.013V16.5921H30.4966Z" fill="#367CFF" stroke="#367CFF" stroke-width="0.25"/>
<path d="M41.2782 25.8093L39.4924 25.3632L39.4174 25.0645C39.8814 24.5529 40.2098 23.9009 40.3466 23.2227C40.6631 23.0597 40.8939 22.7468 40.9415 22.372L41.0712 21.3369C41.1105 21.024 41.0129 20.7075 40.8059 20.4696C40.7417 20.3958 40.6679 20.3315 40.5882 20.278L40.6191 19.6474L40.7286 19.5379C41.0356 19.2119 41.4508 18.5159 40.7929 17.5117C40.4811 17.0358 39.8387 16.467 38.5525 16.467C38.1741 16.467 37.3186 16.467 36.487 16.987C34.0384 17.0738 33.7505 18.3933 33.7505 19.3892C33.7505 19.5855 33.7862 19.9531 33.8194 20.2601C33.7314 20.316 33.6505 20.3839 33.5803 20.4635C33.3697 20.7027 33.2709 21.0204 33.3102 21.338L33.4399 22.3732C33.4887 22.761 33.735 23.0823 34.0978 23.2405C34.2334 23.889 34.5428 24.5172 34.977 25.0156L34.8902 25.3654L33.1043 25.8116C31.6576 26.1733 30.6475 27.4678 30.6475 28.9598C30.6475 29.118 30.7093 29.2703 30.8212 29.381C30.9331 29.4916 31.0841 29.5547 31.2424 29.5547L43.1402 29.5535C43.4686 29.5535 43.7351 29.287 43.7351 28.9586C43.7352 27.4679 42.725 26.1734 41.2782 25.8093ZM31.9241 28.3638C32.13 27.6856 32.6773 27.1455 33.3935 26.9635L35.5256 26.4305C35.7386 26.3781 35.9063 26.2115 35.9587 25.9986L36.2121 24.9837C36.2656 24.7743 36.199 24.553 36.0419 24.4055C35.5791 23.9712 35.2721 23.3346 35.2221 22.7029C35.1972 22.3935 34.933 22.2234 34.6225 22.2234L34.4702 21.2764C34.6415 21.2764 34.8033 21.2038 34.9164 21.0753C35.0294 20.948 35.0817 20.7779 35.0603 20.6077C35.0151 20.2484 34.9425 19.5988 34.9425 19.3894C34.9425 18.7731 34.9425 18.1913 36.6808 18.1734C36.8021 18.1722 36.9223 18.1342 37.021 18.0628C37.5886 17.657 38.2394 17.657 38.5523 17.657C39.4649 17.657 39.7159 18.039 39.7956 18.165C40.0383 18.5351 39.9384 18.6398 39.873 18.7112L39.6136 18.9693C39.5089 19.074 39.447 19.2144 39.4398 19.362L39.3768 20.6565C39.3696 20.8183 39.3899 20.9313 39.5005 21.0491C39.6123 21.1669 39.7278 21.1907 39.8896 21.1919L39.8122 22.1592C39.5017 22.1592 39.2435 22.3971 39.2185 22.7064C39.1686 23.3478 38.839 24.0128 38.3607 24.4411C38.1965 24.5887 38.1275 24.8148 38.1811 25.0289L38.425 26.001C38.4785 26.2127 38.6451 26.3805 38.858 26.4329L40.9901 26.9659C41.7064 27.1455 42.2537 27.6857 42.4583 28.365L31.9241 28.3638Z" fill="#0CBC8B" stroke="#0CBC8B" stroke-width="0.5"/>
</svg>
