<svg width="38" height="38" viewBox="0 0 38 38" fill="none" xmlns="http://www.w3.org/2000/svg">
<path d="M19 38C8.5063 38 0 29.4937 0 19C0 8.5063 8.5063 0 19 0C29.4937 0 38 8.5063 38 19C38 29.4937 29.4937 38 19 38ZM19 34.2C23.0313 34.2 26.8975 32.5986 29.748 29.748C32.5986 26.8975 34.2 23.0313 34.2 19C34.2 14.9687 32.5986 11.1025 29.748 8.25198C26.8975 5.40142 23.0313 3.8 19 3.8C14.9687 3.8 11.1025 5.40142 8.25198 8.25198C5.40142 11.1025 3.8 14.9687 3.8 19C3.8 23.0313 5.40142 26.8975 8.25198 29.748C11.1025 32.5986 14.9687 34.2 19 34.2ZM19 16.3134L24.3732 10.9383L27.0617 13.6268L21.6866 19L27.0617 24.3732L24.3732 27.0617L19 21.6866L13.6268 27.0617L10.9383 24.3732L16.3134 19L10.9383 13.6268L13.6268 10.9383L19 16.3134Z" fill="#222D39"/>
<path d="M19 16.3134L24.3732 10.9383L27.0617 13.6268L21.6866 19L27.0617 24.3732L24.3732 27.0617L19 21.6866L13.6268 27.0617L10.9383 24.3732L16.3134 19L10.9383 13.6268L13.6268 10.9383L19 16.3134Z" fill="#E98862"/>
</svg>
