<svg width="66" height="51" viewBox="0 0 66 51" fill="none" xmlns="http://www.w3.org/2000/svg">
<line x1="3.86328" y1="10.7109" x2="35.3752" y2="10.7109" stroke="#4B88E6" stroke-linecap="round"/>
<line x1="8.34766" y1="15.1953" x2="32.0119" y2="15.1953" stroke="#4B88E6" stroke-linecap="round"/>
<line x1="4.98438" y1="19.6797" x2="28.6486" y2="19.6797" stroke="#4B88E6" stroke-linecap="round"/>
<line x1="0.5" y1="25.2852" x2="24.1642" y2="25.2852" stroke="#4B88E6" stroke-linecap="round"/>
<path d="M43.4425 6.30619H35.0343L31.9206 1.63435C31.4542 0.935418 31.9534 0 32.7942 0H45.6825C46.5233 0 47.0226 0.935418 46.5562 1.63435L43.4425 6.30619ZM35.0343 8.40825H43.4425C43.6921 8.57248 43.9746 8.75641 44.2374 8.96004C48.0211 11.3446 56.0549 16.4815 56.0549 27.3268C56.0549 30.8084 53.2302 33.633 49.7487 33.633H28.7281C25.2452 33.633 22.4219 30.8084 22.4219 27.3268C22.4219 16.4815 30.4557 11.3446 34.1803 8.96004C34.5022 8.75641 34.7846 8.57248 35.0343 8.40825ZM40.5587 14.7144C40.5587 13.9853 39.9675 13.3941 39.1793 13.3941C38.5092 13.3941 37.918 13.9853 37.918 14.7144V15.1086C37.5502 15.1874 37.1429 15.2991 36.8736 15.4436C35.8948 15.8903 35.0408 16.718 34.8306 17.9201C34.7124 18.5901 34.7781 19.2404 35.054 19.8251C35.3299 20.4032 35.7568 20.8104 36.1904 21.106C36.9524 21.625 37.9574 21.9271 38.726 22.1571L38.8705 22.1965C39.7902 22.4789 40.4077 22.6826 40.7952 22.965C40.9594 23.0833 41.0186 23.1752 41.0383 23.2344C41.0645 23.2869 41.104 23.4052 41.058 23.6679C41.0186 23.8978 40.8938 24.0949 40.5325 24.246C40.1318 24.4168 39.4814 24.5022 38.6406 24.3708C38.2465 24.3051 37.5436 24.0686 36.9195 23.8584C36.775 23.8059 36.6305 23.7599 36.4991 23.7139C35.8094 23.484 35.0671 23.8584 34.8372 24.5482C34.6073 25.2379 34.9817 25.9802 35.6714 26.151C35.7503 26.2364 35.8488 26.2692 35.9605 26.3086C36.4203 26.486 37.294 26.7619 37.918 26.9064V27.3268C37.918 28.056 38.5092 28.6472 39.1793 28.6472C39.9675 28.6472 40.5587 28.056 40.5587 27.3268V26.9655C40.9069 26.8998 41.2485 26.7422 41.5638 26.6634C42.6017 26.2232 43.4294 25.3693 43.6461 24.1212C43.7644 23.438 43.7118 22.7811 43.4491 22.1833C43.1929 21.5921 42.779 21.1586 42.3389 20.8433C41.5441 20.2586 40.4799 19.9433 39.6851 19.7003L39.5734 19.6871C38.6997 19.4047 38.0691 19.2076 37.6684 18.9317C37.4976 18.8135 37.4451 18.7346 37.4319 18.7018C37.4188 18.6755 37.3794 18.5967 37.4188 18.3733C37.4451 18.242 37.5436 18.0252 37.9574 17.8413C38.3253 17.6508 39.0347 17.5457 39.8362 17.6113C40.1252 17.7165 41.012 17.8872 41.2682 17.9529C41.9645 18.1434 42.6871 17.723 42.871 17.0201C43.0615 16.3238 42.6411 15.6012 41.9382 15.4173C41.6492 15.3385 40.9923 15.2071 40.5587 15.1283V14.7144Z" fill="#E98862"/>
<path d="M64.2007 31.2587C62.796 29.3517 60.1171 28.9395 58.2123 30.3519L45.3959 39.7923H32.4832C31.5466 39.7923 30.8665 39.016 30.8665 38.0802C30.8665 37.1434 31.6427 36.3671 32.4832 36.3671H40.8615C42.4783 36.3671 44.1539 35.2022 44.4344 33.5169C44.7824 31.3755 43.1367 29.5146 41.0489 29.5146H23.8244C21.0299 29.5146 18.1369 30.505 15.8884 32.3252L10.9096 36.366L4.98005 36.2696C4.13965 36.2696 3.36328 37.1475 3.36328 38.0791V48.3557C3.36328 49.3 4.13965 50.0709 4.98005 50.0709H42.0371C44.3959 50.0709 46.7397 49.3013 48.6434 47.9006L63.1086 37.245C65.1965 35.8413 65.6034 33.1645 64.2007 31.2587Z" fill="#222D39"/>
</svg>
