<svg width="85" height="55" viewBox="0 0 85 55" fill="none" xmlns="http://www.w3.org/2000/svg">
<path d="M29.9999 25H19.9999V15L29.9999 25ZM19.9999 27.5H29.9999V51.2499C29.9999 53.321 28.321 54.9999 26.2499 54.9999H3.74999C1.6789 54.9999 0 53.3202 0 51.2499V18.75C0 16.6789 1.6789 15 3.74999 15H17.5L17.5003 25C17.5 26.3828 18.6171 27.5 19.9999 27.5ZM4.99999 21.875C4.99999 22.2172 5.28358 22.5 5.62499 22.5H11.875C12.2187 22.5 12.5 22.2172 12.5 21.875V20.625C12.5 20.2836 12.2187 20 11.875 20H5.62499C5.28358 20 4.99999 20.2836 4.99999 20.625V21.875ZM5.62499 27.5H11.875C12.2187 27.5 12.5 27.2187 12.5 26.875V25.625C12.5 25.2812 12.2187 25 11.875 25H5.62499C5.28358 25 4.99999 25.2812 4.99999 25.625V26.875C4.99999 27.2187 5.28358 27.5 5.62499 27.5ZM15.4296 39.7499L14.9296 39.6249C13.1484 39.0781 13.1875 38.7578 13.25 38.4765C13.3574 37.8662 14.5461 37.7172 15.6148 37.8808C16.0518 37.9467 16.5312 38.1005 16.989 38.2592C17.8007 38.54 18.6945 38.1078 18.9773 37.2952C19.2605 36.4796 18.8296 35.5889 18.014 35.3053C17.45 35.1113 16.9898 34.9867 16.564 34.8934V34.375C16.564 33.5132 15.8646 32.8125 15.0015 32.8125C14.1385 32.8125 13.439 33.5132 13.439 34.375V34.8431C11.6875 35.2187 10.4531 36.3124 10.1718 37.9453C9.59326 41.2921 12.7648 42.2226 14.1187 42.6202L14.5728 42.7521C16.8603 43.4064 16.8228 43.6263 16.754 44.024C16.6466 44.6343 15.4579 44.7857 14.3861 44.6197C13.844 44.5391 13.1509 44.2901 12.5376 44.0704L12.1885 43.9434C11.3752 43.6627 10.483 44.085 10.1947 44.8981C9.90786 45.7114 10.3339 46.6044 11.1479 46.8927L11.4811 47.0098C12.0872 47.2277 12.7608 47.4466 13.4389 47.5967V48.1249C13.4389 48.9866 14.1384 49.6874 15.0014 49.6874C15.8645 49.6874 16.5639 48.9867 16.5639 48.1249V47.6363C18.3108 47.2619 19.5491 46.1887 19.8319 44.5559C20.414 41.1718 17.1718 40.2421 15.4296 39.7499Z" fill="#FB826F"/>
<path d="M65.8333 18.3333C55.7086 18.3333 47.5 26.5418 47.5 36.6665C47.5 46.7913 55.7086 54.9998 65.8333 54.9998C75.958 54.9998 84.1666 46.7913 84.1666 36.6665C84.1666 26.5418 75.958 18.3333 65.8333 18.3333ZM74.2948 39.487H65.8333C65.4593 39.487 65.1006 39.3385 64.8361 39.074C64.5716 38.8095 64.423 38.4508 64.423 38.0768V25.3845C64.423 25.0105 64.5716 24.6518 64.8361 24.3873C65.1006 24.1228 65.4593 23.9743 65.8333 23.9743C66.2073 23.9743 66.566 24.1228 66.8305 24.3873C67.095 24.6518 67.2435 25.0105 67.2435 25.3845V36.6665H74.2948C74.6688 36.6665 75.0275 36.8151 75.292 37.0796C75.5565 37.3441 75.7051 37.7028 75.7051 38.0768C75.7051 38.4508 75.5565 38.8095 75.292 39.074C75.0275 39.3385 74.6688 39.487 74.2948 39.487Z" fill="#0CBC8B"/>
<path d="M47.2228 3.19458L55.2089 11.1807V33.5545C55.2085 33.9749 55.0412 34.3779 54.7438 34.675C54.4464 34.9721 54.0432 35.1389 53.6229 35.1389H28.045C27.6256 35.136 27.2241 34.9682 26.9273 34.6717C26.6306 34.3753 26.4623 33.974 26.459 33.5545V4.77902C26.459 3.90375 27.1697 3.19458 28.045 3.19458H47.2228ZM35.3954 20.4637L33.811 21.3773L35.4082 24.1437L36.9926 23.2285C37.6203 23.8227 38.387 24.2731 39.2367 24.5254V26.3542H42.4312V24.5254C43.2706 24.2751 44.0393 23.8308 44.6753 23.2285L46.2597 24.1437L47.8569 21.3773L46.2725 20.4621C46.4747 19.6104 46.4747 18.7231 46.2725 17.8714L47.8569 16.9562L46.2597 14.1898L44.6753 15.105C44.0393 14.5027 43.2706 14.0584 42.4312 13.8081V11.9793H39.2367V13.8081C38.3973 14.0584 37.6286 14.5027 36.9926 15.105L35.4082 14.1898L33.811 16.9562L35.3954 17.8714C35.1929 18.7236 35.1929 19.6115 35.3954 20.4637ZM40.8339 21.5626C40.1985 21.5626 39.5891 21.3102 39.1398 20.8609C38.6905 20.4116 38.4381 19.8022 38.4381 19.1668C38.4381 18.5313 38.6905 17.922 39.1398 17.4727C39.5891 17.0233 40.1985 16.7709 40.8339 16.7709C41.4694 16.7709 42.0788 17.0233 42.5281 17.4727C42.9774 17.922 43.2298 18.5313 43.2298 19.1668C43.2298 19.8022 42.9774 20.4116 42.5281 20.8609C42.0788 21.3102 41.4694 21.5626 40.8339 21.5626Z" fill="#4B88E6"/>
</svg>
