<svg width="62" height="43" viewBox="0 0 62 43" fill="none" xmlns="http://www.w3.org/2000/svg">
<path d="M17.0728 19.2444C22.1756 19.2444 26.3122 15.1078 26.3122 10.005C26.3122 4.90225 22.1756 0.765625 17.0728 0.765625C11.97 0.765625 7.83337 4.90225 7.83337 10.005C7.83337 15.1078 11.97 19.2444 17.0728 19.2444Z" fill="#0CBC8B"/>
<path d="M44.5367 19.2444C49.6395 19.2444 53.7761 15.1078 53.7761 10.005C53.7761 4.90225 49.6395 0.765625 44.5367 0.765625C39.4339 0.765625 35.2973 4.90225 35.2973 10.005C35.2973 15.1078 39.4339 19.2444 44.5367 19.2444Z" fill="#E98862"/>
<path d="M19.0824 25.3936V36.6606H15.0633V25.3936C6.76221 26.3864 0.326538 33.4508 0.326538 42.0194H33.8191C33.8191 33.4508 27.3835 26.3864 19.0824 25.3936Z" fill="#0CBC8B"/>
<path d="M46.5457 25.394V36.661H42.5266V25.3936C39.1091 25.8024 36.008 27.2399 33.5419 29.3883C36.2341 32.8904 37.8376 37.271 37.8376 42.0198H61.2824C61.2824 33.4512 54.8468 26.3868 46.5457 25.394Z" fill="#E98862"/>
</svg>
