<svg width="43" height="43" viewBox="0 0 43 43" fill="none" xmlns="http://www.w3.org/2000/svg">
<g clip-path="url(#clip0_1_192)">
<path d="M21.4762 29.2181C24.4743 29.2181 26.5698 27.8077 27.7948 26.486C28.5121 25.7042 29.7371 25.6478 30.5269 26.3732C31.3087 27.0985 31.357 28.3235 30.6317 29.1053C28.8667 31.0315 25.8041 33.0866 21.4762 33.0866C17.1483 33.0866 14.0858 31.0315 12.3208 29.1053C11.5954 28.3235 11.5713 27.0985 12.4256 26.3732C13.2154 25.6478 14.4404 25.7042 15.1577 26.486C16.3827 27.8077 18.4781 29.2181 21.4762 29.2181ZM18.3814 19.289L18.3653 19.2648C18.3492 19.2487 18.3331 19.2245 18.3089 19.1923C18.2525 19.1278 18.18 19.0391 18.0832 18.9263C17.8818 18.6926 17.5997 18.3944 17.2612 18.0236C16.552 17.4676 15.738 16.9679 15.0287 16.9679C14.3195 16.9679 13.5055 17.4676 12.7963 18.0236C12.4578 18.3944 12.1757 18.6926 11.9742 18.9263C11.8775 19.0391 11.7325 19.1278 11.7486 19.1923C11.6519 19.2245 11.7083 19.2487 11.6922 19.2648L11.676 19.289C11.5068 19.5146 11.2167 19.6033 10.9588 19.5146C10.6928 19.426 10.5155 19.1761 10.5155 18.9021C10.5155 17.4595 11.0555 16.033 11.8533 14.9691C12.6432 13.9214 13.7795 13.0994 15.0287 13.0994C16.2779 13.0994 17.4143 13.9214 18.2041 14.9691C19.002 16.033 19.542 17.4595 19.542 18.9021C19.542 19.1761 19.3647 19.426 19.0987 19.5146C18.8408 19.6033 18.5507 19.5146 18.3814 19.289ZM31.2764 19.289L31.2603 19.2648C31.2442 19.2487 31.2281 19.2245 31.2039 19.1923C31.1475 19.1278 31.0749 19.0391 30.9782 18.9263C30.7768 18.6926 30.4947 18.3944 30.1562 18.0236C29.447 17.4676 28.633 16.9679 27.9237 16.9679C27.2145 16.9679 26.4005 17.4676 25.6913 18.0236C25.3528 18.3944 25.0707 18.6926 24.8692 18.9263C24.7725 19.0391 24.6274 19.1278 24.6436 19.1923C24.5469 19.2245 24.6033 19.2487 24.5872 19.2648L24.571 19.289C24.4018 19.5146 24.1117 19.6033 23.8538 19.5146C23.5878 19.426 23.4105 19.1761 23.4105 18.9021C23.4105 17.4595 23.9505 16.033 24.7483 14.9691C25.5382 13.9214 26.6745 13.0994 27.9237 13.0994C29.1729 13.0994 30.3093 13.9214 31.0991 14.9691C31.897 16.033 32.437 17.4595 32.437 18.9021C32.437 19.1761 32.2597 19.426 31.9937 19.5146C31.7358 19.6033 31.4457 19.5146 31.2764 19.289ZM42.1082 21.4811C42.1082 32.8771 32.8722 42.1131 21.4762 42.1131C10.0803 42.1131 0.844238 32.8771 0.844238 21.4811C0.844238 10.0852 10.0803 0.849121 21.4762 0.849121C32.8722 0.849121 42.1082 10.0852 42.1082 21.4811ZM21.4762 4.71762C12.216 4.71762 4.71274 12.2209 4.71274 21.4811C4.71274 30.7413 12.216 38.2446 21.4762 38.2446C30.7365 38.2446 38.2397 30.7413 38.2397 21.4811C38.2397 12.2209 30.7365 4.71762 21.4762 4.71762Z" fill="#0CBC8B"/>
</g>
<defs>
<clipPath id="clip0_1_192">
<rect width="41.264" height="41.264" fill="white" transform="translate(0.844238 0.849121)"/>
</clipPath>
</defs>
</svg>
