<svg width="43" height="43" viewBox="0 0 43 43" fill="none" xmlns="http://www.w3.org/2000/svg">
<g clip-path="url(#clip0_1_190)">
<path d="M21.3774 29.2181C24.3754 29.2181 26.4709 27.8077 27.6959 26.486C28.4132 25.7042 29.6382 25.6478 30.428 26.3732C31.2098 27.0985 31.2581 28.3235 30.5328 29.1053C28.7678 31.0315 25.7052 33.0866 21.3774 33.0866C17.0495 33.0866 13.9869 31.0315 12.2219 29.1053C11.4966 28.3235 11.4724 27.0985 12.3267 26.3732C13.1165 25.6478 14.3415 25.7042 15.0588 26.486C16.2838 27.8077 18.3793 29.2181 21.3774 29.2181ZM17.5411 17.6126C17.5411 19.0391 16.3805 20.1916 14.9621 20.1916C13.5356 20.1916 12.3831 19.0391 12.3831 17.6126C12.3831 16.1861 13.5356 15.0336 14.9621 15.0336C16.3805 15.0336 17.5411 16.1861 17.5411 17.6126ZM25.2781 17.6126C25.2781 16.1861 26.4306 15.0336 27.8571 15.0336C29.2755 15.0336 30.4361 16.1861 30.4361 17.6126C30.4361 19.0391 29.2755 20.1916 27.8571 20.1916C26.4306 20.1916 25.2781 19.0391 25.2781 17.6126ZM42.0093 21.4811C42.0093 32.8771 32.7733 42.1131 21.3774 42.1131C9.9814 42.1131 0.745355 32.8771 0.745355 21.4811C0.745355 10.0852 9.9814 0.849121 21.3774 0.849121C32.7733 0.849121 42.0093 10.0852 42.0093 21.4811ZM21.3774 4.71762C12.1171 4.71762 4.61385 12.2209 4.61385 21.4811C4.61385 30.7413 12.1171 38.2446 21.3774 38.2446C30.6376 38.2446 38.1408 30.7413 38.1408 21.4811C38.1408 12.2209 30.6376 4.71762 21.3774 4.71762Z" fill="#0CBC8B"/>
</g>
<defs>
<clipPath id="clip0_1_190">
<rect width="41.264" height="41.264" fill="white" transform="translate(0.745361 0.849121)"/>
</clipPath>
</defs>
</svg>
