<svg width="45" height="45" viewBox="0 0 45 45" fill="none" xmlns="http://www.w3.org/2000/svg">
<path d="M15.3026 22.4856C16.6145 22.4856 17.678 21.4221 17.678 20.1102C17.678 18.7983 16.6145 17.7349 15.3026 17.7349C13.9907 17.7349 12.9272 18.7983 12.9272 20.1102C12.9272 21.4221 13.9907 22.4856 15.3026 22.4856Z" fill="#0CBC8B"/>
<path d="M22.4335 35.1543C17.9382 35.1543 14.1574 32.2316 12.9608 28.243C12.9273 28.1243 12.9221 27.9994 12.9454 27.8783C12.9687 27.7572 13.02 27.6432 13.0952 27.5455C13.1704 27.4477 13.2673 27.3689 13.3784 27.3152C13.4894 27.2615 13.6115 27.2346 13.7348 27.2364H31.1233C31.2467 27.2346 31.3687 27.2615 31.4797 27.3152C31.5908 27.3689 31.6877 27.4477 31.7629 27.5455C31.8381 27.6432 31.8894 27.7572 31.9127 27.8783C31.9361 27.9994 31.9308 28.1243 31.8973 28.243C30.7106 32.2316 26.9289 35.1543 22.4335 35.1543Z" fill="#0CBC8B"/>
<path d="M29.5547 22.4856C30.8666 22.4856 31.9301 21.4221 31.9301 20.1102C31.9301 18.7983 30.8666 17.7349 29.5547 17.7349C28.2428 17.7349 27.1794 18.7983 27.1794 20.1102C27.1794 21.4221 28.2428 22.4856 29.5547 22.4856Z" fill="#0CBC8B"/>
<path d="M22.4286 43.0717C33.7982 43.0717 43.015 33.8549 43.015 22.4853C43.015 11.1158 33.7982 1.89893 22.4286 1.89893C11.0591 1.89893 1.84225 11.1158 1.84225 22.4853C1.84225 33.8549 11.0591 43.0717 22.4286 43.0717Z" stroke="#0CBC8B" stroke-width="3.66791" stroke-miterlimit="10"/>
</svg>
