<svg width="16" height="28" viewBox="0 0 16 28" fill="none" xmlns="http://www.w3.org/2000/svg">
<path d="M11.1115 7.20524C11.1115 7.16696 11.3083 7.04118 11.9373 7.04118H13.9935C14.1541 7.04336 14.3134 7.01353 14.4623 6.95343C14.6112 6.89333 14.7466 6.80415 14.8607 6.69113C14.9747 6.5781 15.0651 6.44348 15.1265 6.29513C15.188 6.14679 15.2192 5.98768 15.2185 5.82712V2.23962C15.2214 2.07973 15.1927 1.92084 15.134 1.77208C15.0753 1.62332 14.9878 1.48762 14.8765 1.37277C14.7652 1.25793 14.6323 1.1662 14.4855 1.10286C14.3387 1.03952 14.1808 1.00582 14.0208 1.00368H10.9583C10.1084 0.974551 9.2615 1.11854 8.46898 1.4269C7.67646 1.73526 6.95491 2.20155 6.34819 2.79743C5.76057 3.43132 5.30395 4.17504 5.00457 4.9859C4.7052 5.79676 4.56895 6.65877 4.60366 7.52243V10.7763H2.22476C2.0646 10.7756 1.90588 10.8065 1.75764 10.8671C1.60941 10.9277 1.47456 11.0169 1.36081 11.1297C1.24706 11.2424 1.15663 11.3764 1.09468 11.5241C1.03273 11.6718 1.00047 11.8302 0.999756 11.9904V15.8568C0.999756 16.1773 1.12709 16.4848 1.35374 16.7114C1.5804 16.9381 1.88781 17.0654 2.20835 17.0654H4.54897V25.4599C4.54458 25.781 4.66756 26.0907 4.891 26.3213C5.11443 26.5519 5.42012 26.6846 5.74116 26.6904H9.76069C9.91987 26.6904 10.0775 26.659 10.2245 26.5979C10.3715 26.5368 10.5049 26.4473 10.6172 26.3345C10.7295 26.2217 10.8184 26.0878 10.8789 25.9405C10.9393 25.7933 10.97 25.6355 10.9693 25.4763V17.0927H13.8294C14.151 17.0913 14.459 16.9629 14.6863 16.7356C14.9137 16.5082 15.0421 16.2002 15.0435 15.8787V12.0068C15.0435 11.8476 15.0121 11.69 14.951 11.543C14.8899 11.396 14.8004 11.2626 14.6876 11.1503C14.5748 11.038 14.4409 10.9491 14.2936 10.8886C14.1464 10.8282 13.9886 10.7975 13.8294 10.7982H10.9857V7.94899C10.9552 7.69414 10.9989 7.4359 11.1115 7.20524Z" stroke="white" stroke-width="1.5" stroke-linecap="round"/>
</svg>
