<svg width="56" height="51" viewBox="0 0 56 51" fill="none" xmlns="http://www.w3.org/2000/svg">
<circle cx="25.1166" cy="25.1166" r="18.7572" fill="#CBDFFE"/>
<circle cx="25.4514" cy="25.4514" r="24.76" stroke="#4B88E6" stroke-width="0.617284" stroke-dasharray="4.94 4.94"/>
<path d="M23.9206 44.0142C23.9206 44.3322 23.7943 44.6371 23.5695 44.862C23.3446 45.0868 23.0397 45.2131 22.7217 45.2131H3.53878C3.2208 45.2131 2.91585 45.0868 2.691 44.862C2.46616 44.6371 2.33984 44.3322 2.33984 44.0142V31.2024C2.33977 31.0213 2.38073 30.8425 2.45963 30.6795C2.53854 30.5165 2.65335 30.3735 2.79544 30.2612L12.3869 22.6948C12.5986 22.5275 12.8605 22.4365 13.1302 22.4365C13.4 22.4365 13.6619 22.5275 13.8736 22.6948L23.465 30.26C23.6073 30.3724 23.7222 30.5157 23.8011 30.6789C23.88 30.8421 23.9209 31.0211 23.9206 31.2024V44.0142Z" fill="#222D39"/>
<path d="M15.1195 33.7734L12.2647 37.0714L10.9971 35.8295" stroke="#E98862" stroke-width="0.759737" stroke-linecap="round" stroke-linejoin="round"/>
<path d="M18.3945 32.1336C16.0905 31.7203 15.138 31.4142 13.0584 30.4751C10.9789 31.4142 10.0263 31.7203 7.72239 32.1336C7.30498 38.7492 12.6611 41.0335 13.0584 41.1935C13.4557 41.0335 18.8119 38.7492 18.3945 32.1336Z" stroke="#4B88E6" stroke-width="0.759737" stroke-linecap="round" stroke-linejoin="round"/>
<path d="M32.4854 36.2367H55.262V38.5144H32.4854V36.2367ZM34.763 27.1261H37.0407V35.0979H34.763V27.1261ZM40.4572 27.1261H42.7348V35.0979H40.4572V27.1261ZM45.0125 27.1261H47.2901V35.0979H45.0125V27.1261ZM50.7066 27.1261H52.9843V35.0979H50.7066V27.1261ZM32.4854 21.4319L43.8737 15.7378L55.262 21.4319V25.9873H32.4854V21.4319ZM43.8737 22.5708C44.1757 22.5708 44.4654 22.4508 44.6789 22.2372C44.8925 22.0236 45.0125 21.734 45.0125 21.4319C45.0125 21.1299 44.8925 20.8402 44.6789 20.6267C44.4654 20.4131 44.1757 20.2931 43.8737 20.2931C43.5716 20.2931 43.282 20.4131 43.0684 20.6267C42.8548 20.8402 42.7348 21.1299 42.7348 21.4319C42.7348 21.734 42.8548 22.0236 43.0684 22.2372C43.282 22.4508 43.5716 22.5708 43.8737 22.5708Z" fill="#E98862"/>
<path d="M32.4854 36.2366H55.262V38.5143H32.4854V36.2366ZM34.763 27.126H37.0407V35.0978H34.763V27.126ZM40.4572 27.126H42.7348V35.0978H40.4572V27.126ZM45.0125 27.126H47.2901V35.0978H45.0125V27.126ZM50.7066 27.126H52.9843V35.0978H50.7066V27.126Z" fill="#222D39"/>
<path d="M43.8742 22.5706C44.1762 22.5706 44.4659 22.4506 44.6795 22.2371C44.893 22.0235 45.013 21.7338 45.013 21.4318C45.013 21.1298 44.893 20.8401 44.6795 20.6265C44.4659 20.413 44.1762 20.293 43.8742 20.293C43.5721 20.293 43.2825 20.413 43.0689 20.6265C42.8553 20.8401 42.7354 21.1298 42.7354 21.4318C42.7354 21.7338 42.8553 22.0235 43.0689 22.2371C43.2825 22.4506 43.5721 22.5706 43.8742 22.5706Z" fill="#4B88E6"/>
<path d="M6.35938 15.0679C6.35938 13.6466 6.924 12.2834 7.92905 11.2784C8.93409 10.2733 10.2972 9.7087 11.7186 9.7087C13.1399 9.7087 14.5031 10.2733 15.5081 11.2784C16.5132 12.2834 17.0778 13.6466 17.0778 15.0679H15.738C15.738 14.0019 15.3145 12.9795 14.5607 12.2258C13.8069 11.472 12.7846 11.0485 11.7186 11.0485C10.6526 11.0485 9.63021 11.472 8.87643 12.2258C8.12265 12.9795 7.69918 14.0019 7.69918 15.0679H6.35938ZM11.7186 9.0388C9.49786 9.0388 7.69918 7.24012 7.69918 5.0194C7.69918 2.79868 9.49786 1 11.7186 1C13.9393 1 15.738 2.79868 15.738 5.0194C15.738 7.24012 13.9393 9.0388 11.7186 9.0388ZM11.7186 7.699C13.1991 7.699 14.3982 6.49988 14.3982 5.0194C14.3982 3.53892 13.1991 2.3398 11.7186 2.3398C10.2381 2.3398 9.03898 3.53892 9.03898 5.0194C9.03898 6.49988 10.2381 7.699 11.7186 7.699Z" fill="#222D39"/>
<path d="M16.4081 10.3784C14.1881 10.3784 12.3887 12.1779 12.3887 14.3978C12.3887 16.6178 14.1881 18.4172 16.4081 18.4172C18.628 18.4172 20.4275 16.6178 20.4275 14.3978C20.4275 12.1779 18.628 10.3784 16.4081 10.3784ZM14.8171 12.5879L16.8461 13.9599C16.9801 14.0564 17.0707 14.2017 17.0983 14.3644C17.1259 14.5272 17.0884 14.6942 16.9938 14.8295C16.8992 14.9648 16.7551 15.0573 16.5928 15.0872C16.4305 15.1171 16.2629 15.0819 16.1263 14.9891C16.0663 14.9468 16.014 14.8945 15.9717 14.8345L14.5997 12.8055C14.5786 12.7753 14.5688 12.7385 14.5721 12.7018C14.5753 12.665 14.5914 12.6306 14.6175 12.6045C14.6436 12.5784 14.678 12.5623 14.7147 12.5591C14.7515 12.5559 14.7882 12.5657 14.8185 12.5868L14.8171 12.5879ZM16.4081 17.7989C14.5336 17.7989 13.007 16.2732 13.007 14.3978C13.0054 13.9404 13.0969 13.4874 13.2759 13.0665C13.4548 12.6455 13.7175 12.2653 14.048 11.9491C14.0737 11.9235 14.1043 11.9032 14.1379 11.8895C14.1715 11.8758 14.2075 11.8689 14.2438 11.8693C14.2801 11.8697 14.3159 11.8772 14.3493 11.8916C14.3826 11.906 14.4127 11.9268 14.4379 11.9529C14.4631 11.9791 14.4828 12.0099 14.496 12.0438C14.5091 12.0776 14.5154 12.1137 14.5144 12.15C14.5135 12.1863 14.5053 12.222 14.4904 12.2551C14.4754 12.2882 14.4541 12.318 14.4276 12.3427C14.1502 12.6081 13.9298 12.9272 13.7796 13.2805C13.6294 13.6338 13.5526 14.0139 13.5539 14.3978C13.5539 15.9716 14.8343 17.252 16.4081 17.252C17.9818 17.252 19.2622 15.9716 19.2622 14.3978C19.2622 12.9162 18.1275 11.6948 16.6815 11.5572V12.62C16.6815 12.6925 16.6527 12.7621 16.6014 12.8134C16.5501 12.8646 16.4806 12.8934 16.4081 12.8934C16.3356 12.8934 16.266 12.8646 16.2147 12.8134C16.1634 12.7621 16.1346 12.6925 16.1346 12.62V11.2702C16.1346 11.1977 16.1634 11.1282 16.2147 11.0769C16.266 11.0256 16.3356 10.9968 16.4081 10.9968C18.2835 10.9968 19.8091 12.5234 19.8091 14.3978C19.8091 16.2723 18.2835 17.7989 16.4081 17.7989Z" fill="#E98862"/>
<path d="M17.2559 6.63356C17.2559 6.38335 17.3283 6.18747 17.4732 6.04591C17.6213 5.90434 17.8106 5.83356 18.0411 5.83356C18.2715 5.83356 18.4592 5.90434 18.604 6.04591C18.7522 6.18747 18.8262 6.38335 18.8262 6.63356C18.8262 6.88706 18.7522 7.08459 18.604 7.22615C18.4592 7.36772 18.2715 7.4385 18.0411 7.4385C17.8106 7.4385 17.6213 7.36772 17.4732 7.22615C17.3283 7.08459 17.2559 6.88706 17.2559 6.63356ZM20.4262 5.89282L18.4855 9.34961H17.8139L19.7497 5.89282H20.4262ZM18.0361 6.24837C17.8551 6.24837 17.7645 6.37677 17.7645 6.63356C17.7645 6.89364 17.8551 7.02368 18.0361 7.02368C18.125 7.02368 18.1941 6.99241 18.2435 6.92986C18.2929 6.86401 18.3176 6.76525 18.3176 6.63356C18.3176 6.37677 18.2238 6.24837 18.0361 6.24837ZM19.4238 8.60393C19.4238 8.35043 19.4962 8.15455 19.6411 8.01628C19.7892 7.87471 19.9785 7.80393 20.209 7.80393C20.4394 7.80393 20.6254 7.87471 20.767 8.01628C20.9118 8.15455 20.9843 8.35043 20.9843 8.60393C20.9843 8.85743 20.9118 9.05496 20.767 9.19652C20.6254 9.33809 20.4394 9.40887 20.209 9.40887C19.9752 9.40887 19.7859 9.33809 19.6411 9.19652C19.4962 9.05496 19.4238 8.85743 19.4238 8.60393ZM20.204 8.21875C20.0164 8.21875 19.9225 8.34714 19.9225 8.60393C19.9225 8.86401 20.0164 8.99405 20.204 8.99405C20.3884 8.99405 20.4806 8.86401 20.4806 8.60393C20.4806 8.34714 20.3884 8.21875 20.204 8.21875Z" fill="#0CBC8B"/>
</svg>
