<svg width="35" height="41" viewBox="0 0 35 41" fill="none" xmlns="http://www.w3.org/2000/svg">
<g clip-path="url(#clip0_1_955)">
<path d="M6.25 15.1442V11.3582C6.25 5.08515 11.2891 0 17.5 0C23.7109 0 28.75 5.08515 28.75 11.3582V15.1442H30C32.7578 15.1442 35 17.408 35 20.1923V35.3365C35 38.1209 32.7578 40.3846 30 40.3846H5C2.23828 40.3846 0 38.1209 0 35.3365V20.1923C0 17.408 2.23828 15.1442 5 15.1442H6.25ZM11.25 15.1442H23.75V11.3582C23.75 7.87342 20.9531 5.04808 17.5 5.04808C14.0469 5.04808 11.25 7.87342 11.25 11.3582V15.1442Z" fill="#222D39"/>
<path d="M20.9499 29.247C20.9499 29.7282 20.8249 30.1817 20.575 30.6074C20.3344 31.0239 19.9735 31.3709 19.4922 31.6486C19.0202 31.917 18.4603 32.0743 17.8125 32.1206V33.245H16.924V32.1067C15.9985 32.0234 15.2535 31.7458 14.689 31.2738C14.1244 30.7925 13.8329 30.1447 13.8144 29.3303H15.8967C15.9523 29.9966 16.2947 30.3992 16.924 30.538V27.8865C16.2577 27.7199 15.7209 27.5533 15.3137 27.3868C14.9065 27.2202 14.5548 26.9518 14.2586 26.5816C13.9625 26.2114 13.8144 25.707 13.8144 25.0684C13.8144 24.2633 14.1013 23.6062 14.6751 23.0971C15.2582 22.5881 16.0078 22.2966 16.924 22.2226V21.0981H17.8125V22.2226C18.7009 22.2966 19.4089 22.565 19.9365 23.0277C20.4732 23.4905 20.774 24.1291 20.8388 24.9435H18.7426C18.7148 24.6751 18.6177 24.4437 18.4511 24.2494C18.2937 24.0458 18.0809 23.9023 17.8125 23.819V26.4428C18.5066 26.6186 19.0526 26.7898 19.4506 26.9564C19.8578 27.1137 20.2095 27.3775 20.5056 27.7477C20.8018 28.1086 20.9499 28.6084 20.9499 29.247ZM15.8412 24.9712C15.8412 25.2767 15.9338 25.5265 16.1189 25.7209C16.304 25.906 16.5723 26.0587 16.924 26.179V23.7774C16.5908 23.8237 16.3271 23.9486 16.1327 24.1522C15.9384 24.3558 15.8412 24.6288 15.8412 24.9712ZM17.8125 30.5658C18.1642 30.501 18.4372 30.3575 18.6315 30.1354C18.8351 29.9133 18.9369 29.6449 18.9369 29.3303C18.9369 29.0249 18.8398 28.7796 18.6454 28.5945C18.4511 28.4094 18.1734 28.2567 17.8125 28.1364V30.5658Z" fill="#E98862"/>
</g>
<defs>
<clipPath id="clip0_1_955">
<rect width="35" height="40.3846" fill="white"/>
</clipPath>
</defs>
</svg>
