<svg width="66" height="72" viewBox="0 0 66 72" fill="none" xmlns="http://www.w3.org/2000/svg">
<path d="M58.0535 28.4598C62.0561 28.4598 65.3102 31.7083 65.3102 35.7165V64.7433C65.3102 68.7458 62.0561 72 58.0535 72H7.25669C3.2485 72 0 68.7458 0 64.7433V35.7165C0 31.7083 3.2485 28.4598 7.25669 28.4598H58.0535ZM30.8409 42.9732C29.8431 42.9732 29.0268 43.7896 29.0268 44.7874C29.0268 45.7852 29.8431 46.6016 30.8409 46.6016H56.2394C57.2372 46.6016 58.0535 45.7852 58.0535 44.7874C58.0535 43.7896 57.2372 42.9732 56.2394 42.9732H30.8409ZM30.8409 57.4866H56.2394C57.2372 57.4866 58.0535 56.6702 58.0535 55.6724C58.0535 54.6746 57.2372 53.8583 56.2394 53.8583H30.8409C29.8431 53.8583 29.0268 54.6746 29.0268 55.6724C29.0268 56.6702 29.8431 57.4866 30.8409 57.4866ZM18.6066 39.3449C18.6066 38.0863 17.5861 37.0658 16.2255 37.0658C15.069 37.0658 14.0485 38.0863 14.0485 39.3449V40.0252C13.4135 40.1613 12.7106 40.354 12.2457 40.6035C10.5517 41.3745 9.0788 42.8031 8.7205 44.8781C8.51981 46.0346 8.62639 47.1572 9.10715 48.1663C9.5777 49.1641 10.3181 49.8671 11.0699 50.3773C12.3817 51.2731 14.1165 51.7946 15.4431 52.1915L15.6926 52.2595C17.28 52.7471 18.3458 53.0986 19.0148 53.5861C19.2983 53.7902 19.4003 53.949 19.4343 54.051C19.4797 54.1417 19.5477 54.3458 19.4683 54.7994C19.4003 55.1962 19.1849 55.5364 18.5613 55.7972C17.8696 56.092 16.7471 56.2394 15.2957 56.0126C14.6154 55.8992 13.4022 55.491 12.325 55.1282C12.0756 55.0375 11.8261 54.9581 11.5994 54.8787C10.4134 54.4819 9.12869 55.1282 8.73298 56.3187C8.33726 57.5093 8.98016 58.7905 10.1684 59.0854C10.3056 59.2328 10.4757 59.2894 10.6707 59.3575C11.4633 59.6636 12.9713 60.1398 14.0485 60.3893V61.115C14.0485 62.3735 15.069 63.394 16.2255 63.394C17.5861 63.394 18.6066 62.3735 18.6066 61.115V60.4913C19.2076 60.3779 19.7972 60.1058 20.3414 59.9698C22.1329 59.2101 23.5616 57.7361 23.9357 55.5817C24.1398 54.4025 24.0491 53.2687 23.5956 52.2368C23.1534 51.2164 22.4391 50.468 21.6794 49.9238C20.3074 48.9146 18.4706 48.3704 17.0986 47.9509L16.9058 47.9282C15.3978 47.4406 14.3093 47.1005 13.6176 46.6242C13.3228 46.4202 13.2321 46.2841 13.2094 46.2274C13.1868 46.182 13.1187 46.046 13.1868 45.6605C13.2321 45.4337 13.4022 45.0595 14.1165 44.742C14.7515 44.4132 15.9761 44.2318 17.3594 44.3452C17.8583 44.5266 19.389 44.8214 19.8312 44.9348C21.0331 45.2636 22.2803 44.538 22.5978 43.3247C22.9266 42.1228 22.2009 40.8756 20.9877 40.5581C20.4888 40.422 19.355 40.1953 18.6066 40.0592V39.3449Z" fill="#222D39"/>
<path d="M46.8178 20.2071L35.2377 8.62703L26.9178 16.9391C25.9311 17.9258 24.3365 17.9258 23.3498 16.9391L10.7177 4.30917C9.73131 3.32246 9.73131 1.72793 10.7177 0.741219C11.7043 -0.247073 13.3035 -0.247073 14.2902 0.741219L25.0628 11.5793L33.4538 3.2672C34.4405 2.28049 36.035 2.28049 37.0217 3.2672L50.3937 16.6312V10.0321C50.3937 8.70596 51.5225 7.50612 52.9196 7.50612C54.3168 7.50612 55.4456 8.70596 55.4456 10.0321V22.7331C55.4456 24.1303 54.3168 25.2591 52.9196 25.2591H40.2897C38.8925 25.2591 37.7637 24.1303 37.7637 22.7331C37.7637 21.3359 38.8925 20.2071 40.2897 20.2071H46.8178Z" fill="#E98862"/>
</svg>
