<svg width="24" height="20" viewBox="0 0 24 20" fill="none" xmlns="http://www.w3.org/2000/svg">
<path d="M11.8343 3.94476H7.88951V0L11.8343 3.94476ZM7.88951 4.93095H11.8343V14.2997C11.8343 15.1167 11.172 15.779 10.355 15.779H1.47928C0.662287 15.779 0 15.1164 0 14.2997V1.47928C0 0.662288 0.662287 0 1.47928 0H6.90332L6.90344 3.94476C6.90332 4.49024 7.34402 4.93095 7.88951 4.93095ZM1.97238 2.71202C1.97238 2.84701 2.08425 2.95857 2.21892 2.95857H4.6844C4.82 2.95857 4.93094 2.84701 4.93094 2.71202V2.21893C4.93094 2.08425 4.82 1.97238 4.6844 1.97238H2.21892C2.08425 1.97238 1.97238 2.08425 1.97238 2.21893V2.71202ZM2.21892 4.93095H4.6844C4.82 4.93095 4.93094 4.82 4.93094 4.6844V4.1913C4.93094 4.0557 4.82 3.94476 4.6844 3.94476H2.21892C2.08425 3.94476 1.97238 4.0557 1.97238 4.1913V4.6844C1.97238 4.82 2.08425 4.93095 2.21892 4.93095ZM6.08663 9.76327L5.8894 9.71396C5.18674 9.49824 5.20215 9.37188 5.2268 9.26093C5.26918 9.02018 5.73808 8.96141 6.15967 9.02594C6.33207 9.05195 6.52117 9.1126 6.70177 9.17523C7.02197 9.28599 7.37453 9.1155 7.4861 8.79493C7.59781 8.47318 7.42782 8.12185 7.10611 8.00998C6.88363 7.93343 6.70208 7.88431 6.53412 7.84748V7.64297C6.53412 7.30304 6.2582 7.0266 5.91775 7.0266C5.5773 7.0266 5.30138 7.30301 5.30138 7.64297V7.82763C4.61043 7.97581 4.1235 8.40726 4.01255 9.05137C3.78431 10.3716 5.03542 10.7387 5.5695 10.8955L5.74862 10.9476C6.65098 11.2057 6.63619 11.2924 6.60907 11.4493C6.56669 11.69 6.09779 11.7498 5.67496 11.6843C5.46114 11.6525 5.18772 11.5543 4.9458 11.4676L4.80807 11.4175C4.48725 11.3068 4.1353 11.4734 4.02158 11.7941C3.90842 12.1149 4.07647 12.4672 4.39757 12.5809L4.52904 12.6271C4.76813 12.7131 5.03385 12.7994 5.30135 12.8586V13.067C5.30135 13.4069 5.57727 13.6834 5.91772 13.6834C6.25817 13.6834 6.53408 13.407 6.53408 13.067V12.8743C7.22318 12.7266 7.71166 12.3032 7.82322 11.6591C8.05285 10.3242 6.77388 9.95743 6.08663 9.76327Z" fill="#222D39"/>
<path d="M18.9594 5.88623L22.1097 9.03656V17.8625C22.1096 18.0283 22.0436 18.1873 21.9263 18.3045C21.8089 18.4217 21.6499 18.4875 21.4841 18.4875H11.3942C11.2287 18.4864 11.0704 18.4202 10.9533 18.3032C10.8362 18.1863 10.7699 18.028 10.7686 17.8625V6.51126C10.7686 6.16598 11.0489 5.88623 11.3942 5.88623H18.9594ZM14.2938 12.6985L13.6687 13.0589L14.2988 14.1502L14.9238 13.7891C15.1714 14.0235 15.4739 14.2012 15.8091 14.3008V15.0222H17.0692V14.3008C17.4003 14.202 17.7036 14.0267 17.9544 13.7891L18.5795 14.1502L19.2095 13.0589L18.5845 12.6979C18.6643 12.3619 18.6643 12.0119 18.5845 11.6759L19.2095 11.3149L18.5795 10.2236L17.9544 10.5846C17.7036 10.347 17.4003 10.1718 17.0692 10.073V9.35159H15.8091V10.073C15.478 10.1718 15.1747 10.347 14.9238 10.5846L14.2988 10.2236L13.6687 11.3149L14.2938 11.6759C14.2139 12.0121 14.2139 12.3623 14.2938 12.6985ZM16.4391 13.132C16.1885 13.132 15.9481 13.0324 15.7709 12.8552C15.5936 12.6779 15.494 12.4375 15.494 12.1869C15.494 11.9362 15.5936 11.6958 15.7709 11.5186C15.9481 11.3414 16.1885 11.2418 16.4391 11.2418C16.6898 11.2418 16.9302 11.3414 17.1074 11.5186C17.2847 11.6958 17.3842 11.9362 17.3842 12.1869C17.3842 12.4375 17.2847 12.6779 17.1074 12.8552C16.9302 13.0324 16.6898 13.132 16.4391 13.132Z" fill="#FF6C59"/>
</svg>
