<svg width="22" height="25" viewBox="0 0 22 25" fill="none" xmlns="http://www.w3.org/2000/svg">
<path d="M17.1693 5.83524L18.8759 4.12859L20.5368 5.78943L18.8301 7.49607C20.5165 9.60696 21.3307 12.2835 21.1053 14.9759C20.88 17.6683 19.6323 20.1722 17.6185 21.9734C15.6047 23.7747 12.9777 24.7364 10.2769 24.6613C7.57615 24.5861 5.00667 23.4796 3.0962 21.5692C1.18573 19.6587 0.0792825 17.0892 0.00409786 14.3884C-0.0710868 11.6877 0.890698 9.06061 2.69193 7.04681C4.49315 5.03301 6.99709 3.78533 9.6895 3.56001C12.3819 3.33469 15.0584 4.14883 17.1693 5.83524ZM9.39601 8.22195V15.2693H11.7451V8.22195H9.39601ZM5.87232 0H15.2688V2.34913H5.87232V0Z" fill="#222D39"/>
<path d="M9.39576 8.22195V15.2693H11.7449V8.22195H9.39576ZM5.87207 0H15.2686V2.34913H5.87207V0Z" fill="#FF6C59"/>
</svg>
