<svg width="72" height="72" viewBox="0 0 72 72" fill="none" xmlns="http://www.w3.org/2000/svg">
<path d="M72 65.7692L50.5246 44.2904C53.9855 39.5345 55.8472 33.8026 55.8415 27.9208C55.8415 12.5256 43.316 0 27.9208 0C12.5256 0 0 12.5256 0 27.9208C0 43.316 12.5256 55.8415 27.9208 55.8415C33.8026 55.8472 39.5345 53.9855 44.2904 50.5246L65.7692 72L72 65.7692ZM27.9208 47.0233C24.1422 47.0236 20.4483 45.9034 17.3064 43.8044C14.1644 41.7053 11.7155 38.7216 10.2694 35.2307C8.82319 31.7398 8.44472 27.8984 9.18181 24.1924C9.91889 20.4864 11.7384 17.0822 14.4103 14.4103C17.0822 11.7384 20.4864 9.91889 24.1924 9.18181C27.8984 8.44472 31.7398 8.82319 35.2307 10.2694C38.7216 11.7155 41.7053 14.1644 43.8044 17.3064C45.9034 20.4483 47.0236 24.1422 47.0233 27.9208C47.0173 32.9852 45.0028 37.8406 41.4217 41.4217C37.8406 45.0028 32.9852 47.0173 27.9208 47.0233Z" fill="#222D39"/>
<path d="M38.5609 30.6069C38.5609 25.6598 33.2291 25.0002 29.5737 24.5605V20.7402C31.0029 20.9601 31.7724 21.5922 31.8824 23.1038H37.8189C37.8738 18.0743 33.9437 16.3978 29.5737 16.123V14.2816H27.2651V16.0955C22.0707 16.3154 18.6902 18.5415 18.6902 22.2518C18.6902 26.8416 23.8022 27.6661 27.2651 28.2983V32.146C25.6985 31.9811 24.4618 31.4039 24.4068 29.8648H18.3329C18.3879 34.5371 21.9882 36.5983 27.2651 36.8457V38.5222H29.5737V36.8457C35.0705 36.5983 38.5609 34.4821 38.5609 30.6069ZM24.9565 22.3343C24.9565 21.3174 26.0009 20.8227 27.2651 20.6853V24.1482C25.3687 23.6535 24.9565 22.9389 24.9565 22.3343ZM29.5737 32.146V28.738C31.4152 29.1777 32.1847 29.6724 32.1847 30.4969C32.1847 31.5138 31.1678 32.0086 29.5737 32.146Z" fill="#E98862"/>
<path d="M32.7212 23.8269C30.9963 23.8269 29.3102 24.3384 27.876 25.2967C26.4418 26.255 25.324 27.6171 24.6639 29.2107C24.0038 30.8042 23.8311 32.5578 24.1676 34.2495C24.5041 35.9413 25.3347 37.4953 26.5544 38.7149C27.7741 39.9346 29.328 40.7652 31.0198 41.1018C32.7115 41.4383 34.4651 41.2656 36.0587 40.6055C37.6523 39.9454 39.0143 38.8276 39.9726 37.3934C40.9309 35.9592 41.4424 34.273 41.4424 32.5481C41.4424 31.4028 41.2169 30.2688 40.7786 29.2107C40.3403 28.1525 39.6979 27.1911 38.888 26.3813C38.0782 25.5714 37.1168 24.929 36.0587 24.4908C35.0006 24.0525 33.8665 23.8269 32.7212 23.8269ZM35.0847 33.6732C35.1664 33.7542 35.2313 33.8507 35.2756 33.957C35.3198 34.0632 35.3426 34.1772 35.3426 34.2924C35.3426 34.4075 35.3198 34.5215 35.2756 34.6278C35.2313 34.734 35.1664 34.8305 35.0847 34.9116C35.0036 34.9933 34.9071 35.0582 34.8009 35.1025C34.6946 35.1467 34.5806 35.1695 34.4655 35.1695C34.3503 35.1695 34.2363 35.1467 34.1301 35.1025C34.0238 35.0582 33.9273 34.9933 33.8463 34.9116L32.7212 33.7778L31.5962 34.9116C31.5151 34.9933 31.4186 35.0582 31.3124 35.1025C31.2061 35.1467 31.0921 35.1695 30.977 35.1695C30.8618 35.1695 30.7479 35.1467 30.6416 35.1025C30.5353 35.0582 30.4388 34.9933 30.3578 34.9116C30.276 34.8305 30.2111 34.734 30.1669 34.6278C30.1226 34.5215 30.0998 34.4075 30.0998 34.2924C30.0998 34.1772 30.1226 34.0632 30.1669 33.957C30.2111 33.8507 30.276 33.7542 30.3578 33.6732L31.4915 32.5481L30.3578 31.4231C30.1935 31.2589 30.1013 31.0361 30.1013 30.8039C30.1013 30.5716 30.1935 30.3489 30.3578 30.1847C30.522 30.0204 30.7447 29.9282 30.977 29.9282C31.2092 29.9282 31.432 30.0204 31.5962 30.1847L32.7212 31.3184L33.8463 30.1847C34.0105 30.0204 34.2332 29.9282 34.4655 29.9282C34.6977 29.9282 34.9204 30.0204 35.0847 30.1847C35.2489 30.3489 35.3411 30.5716 35.3411 30.8039C35.3411 31.0361 35.2489 31.2589 35.0847 31.4231L33.9509 32.5481L35.0847 33.6732Z" fill="#0CBC8B"/>
</svg>
