<svg width="54" height="54" viewBox="0 0 54 54" fill="none" xmlns="http://www.w3.org/2000/svg">
<path d="M8.28648 21.96V46.4056C8.28648 46.8451 8.4611 47.2667 8.7719 47.5775C9.08271 47.8883 9.50426 48.0629 9.94381 48.0629H19.8878V33.9756C19.8878 33.3163 20.1497 32.684 20.6159 32.2177C21.0821 31.7515 21.7145 31.4896 22.3738 31.4896H30.6604C31.3198 31.4896 31.9521 31.7515 32.4183 32.2177C32.8845 32.684 33.1464 33.3163 33.1464 33.9756V48.0629H43.0904C43.53 48.0629 43.9515 47.8883 44.2623 47.5775C44.5731 47.2667 44.7478 46.8451 44.7478 46.4056V21.96" stroke="#0CBC8B" stroke-width="5.39442" stroke-linecap="round" stroke-linejoin="round"/>
<path d="M41.4331 18.541V6.62891H36.4611V13.7761" stroke="#E98862" stroke-width="5.39442" stroke-linecap="round" stroke-linejoin="round"/>
<path d="M49.7198 26.5171L27.6451 5.38616C27.1272 4.83924 25.9163 4.83302 25.3891 5.38616L3.3145 26.5171" stroke="#0CBC8B" stroke-width="5.39442" stroke-linecap="round" stroke-linejoin="round"/>
</svg>
