<svg width="135" height="135" viewBox="0 0 135 135" fill="none" xmlns="http://www.w3.org/2000/svg">
<g clip-path="url(#clip0_381_1043)">
<path d="M99.788 66.8577L112.472 69.6838" stroke="#0CBC8B" stroke-width="3"/>
<path d="M100.38 54.3946L109.581 52.9341" stroke="#0CBC8B" stroke-width="3"/>
<path d="M95.9598 43.2603L105.277 34.3184" stroke="#0CBC8B" stroke-width="3"/>
<path d="M82.3045 36.0701L85.6538 27.3818" stroke="#0CBC8B" stroke-width="3"/>
<path d="M67.6204 32.736L68.0938 19.6853" stroke="#0CBC8B" stroke-width="3"/>
<path d="M55.1541 36.4569L49.1787 29.3204" stroke="#0CBC8B" stroke-width="3"/>
<path d="M47.6825 45.6359L36.7432 39.0431" stroke="#0CBC8B" stroke-width="3"/>
<path d="M50.6745 84.3591C53.7451 76.5566 51.4982 68.1108 50.8016 62.2484C50.414 58.9929 50.8372 55.6921 52.0335 52.6396C56.0741 42.3723 68.7433 37.736 79.0106 41.7766" stroke="#FF6C59" stroke-width="3"/>
<path d="M70.7254 92.2499C73.796 84.4474 81.1964 79.7982 85.7015 75.983C88.2039 73.8648 90.1438 71.1608 91.3488 68.1117C95.3894 57.8445 89.278 45.8172 79.0107 41.7766" stroke="#FF6C59" stroke-width="3"/>
<path d="M72.3435 92.3978L50.1305 83.656C48.36 82.9592 46.36 83.8296 45.6632 85.6001L45.6573 85.6152C44.9605 87.3857 45.8309 89.3857 47.6014 90.0825L69.8144 98.8243C71.5849 99.521 73.5849 98.6506 74.2817 96.8802L74.2876 96.865C74.9844 95.0946 74.114 93.0945 72.3435 92.3978Z" stroke="#222D39" stroke-width="3"/>
<path d="M68.0663 98.1188L49.3615 90.7577C47.591 90.0609 45.5909 90.9313 44.8942 92.7018L44.8882 92.7169C44.1915 94.4874 45.0619 96.4874 46.8323 97.1842L65.5372 104.545C67.3077 105.242 69.3078 104.372 70.0045 102.601L70.0105 102.586C70.7072 100.816 69.8368 98.8156 68.0663 98.1188Z" stroke="#222D39" stroke-width="3"/>
<path d="M61.0613 102.784L60.5614 104.054C60.35 104.747 59.9977 105.388 59.5265 105.938C59.0553 106.487 58.4755 106.934 57.8234 107.249C57.1714 107.563 56.4613 107.74 55.7378 107.767C55.0142 107.794 54.2929 107.671 53.6191 107.406C52.9454 107.141 52.3338 106.739 51.8228 106.226C51.3117 105.713 50.9124 105.1 50.6498 104.425C50.3872 103.751 50.2671 103.029 50.297 102.306C50.3268 101.582 50.506 100.873 50.8234 100.222L51.3232 98.9516" stroke="#222D39" stroke-width="3"/>
<path d="M59.6174 54.3143C60.2788 52.8554 61.2212 51.5412 62.3909 50.4467C63.5605 49.3523 64.9345 48.4992 66.4341 47.9362C67.9337 47.3732 69.5296 47.1114 71.1305 47.1656C72.7314 47.2199 74.3059 47.5892 75.764 48.2524" stroke="#E98862" stroke-width="3"/>
</g>
<defs>
<clipPath id="clip0_381_1043">
<rect width="104" height="104" fill="white" transform="translate(38.0854) rotate(21.4818)"/>
</clipPath>
</defs>
</svg>
