<svg width="24" height="24" viewBox="0 0 24 24" fill="none" xmlns="http://www.w3.org/2000/svg">
<path d="M16.9349 1.99221C18.2548 1.99615 19.5195 2.52224 20.4529 3.45556C21.3862 4.38889 21.9123 5.65362 21.9162 6.97354V16.9351C21.9123 18.2551 21.3862 19.5198 20.4529 20.4531C19.5195 21.3864 18.2548 21.9125 16.9349 21.9165H6.9733C5.65338 21.9125 4.38865 21.3864 3.45532 20.4531C2.52199 19.5198 1.99591 18.2551 1.99197 16.9351V6.97354C1.99591 5.65362 2.52199 4.38889 3.45532 3.45556C4.38865 2.52224 5.65338 1.99615 6.9733 1.99221H16.9349ZM16.9349 0H6.9733C3.13777 0 -0.000244141 3.13801 -0.000244141 6.97354V16.9351C-0.000244141 20.7707 3.13777 23.9087 6.9733 23.9087H16.9349C20.7704 23.9087 23.9084 20.7707 23.9084 16.9351V6.97354C23.9084 3.13801 20.7704 0 16.9349 0Z" fill="white"/>
<path d="M18.43 6.97369C18.1344 6.97369 17.8455 6.88605 17.5998 6.72186C17.354 6.55766 17.1625 6.32429 17.0494 6.05124C16.9363 5.77819 16.9067 5.47774 16.9644 5.18788C17.022 4.89801 17.1644 4.63176 17.3733 4.42278C17.5823 4.2138 17.8486 4.07148 18.1384 4.01382C18.4283 3.95616 18.7288 3.98575 19.0018 4.09885C19.2748 4.21195 19.5082 4.40348 19.6724 4.64922C19.8366 4.89495 19.9243 5.18386 19.9243 5.4794C19.9247 5.67575 19.8863 5.87025 19.8114 6.05174C19.7364 6.23323 19.6264 6.39812 19.4875 6.53697C19.3487 6.67581 19.1838 6.78586 19.0023 6.86081C18.8208 6.93575 18.6263 6.97411 18.43 6.97369Z" fill="white"/>
<path d="M11.9541 7.96951C12.7422 7.96951 13.5127 8.20322 14.168 8.64109C14.8233 9.07897 15.3341 9.70133 15.6357 10.4295C15.9373 11.1576 16.0162 11.9589 15.8625 12.7319C15.7087 13.5049 15.3292 14.2149 14.7719 14.7723C14.2146 15.3296 13.5045 15.7091 12.7315 15.8629C11.9585 16.0166 11.1573 15.9377 10.4291 15.6361C9.70097 15.3345 9.0786 14.8237 8.64073 14.1684C8.20286 13.5131 7.96914 12.7426 7.96914 11.9545C7.97027 10.8979 8.39048 9.885 9.13756 9.13792C9.88464 8.39084 10.8976 7.97064 11.9541 7.96951ZM11.9541 5.97729C10.7719 5.97729 9.6163 6.32785 8.63336 6.98463C7.65042 7.64141 6.88431 8.57492 6.43192 9.6671C5.97952 10.7593 5.86115 11.9611 6.09178 13.1206C6.32241 14.28 6.89168 15.345 7.7276 16.181C8.56353 17.0169 9.62856 17.5862 10.788 17.8168C11.9475 18.0474 13.1493 17.929 14.2415 17.4766C15.3336 17.0243 16.2672 16.2581 16.9239 15.2752C17.5807 14.2923 17.9313 13.1366 17.9313 11.9545C17.9313 10.3692 17.3015 8.8489 16.1806 7.72797C15.0597 6.60703 13.5393 5.97729 11.9541 5.97729Z" fill="white"/>
</svg>
