<svg width="54" height="72" viewBox="0 0 54 72" fill="none" xmlns="http://www.w3.org/2000/svg">
<path d="M42.0797 5.95631C41.9457 6.84562 41.3732 7.79555 40.3257 8.6483C36.8908 11.4255 35.7457 13.7154 35.4534 14.4342C35.3926 14.5925 35.3682 14.6777 35.3682 14.6777H18.6319C18.6319 14.6777 18.6076 14.5925 18.5467 14.4342C18.2543 13.7154 17.1093 11.4255 13.6744 8.6483C13.6379 8.62397 13.6135 8.5995 13.5892 8.57517C9.7157 5.33503 12.7975 0.962297 18.632 2.59439C18.9122 2.66752 19.1679 2.72841 19.3994 2.76497C22.5297 3.22791 21.7137 0 27.0001 0C32.6885 0 31.312 3.72727 35.3682 2.59453C36.4889 2.27784 37.4998 2.19263 38.3891 2.26575C40.9347 2.49708 42.3964 4.11708 42.0797 5.95631Z" fill="#222D39"/>
<path d="M53.3103 45.6898C53.3103 60.2212 41.5316 72 27.0001 72C23.2242 72 19.6308 71.2083 16.3906 69.7587C10.3977 67.1278 5.57431 62.3042 2.93098 56.3113C1.49365 53.0591 0.689697 49.4658 0.689697 45.6898C0.689697 31.9866 13.9301 21.5234 17.9984 17.8083C18.2419 17.6012 18.4613 17.3942 18.6318 17.2236H35.368C35.5385 17.3942 35.7578 17.6012 36.0013 17.8083C40.0699 21.5234 53.3103 31.9864 53.3103 45.6898Z" fill="#222D39"/>
<path d="M37.2562 16.1516C37.2562 16.9556 36.7202 17.6133 36.0016 17.8083C35.8555 17.857 35.6972 17.8815 35.5387 17.8815H18.4613C18.303 17.8815 18.1447 17.8571 17.9984 17.8083C17.2798 17.6134 16.7439 16.9557 16.7439 16.1516C16.7439 15.2016 17.5113 14.4342 18.4613 14.4342H35.5387C36.4888 14.4342 37.2562 15.2016 37.2562 16.1516Z" fill="#FF6C59"/>
<path d="M35.084 53.539C34.6337 54.3854 34.0103 55.0922 33.2267 55.6723C32.4391 56.2482 31.4951 56.6776 30.3964 56.962C29.9168 57.0819 29.4148 57.1656 28.9045 57.2352V60.4295H25.0938V57.2979C24.0078 57.2074 22.9704 57.0386 21.9943 56.7695C20.501 56.361 18.5463 54.7102 18.5463 54.7102C18.379 54.6141 18.2687 54.4424 18.2465 54.2528C18.2213 54.0605 18.2869 53.8667 18.4235 53.7314L20.3337 51.8213C20.5401 51.615 20.8579 51.5773 21.1075 51.7279C21.1075 51.7279 22.5367 52.9702 23.6187 53.263C24.702 53.5586 25.777 53.7078 26.8506 53.7078C28.2018 53.7078 29.3199 53.4693 30.2067 52.9924C31.0947 52.5085 31.5367 51.7683 31.5367 50.7504C31.5367 50.0213 31.3206 49.4426 30.8814 49.0188C30.445 48.5963 29.7074 48.3328 28.6646 48.2171L25.243 47.9229C23.2172 47.725 21.6541 47.1603 20.5584 46.2344C19.4569 45.3045 18.9104 43.8948 18.9104 42.0126C18.9104 40.9695 19.1209 40.041 19.5448 39.2241C19.9687 38.4085 20.5431 37.7183 21.275 37.1564C22.007 36.5932 22.8603 36.1692 23.8307 35.8919C24.235 35.7719 24.6617 35.6953 25.0938 35.6257V32.8732H28.9045V35.5683C29.7953 35.656 30.6418 35.7983 31.4308 36.0159C32.7665 36.3784 34.1719 37.4784 34.1719 37.4784C34.3489 37.5718 34.4676 37.7433 34.4981 37.9371C34.5274 38.1351 34.4632 38.3303 34.3253 38.4739L32.5337 40.292C32.3428 40.4859 32.047 40.536 31.803 40.409C31.803 40.409 30.742 39.6547 29.826 39.4163C28.91 39.1766 27.9478 39.0538 26.9328 39.0538C25.6095 39.0538 24.6309 39.3089 23.9992 39.815C23.3648 40.3211 23.0512 40.9849 23.0512 41.7977C23.0512 42.531 23.2729 43.0944 23.726 43.489C24.175 43.8822 24.9334 44.1387 26.007 44.2474L29.0033 44.5054C31.2272 44.6992 32.91 45.2904 34.0492 46.2746C35.1911 47.259 35.7599 48.6979 35.7599 50.5803C35.7602 51.7125 35.5328 52.694 35.084 53.539Z" fill="white"/>
</svg>
