<svg width="18" height="26" viewBox="0 0 18 26" fill="none" xmlns="http://www.w3.org/2000/svg">
<path d="M9 0C4.03144 0 0 3.62869 0 8.1C0 15.3 9 25.2 9 25.2C9 25.2 18 15.3 18 8.1C18 3.62869 13.9686 0 9 0ZM9 12.6C8.28799 12.6 7.59196 12.3889 6.99995 11.9933C6.40793 11.5977 5.94651 11.0355 5.67403 10.3777C5.40156 9.71985 5.33027 8.99601 5.46917 8.29768C5.60808 7.59934 5.95095 6.95788 6.45442 6.45442C6.95788 5.95095 7.59934 5.60808 8.29768 5.46917C8.99601 5.33027 9.71985 5.40156 10.3777 5.67403C11.0355 5.94651 11.5977 6.40793 11.9933 6.99995C12.3889 7.59196 12.6 8.28799 12.6 9C12.599 9.95446 12.2193 10.8695 11.5444 11.5444C10.8695 12.2193 9.95446 12.599 9 12.6Z" fill="white"/>
</svg>
