<svg width="42" height="39" viewBox="0 0 42 39" fill="none" xmlns="http://www.w3.org/2000/svg">
<path d="M13.4901 20.5348C13.4901 19.9213 12.9927 19.4238 12.3791 19.4238H7.9352C7.32166 19.4238 6.82422 19.9213 6.82422 20.5348V24.9787C6.82422 25.5923 7.32166 26.0897 7.9352 26.0897H12.3791C12.9927 26.0897 13.4901 25.5923 13.4901 24.9787V20.5348ZM9.04618 21.6458H11.2681V23.8677H9.04618V21.6458Z" fill="#E98862"/>
<path d="M22.7946 20.5348C22.7946 19.9213 22.2972 19.4238 21.6836 19.4238H17.2397C16.6262 19.4238 16.1287 19.9213 16.1287 20.5348V24.9787C16.1287 25.5923 16.6262 26.0897 17.2397 26.0897H21.6836C22.2972 26.0897 22.7946 25.5923 22.7946 24.9787V20.5348ZM18.3507 21.6458H20.5726V23.8677H18.3507V21.6458Z" fill="#E98862"/>
<path d="M32.099 20.5348C32.099 19.9213 31.6016 19.4238 30.988 19.4238H26.5441C25.9306 19.4238 25.4331 19.9213 25.4331 20.5348V24.9787C25.4331 25.5923 25.9306 26.0897 26.5441 26.0897H30.988C31.6016 26.0897 32.099 25.5923 32.099 24.9787V20.5348ZM27.6551 21.6458H29.8771V23.8677H27.6551V21.6458Z" fill="#E98862"/>
<path d="M40.1999 29.6996H36.6818V17.2011H37.9518C38.2759 17.2011 38.584 17.0671 38.7949 16.8213C38.9799 16.6056 39.0742 16.3323 39.0615 16.0516C39.0602 16.007 39.0568 15.9641 39.0499 15.9196L36.8946 1.8944C36.8113 1.35238 36.3449 0.953125 35.7965 0.953125H3.49699C2.95122 0.953125 2.48642 1.34947 2.40004 1.88829L0.152111 15.9144C0.14489 15.9594 0.141279 16.0044 0.139612 16.0497C0.125308 16.3312 0.21877 16.6018 0.403609 16.8186C0.614695 17.0661 0.923686 17.2012 1.24906 17.2012H2.24159V34.2825C2.24159 34.8961 2.78527 35.3935 3.39881 35.3935H6.00822C6.44734 37.4453 8.27393 38.989 10.4551 38.989C12.6362 38.989 14.4628 37.4455 14.902 35.3935H24.2469C24.686 37.4453 26.5126 38.989 28.6937 38.989C30.8749 38.989 32.7015 37.4455 33.1406 35.3935H35.6171C36.2306 35.3935 36.6818 34.8961 36.6818 34.2825V31.9217H40.1999C40.8134 31.9217 41.3109 31.4242 41.3109 30.8107C41.3109 30.1972 40.8134 29.6996 40.1999 29.6996ZM31.0197 34.4408C31.0197 35.7235 29.9762 36.7669 28.6936 36.7669C27.411 36.7669 26.3675 35.7235 26.3675 34.4408C26.3675 33.1582 27.411 32.1147 28.6936 32.1147C29.9762 32.1147 31.0197 33.1581 31.0197 34.4408ZM12.781 34.4408C12.781 35.7235 11.7375 36.7669 10.4549 36.7669C9.1723 36.7669 8.12881 35.7235 8.12881 34.4408C8.12881 33.1582 9.1723 32.1147 10.4549 32.1147C11.7377 32.1147 12.781 33.1581 12.781 34.4408ZM4.46341 17.2011H34.4599V33.1714H33.0602C32.5093 31.2795 30.7609 29.8928 28.6937 29.8928C26.6265 29.8928 24.8781 31.2795 24.3273 33.1714H14.8216C14.2707 31.2795 12.5223 29.8928 10.4552 29.8928C8.38794 29.8928 6.63954 31.2795 6.08877 33.1714H4.46341V17.2011ZM34.8433 3.17495L35.2191 5.67465H4.05221L4.4441 3.17495H34.8433ZM36.657 14.9791H2.5521L3.00844 12.2017H36.2197L36.657 14.9791ZM35.8782 9.9797H3.36465L3.6985 7.89661H35.5581L35.8782 9.9797Z" fill="#222D39"/>
</svg>
