<svg width="73" height="72" viewBox="0 0 73 72" fill="none" xmlns="http://www.w3.org/2000/svg">
<path d="M48.2115 6H24.1058C12.0529 6 6.02649 12 6.02649 24V63C6.02649 64.65 7.38244 66 9.0397 66H48.2115C60.2644 66 66.2908 60 66.2908 48V24C66.2908 12 60.2644 6 48.2115 6ZM42.1851 45.75H21.0926C19.8571 45.75 18.8327 44.73 18.8327 43.5C18.8327 42.27 19.8571 41.25 21.0926 41.25H42.1851C43.4205 41.25 44.445 42.27 44.445 43.5C44.445 44.73 43.4205 45.75 42.1851 45.75ZM51.2247 30.75H21.0926C19.8571 30.75 18.8327 29.73 18.8327 28.5C18.8327 27.27 19.8571 26.25 21.0926 26.25H51.2247C52.4601 26.25 53.4846 27.27 53.4846 28.5C53.4846 29.73 52.4601 30.75 51.2247 30.75Z" fill="#222D39"/>
</svg>
