<svg width="43" height="43" viewBox="0 0 43 43" fill="none" xmlns="http://www.w3.org/2000/svg">
<path d="M32.9829 17.525L30.9292 21.3926L26.537 21.9263L29.76 24.8308L29.1154 29.1276L32.9829 26.7104L36.8504 29.1276L36.2059 24.8308L39.4288 21.9263L34.9167 21.3926L32.9829 17.525Z" fill="#0CBC8B"/>
<path d="M28.3599 18.0586L32.9829 13.4433L37.6072 18.0612L39.4288 16.2357L32.9829 9.78979L26.537 16.2357L28.3599 18.0586Z" fill="#E98862"/>
<path d="M28.3599 11.6127L32.9829 6.99741L37.6072 11.6153L39.4288 9.78977L32.9829 3.34387L26.537 9.78977L28.3599 11.6127Z" fill="#E98862"/>
<path d="M21.3803 39.4414H18.8019V32.9955C18.8008 31.9701 18.393 30.987 17.6679 30.2619C16.9428 29.5369 15.9598 29.129 14.9344 29.1279H9.77766C8.75227 29.129 7.7692 29.5369 7.04414 30.2619C6.31908 30.987 5.91124 31.9701 5.91012 32.9955V39.4414H3.33176V32.9955C3.33377 31.2865 4.01354 29.6481 5.22194 28.4397C6.43035 27.2313 8.06872 26.5516 9.77766 26.5496H14.9344C16.6433 26.5516 18.2817 27.2313 19.4901 28.4397C20.6985 29.6481 21.3783 31.2865 21.3803 32.9955V39.4414Z" fill="#222D39"/>
<path d="M12.356 13.6577C13.121 13.6577 13.8687 13.8845 14.5047 14.3095C15.1407 14.7345 15.6364 15.3385 15.9292 16.0452C16.2219 16.7519 16.2985 17.5295 16.1493 18.2798C16 19.03 15.6317 19.7191 15.0908 20.26C14.5499 20.8009 13.8608 21.1692 13.1105 21.3185C12.3603 21.4677 11.5827 21.3911 10.876 21.0984C10.1693 20.8057 9.56526 20.31 9.14029 19.6739C8.71532 19.0379 8.48849 18.2902 8.48849 17.5252C8.48849 16.4995 8.89596 15.5158 9.62127 14.7905C10.3466 14.0652 11.3303 13.6577 12.356 13.6577ZM12.356 11.0793C11.0812 11.0793 9.8349 11.4574 8.77488 12.1657C7.71486 12.874 6.88867 13.8807 6.40079 15.0585C5.91292 16.2363 5.78527 17.5324 6.03398 18.7828C6.2827 20.0332 6.89661 21.1817 7.79809 22.0832C8.69956 22.9847 9.84811 23.5986 11.0985 23.8473C12.3489 24.096 13.6449 23.9684 14.8228 23.4805C16.0006 22.9926 17.0073 22.1664 17.7156 21.1064C18.4239 20.0464 18.8019 18.8001 18.8019 17.5252C18.8019 16.6788 18.6352 15.8406 18.3113 15.0585C17.9873 14.2765 17.5125 13.5659 16.914 12.9673C16.3154 12.3687 15.6048 11.8939 14.8228 11.57C14.0407 11.2461 13.2025 11.0793 12.356 11.0793Z" fill="#222D39"/>
</svg>
