<svg width="41" height="42" viewBox="0 0 41 42" fill="none" xmlns="http://www.w3.org/2000/svg">
<g clip-path="url(#clip0_1_113)">
<path d="M6.98062 41.2338H33.8426V28.3674H6.98062V41.2338ZM23.3288 30.3406C23.6228 30.3406 23.8822 30.5048 24.0119 30.7383C24.0293 30.7642 24.0465 30.7903 24.0724 30.8162C24.2281 30.9719 24.4788 30.9719 24.6259 30.8162C24.6518 30.7903 24.6691 30.7642 24.6863 30.7383C24.5913 31.4042 24.0204 31.9143 23.3286 31.9143C22.8962 31.9143 22.5417 31.5599 22.5417 31.1275C22.5417 30.6952 22.8964 30.3406 23.3288 30.3406ZM21.6339 32.9605C21.7031 32.485 22.1095 32.1131 22.611 32.1131H24.1158C24.6086 32.1131 25.0238 32.485 25.093 32.9605L25.3957 35.4681C25.4216 35.6583 25.2832 35.8312 25.093 35.8486C24.9027 35.8745 24.7298 35.7362 24.7126 35.5459L24.4272 33.22C24.4185 33.1767 24.3752 33.1421 24.3321 33.1421C24.2802 33.1421 24.2371 33.1854 24.2371 33.2372C24.2371 33.2458 24.2371 33.2544 24.2371 33.2544C24.2371 33.2544 24.4361 34.9059 24.4446 34.9405C24.4533 34.9838 24.4533 35.0271 24.4533 35.0702V39.2638C24.4533 39.5578 24.2371 39.7999 23.9604 39.7999C23.6923 39.7999 23.4676 39.5578 23.4676 39.2638V35.8484C23.4676 35.7965 23.4243 35.7534 23.3725 35.7534C23.3206 35.7534 23.2775 35.7966 23.2775 35.8484V39.2551C23.2775 39.5491 23.0613 39.7912 22.7846 39.7912C22.5165 39.7912 22.2918 39.5491 22.2918 39.2551V35.0616C22.2918 35.0184 22.2918 34.9751 22.3004 34.932C22.3004 34.8974 22.5079 33.2458 22.5079 33.2458C22.5079 33.2458 22.5079 33.2372 22.5079 33.2286C22.5079 33.1767 22.4647 33.1336 22.4129 33.1336C22.3611 33.1336 22.3263 33.1682 22.3178 33.2114L22.0412 35.5374C22.0066 35.7363 21.8337 35.8746 21.6434 35.8486C21.4531 35.8227 21.3234 35.6583 21.3407 35.4681L21.6339 32.9605ZM20.3305 36.1165C20.5837 36.1165 20.7888 36.3217 20.7888 36.5747C20.7888 36.8277 20.5835 37.0329 20.3305 37.0329C20.0773 37.0329 19.8723 36.8277 19.8723 36.5747C19.8723 36.3217 20.0773 36.1165 20.3305 36.1165ZM19.4397 37.6124C19.4138 37.3704 19.604 37.1627 19.8462 37.1542H20.8147C21.0568 37.1629 21.2557 37.3704 21.2557 37.6124V38.2437C21.2557 38.3387 21.1779 38.4079 21.0828 38.4079C20.9878 38.4079 20.9099 38.33 20.9099 38.2437V37.7163C20.9099 37.6817 20.884 37.6644 20.8494 37.6644C20.8148 37.6644 20.7975 37.6903 20.7975 37.7163V39.5926C20.7975 39.705 20.7109 39.7915 20.5985 39.7915C20.4861 39.7915 20.3995 39.705 20.3995 39.5926V38.6414C20.3995 38.6068 20.3736 38.5895 20.3476 38.5895C20.313 38.5895 20.2956 38.6154 20.2956 38.6414V39.5926C20.2956 39.705 20.2091 39.7915 20.0966 39.7915C19.9842 39.7915 19.8977 39.705 19.8977 39.5926V37.7163C19.8977 37.6817 19.8718 37.6644 19.8457 37.6644C19.8111 37.6644 19.7852 37.6903 19.7852 37.7163V38.2437C19.7852 38.3387 19.7074 38.4079 19.6123 38.4079C19.5173 38.4079 19.4394 38.33 19.4394 38.2437L19.4397 37.6124ZM17.3879 30.2973C17.8225 30.2973 18.1748 30.6495 18.1748 31.0841C18.1748 31.5187 17.8225 31.8709 17.3879 31.8709C16.9533 31.8709 16.6011 31.5187 16.6011 31.0841C16.6011 30.6495 16.9533 30.2973 17.3879 30.2973ZM16.3934 32.0785H18.3651C18.9099 32.0785 19.3509 32.5195 19.3509 33.0643V35.4767C19.3509 35.667 19.1952 35.8225 19.005 35.8225C18.8061 35.8225 18.6591 35.6668 18.6591 35.4767V33.2631C18.6591 33.2111 18.6159 33.168 18.5641 33.168C18.5121 33.168 18.469 33.2113 18.469 33.2631V39.2551C18.469 39.5491 18.2528 39.7912 17.9762 39.7912C17.6995 39.7912 17.4833 39.5491 17.4833 39.2551V35.8397C17.4833 35.7878 17.44 35.7447 17.3883 35.7447C17.3363 35.7447 17.2932 35.7879 17.2932 35.8397V39.2551C17.2932 39.5491 17.077 39.7912 16.8003 39.7912C16.5237 39.7912 16.3075 39.5491 16.3075 39.2551V33.2631C16.3075 33.2111 16.2642 33.168 16.2124 33.168C16.1606 33.168 16.1174 33.2113 16.1174 33.2631V35.4853C16.1174 35.6755 15.9617 35.831 15.7716 35.831C15.5726 35.831 15.4256 35.6754 15.4256 35.4853V33.0643C15.4077 32.5195 15.8573 32.0785 16.3934 32.0785ZM36.7959 21.6004L39.8336 18.349L31.269 10.554V1.50855H26.2826V5.96872L20.4878 0.674805L1.01904 18.0989L3.979 21.4336L6.98062 18.7242V25.6332H33.8426V18.891L36.7959 21.6004ZM23.0071 14.74C23.3011 14.74 23.5605 14.9042 23.6902 15.1377C23.7076 15.1636 23.7248 15.1897 23.7507 15.2155C23.9064 15.3712 24.1571 15.3712 24.3042 15.2155C24.3301 15.1897 24.3474 15.1636 24.3646 15.1377C24.2696 15.8035 23.6987 16.3137 23.0069 16.3137C22.5745 16.3137 22.22 15.9592 22.22 15.5269C22.22 15.0946 22.5747 14.74 23.0071 14.74ZM20.0088 20.5159C20.262 20.5159 20.4671 20.7211 20.4671 20.9741C20.4671 21.2271 20.2618 21.4323 20.0088 21.4323C19.7556 21.4323 19.5506 21.2271 19.5506 20.9741C19.5506 20.7211 19.7556 20.5159 20.0088 20.5159ZM17.0662 14.6967C17.5008 14.6967 17.8531 15.0489 17.8531 15.4835C17.8531 15.9181 17.5008 16.2703 17.0662 16.2703C16.6316 16.2703 16.2794 15.9181 16.2794 15.4835C16.2794 15.0489 16.6316 14.6967 17.0662 14.6967ZM19.0292 19.876C19.0292 20.0662 18.8735 20.2217 18.6833 20.2217C18.4844 20.2217 18.3374 20.0661 18.3374 19.876V17.6624C18.3374 17.6105 18.2942 17.5674 18.2424 17.5674C18.1904 17.5674 18.1473 17.6106 18.1473 17.6624V23.6545C18.1473 23.9485 17.9311 24.1906 17.6545 24.1906C17.3778 24.1906 17.1616 23.9485 17.1616 23.6545V20.2391C17.1616 20.1872 17.1183 20.1441 17.0666 20.1441C17.0146 20.1441 16.9715 20.1873 16.9715 20.2391V23.6545C16.9715 23.9485 16.7553 24.1906 16.4786 24.1906C16.202 24.1906 15.9858 23.9485 15.9858 23.6545V17.6624C15.9858 17.6105 15.9425 17.5674 15.8907 17.5674C15.8389 17.5674 15.7957 17.6106 15.7957 17.6624V19.8846C15.7957 20.0749 15.64 20.2304 15.4499 20.2304C15.2509 20.2304 15.1039 20.0747 15.1039 19.8846V17.4636C15.0865 16.9189 15.5362 16.4779 16.0723 16.4779H18.044C18.5888 16.4779 19.0299 16.9189 19.0299 17.4636L19.0292 19.876ZM20.934 22.6429C20.934 22.7379 20.8562 22.8071 20.7611 22.8071C20.6661 22.8071 20.5882 22.7293 20.5882 22.6429V22.1155C20.5882 22.081 20.5623 22.0636 20.5277 22.0636C20.4931 22.0636 20.4758 22.0895 20.4758 22.1155V23.9918C20.4758 24.1042 20.3892 24.1907 20.2768 24.1907C20.1644 24.1907 20.0778 24.1042 20.0778 23.9918V23.0406C20.0778 23.0061 20.0519 22.9887 20.0259 22.9887C19.9913 22.9887 19.9739 23.0146 19.9739 23.0406V23.9918C19.9739 24.1042 19.8874 24.1907 19.7749 24.1907C19.6625 24.1907 19.576 24.1042 19.576 23.9918V22.1155C19.576 22.081 19.5501 22.0636 19.524 22.0636C19.4894 22.0636 19.4635 22.0895 19.4635 22.1155V22.6429C19.4635 22.7379 19.3857 22.8071 19.2906 22.8071C19.1956 22.8071 19.1177 22.7293 19.1177 22.6429V22.0116C19.0918 21.7696 19.2819 21.5619 19.5242 21.5534H20.4927C20.7347 21.5621 20.9337 21.7696 20.9337 22.0116L20.934 22.6429ZM24.7713 20.2478C24.581 20.2737 24.4081 20.1354 24.3909 19.9451L24.1055 17.6192C24.0968 17.5759 24.0536 17.5413 24.0104 17.5413C23.9585 17.5413 23.9154 17.5846 23.9154 17.6364C23.9154 17.6451 23.9154 17.6536 23.9154 17.6536C23.9154 17.6536 24.1144 19.3052 24.1229 19.3397C24.1316 19.383 24.1316 19.4263 24.1316 19.4694V23.663C24.1316 23.957 23.9154 24.1991 23.6387 24.1991C23.3706 24.1991 23.1459 23.957 23.1459 23.663V20.2476C23.1459 20.1957 23.1026 20.1526 23.0508 20.1526C22.9989 20.1526 22.9558 20.1958 22.9558 20.2476V23.6544C22.9558 23.9484 22.7396 24.1904 22.4629 24.1904C22.1948 24.1904 21.9701 23.9484 21.9701 23.6544V19.4608C21.9701 19.4176 21.9701 19.3743 21.9787 19.3312C21.9787 19.2966 22.1862 17.6451 22.1862 17.6451C22.1862 17.6451 22.1862 17.6364 22.1862 17.6279C22.1862 17.5759 22.143 17.5328 22.0912 17.5328C22.0394 17.5328 22.0046 17.5674 21.9961 17.6106L21.7195 19.9366C21.6849 20.1355 21.512 20.2738 21.3217 20.2478C21.1314 20.2219 21.0017 20.0575 21.019 19.8673L21.313 17.3597C21.3822 16.8842 21.7886 16.5123 22.2902 16.5123H23.7949C24.2877 16.5123 24.7029 16.8842 24.7721 17.3597L25.0748 19.8673C25.0999 20.0575 24.9615 20.2306 24.7713 20.2478Z" fill="#222D39"/>
<path d="M6.98062 41.2338H33.8426V28.3674H6.98062V41.2338ZM23.3288 30.3406C23.6228 30.3406 23.8822 30.5048 24.0119 30.7383C24.0293 30.7642 24.0465 30.7903 24.0724 30.8162C24.2281 30.9719 24.4788 30.9719 24.6259 30.8162C24.6518 30.7903 24.6691 30.7642 24.6863 30.7383C24.5913 31.4042 24.0204 31.9143 23.3286 31.9143C22.8962 31.9143 22.5417 31.5599 22.5417 31.1275C22.5417 30.6952 22.8964 30.3406 23.3288 30.3406ZM21.6339 32.9605C21.7031 32.485 22.1095 32.1131 22.611 32.1131H24.1158C24.6086 32.1131 25.0238 32.485 25.093 32.9605L25.3957 35.4681C25.4216 35.6583 25.2832 35.8312 25.093 35.8486C24.9027 35.8745 24.7298 35.7362 24.7126 35.5459L24.4272 33.22C24.4185 33.1767 24.3752 33.1421 24.3321 33.1421C24.2802 33.1421 24.2371 33.1854 24.2371 33.2372C24.2371 33.2458 24.2371 33.2544 24.2371 33.2544C24.2371 33.2544 24.4361 34.9059 24.4446 34.9405C24.4533 34.9838 24.4533 35.0271 24.4533 35.0702V39.2638C24.4533 39.5578 24.2371 39.7999 23.9604 39.7999C23.6923 39.7999 23.4676 39.5578 23.4676 39.2638V35.8484C23.4676 35.7965 23.4243 35.7534 23.3725 35.7534C23.3206 35.7534 23.2775 35.7966 23.2775 35.8484V39.2551C23.2775 39.5491 23.0613 39.7912 22.7846 39.7912C22.5165 39.7912 22.2918 39.5491 22.2918 39.2551V35.0616C22.2918 35.0184 22.2918 34.9751 22.3004 34.932C22.3004 34.8974 22.5079 33.2458 22.5079 33.2458C22.5079 33.2458 22.5079 33.2372 22.5079 33.2286C22.5079 33.1767 22.4647 33.1336 22.4129 33.1336C22.3611 33.1336 22.3263 33.1682 22.3178 33.2114L22.0412 35.5374C22.0066 35.7363 21.8337 35.8746 21.6434 35.8486C21.4531 35.8227 21.3234 35.6583 21.3407 35.4681L21.6339 32.9605ZM20.3305 36.1165C20.5837 36.1165 20.7888 36.3217 20.7888 36.5747C20.7888 36.8277 20.5835 37.0329 20.3305 37.0329C20.0773 37.0329 19.8723 36.8277 19.8723 36.5747C19.8723 36.3217 20.0773 36.1165 20.3305 36.1165ZM19.4397 37.6124C19.4138 37.3704 19.604 37.1627 19.8462 37.1542H20.8147C21.0568 37.1629 21.2557 37.3704 21.2557 37.6124V38.2437C21.2557 38.3387 21.1779 38.4079 21.0828 38.4079C20.9878 38.4079 20.9099 38.33 20.9099 38.2437V37.7163C20.9099 37.6817 20.884 37.6644 20.8494 37.6644C20.8148 37.6644 20.7975 37.6903 20.7975 37.7163V39.5926C20.7975 39.705 20.7109 39.7915 20.5985 39.7915C20.4861 39.7915 20.3995 39.705 20.3995 39.5926V38.6414C20.3995 38.6068 20.3736 38.5895 20.3476 38.5895C20.313 38.5895 20.2956 38.6154 20.2956 38.6414V39.5926C20.2956 39.705 20.2091 39.7915 20.0966 39.7915C19.9842 39.7915 19.8977 39.705 19.8977 39.5926V37.7163C19.8977 37.6817 19.8718 37.6644 19.8457 37.6644C19.8111 37.6644 19.7852 37.6903 19.7852 37.7163V38.2437C19.7852 38.3387 19.7074 38.4079 19.6123 38.4079C19.5173 38.4079 19.4394 38.33 19.4394 38.2437L19.4397 37.6124ZM17.3879 30.2973C17.8225 30.2973 18.1748 30.6495 18.1748 31.0841C18.1748 31.5187 17.8225 31.8709 17.3879 31.8709C16.9533 31.8709 16.6011 31.5187 16.6011 31.0841C16.6011 30.6495 16.9533 30.2973 17.3879 30.2973ZM16.3934 32.0785H18.3651C18.9099 32.0785 19.3509 32.5195 19.3509 33.0643V35.4767C19.3509 35.667 19.1952 35.8225 19.005 35.8225C18.8061 35.8225 18.6591 35.6668 18.6591 35.4767V33.2631C18.6591 33.2111 18.6159 33.168 18.5641 33.168C18.5121 33.168 18.469 33.2113 18.469 33.2631V39.2551C18.469 39.5491 18.2528 39.7912 17.9762 39.7912C17.6995 39.7912 17.4833 39.5491 17.4833 39.2551V35.8397C17.4833 35.7878 17.44 35.7447 17.3883 35.7447C17.3363 35.7447 17.2932 35.7879 17.2932 35.8397V39.2551C17.2932 39.5491 17.077 39.7912 16.8003 39.7912C16.5237 39.7912 16.3075 39.5491 16.3075 39.2551V33.2631C16.3075 33.2111 16.2642 33.168 16.2124 33.168C16.1606 33.168 16.1174 33.2113 16.1174 33.2631V35.4853C16.1174 35.6755 15.9617 35.831 15.7716 35.831C15.5726 35.831 15.4256 35.6754 15.4256 35.4853V33.0643C15.4077 32.5195 15.8573 32.0785 16.3934 32.0785ZM36.7959 21.6004L39.8336 18.349L31.269 10.554V1.50855H26.2826V5.96872L20.4878 0.674805L1.01904 18.0989L3.979 21.4336L6.98062 18.7242V25.6332H33.8426V18.891L36.7959 21.6004ZM23.0071 14.74C23.3011 14.74 23.5605 14.9042 23.6902 15.1377C23.7076 15.1636 23.7248 15.1897 23.7507 15.2155C23.9064 15.3712 24.1571 15.3712 24.3042 15.2155C24.3301 15.1897 24.3474 15.1636 24.3646 15.1377C24.2696 15.8035 23.6987 16.3137 23.0069 16.3137C22.5745 16.3137 22.22 15.9592 22.22 15.5269C22.22 15.0946 22.5747 14.74 23.0071 14.74ZM20.0088 20.5159C20.262 20.5159 20.4671 20.7211 20.4671 20.9741C20.4671 21.2271 20.2618 21.4323 20.0088 21.4323C19.7556 21.4323 19.5506 21.2271 19.5506 20.9741C19.5506 20.7211 19.7556 20.5159 20.0088 20.5159ZM17.0662 14.6967C17.5008 14.6967 17.8531 15.0489 17.8531 15.4835C17.8531 15.9181 17.5008 16.2703 17.0662 16.2703C16.6316 16.2703 16.2794 15.9181 16.2794 15.4835C16.2794 15.0489 16.6316 14.6967 17.0662 14.6967ZM19.0292 19.876C19.0292 20.0662 18.8735 20.2217 18.6833 20.2217C18.4844 20.2217 18.3374 20.0661 18.3374 19.876V17.6624C18.3374 17.6105 18.2942 17.5674 18.2424 17.5674C18.1904 17.5674 18.1473 17.6106 18.1473 17.6624V23.6545C18.1473 23.9485 17.9311 24.1906 17.6545 24.1906C17.3778 24.1906 17.1616 23.9485 17.1616 23.6545V20.2391C17.1616 20.1872 17.1183 20.1441 17.0666 20.1441C17.0146 20.1441 16.9715 20.1873 16.9715 20.2391V23.6545C16.9715 23.9485 16.7553 24.1906 16.4786 24.1906C16.202 24.1906 15.9858 23.9485 15.9858 23.6545V17.6624C15.9858 17.6105 15.9425 17.5674 15.8907 17.5674C15.8389 17.5674 15.7957 17.6106 15.7957 17.6624V19.8846C15.7957 20.0749 15.64 20.2304 15.4499 20.2304C15.2509 20.2304 15.1039 20.0747 15.1039 19.8846V17.4636C15.0865 16.9189 15.5362 16.4779 16.0723 16.4779H18.044C18.5888 16.4779 19.0299 16.9189 19.0299 17.4636L19.0292 19.876ZM20.934 22.6429C20.934 22.7379 20.8562 22.8071 20.7611 22.8071C20.6661 22.8071 20.5882 22.7293 20.5882 22.6429V22.1155C20.5882 22.081 20.5623 22.0636 20.5277 22.0636C20.4931 22.0636 20.4758 22.0895 20.4758 22.1155V23.9918C20.4758 24.1042 20.3892 24.1907 20.2768 24.1907C20.1644 24.1907 20.0778 24.1042 20.0778 23.9918V23.0406C20.0778 23.0061 20.0519 22.9887 20.0259 22.9887C19.9913 22.9887 19.9739 23.0146 19.9739 23.0406V23.9918C19.9739 24.1042 19.8874 24.1907 19.7749 24.1907C19.6625 24.1907 19.576 24.1042 19.576 23.9918V22.1155C19.576 22.081 19.5501 22.0636 19.524 22.0636C19.4894 22.0636 19.4635 22.0895 19.4635 22.1155V22.6429C19.4635 22.7379 19.3857 22.8071 19.2906 22.8071C19.1956 22.8071 19.1177 22.7293 19.1177 22.6429V22.0116C19.0918 21.7696 19.2819 21.5619 19.5242 21.5534H20.4927C20.7347 21.5621 20.9337 21.7696 20.9337 22.0116L20.934 22.6429ZM24.7713 20.2478C24.581 20.2737 24.4081 20.1354 24.3909 19.9451L24.1055 17.6192C24.0968 17.5759 24.0536 17.5413 24.0104 17.5413C23.9585 17.5413 23.9154 17.5846 23.9154 17.6364C23.9154 17.6451 23.9154 17.6536 23.9154 17.6536C23.9154 17.6536 24.1144 19.3052 24.1229 19.3397C24.1316 19.383 24.1316 19.4263 24.1316 19.4694V23.663C24.1316 23.957 23.9154 24.1991 23.6387 24.1991C23.3706 24.1991 23.1459 23.957 23.1459 23.663V20.2476C23.1459 20.1957 23.1026 20.1526 23.0508 20.1526C22.9989 20.1526 22.9558 20.1958 22.9558 20.2476V23.6544C22.9558 23.9484 22.7396 24.1904 22.4629 24.1904C22.1948 24.1904 21.9701 23.9484 21.9701 23.6544V19.4608C21.9701 19.4176 21.9701 19.3743 21.9787 19.3312C21.9787 19.2966 22.1862 17.6451 22.1862 17.6451C22.1862 17.6451 22.1862 17.6364 22.1862 17.6279C22.1862 17.5759 22.143 17.5328 22.0912 17.5328C22.0394 17.5328 22.0046 17.5674 21.9961 17.6106L21.7195 19.9366C21.6849 20.1355 21.512 20.2738 21.3217 20.2478C21.1314 20.2219 21.0017 20.0575 21.019 19.8673L21.313 17.3597C21.3822 16.8842 21.7886 16.5123 22.2902 16.5123H23.7949C24.2877 16.5123 24.7029 16.8842 24.7721 17.3597L25.0748 19.8673C25.0999 20.0575 24.9615 20.2306 24.7713 20.2478Z" fill="#222D39"/>
<path d="M6.98062 41.2337H33.8426V28.3672H6.98062V41.2337ZM23.3288 30.3404C23.6228 30.3404 23.8822 30.5046 24.0119 30.7382C24.0293 30.7641 24.0465 30.7901 24.0724 30.816C24.2281 30.9717 24.4788 30.9717 24.6259 30.816C24.6518 30.7901 24.6691 30.7641 24.6863 30.7382C24.5913 31.404 24.0204 31.9142 23.3286 31.9142C22.8962 31.9142 22.5417 31.5597 22.5417 31.1274C22.5417 30.6951 22.8964 30.3404 23.3288 30.3404ZM21.6339 32.9604C21.7031 32.4848 22.1095 32.1129 22.611 32.1129H24.1158C24.6086 32.1129 25.0238 32.4848 25.093 32.9604L25.3957 35.4679C25.4216 35.6581 25.2832 35.831 25.093 35.8484C24.9027 35.8743 24.7298 35.736 24.7126 35.5457L24.4272 33.2198C24.4185 33.1765 24.3752 33.1419 24.3321 33.1419C24.2802 33.1419 24.2371 33.1852 24.2371 33.237C24.2371 33.2457 24.2371 33.2542 24.2371 33.2542C24.2371 33.2542 24.4361 34.9058 24.4446 34.9404C24.4533 34.9836 24.4533 35.0269 24.4533 35.07V39.2637C24.4533 39.5577 24.2371 39.7997 23.9604 39.7997C23.6923 39.7997 23.4676 39.5577 23.4676 39.2637V35.8482C23.4676 35.7963 23.4243 35.7532 23.3725 35.7532C23.3206 35.7532 23.2775 35.7965 23.2775 35.8482V39.255C23.2775 39.549 23.0613 39.791 22.7846 39.791C22.5165 39.791 22.2918 39.549 22.2918 39.255V35.0615C22.2918 35.0182 22.2918 34.9749 22.3004 34.9318C22.3004 34.8973 22.5079 33.2457 22.5079 33.2457C22.5079 33.2457 22.5079 33.237 22.5079 33.2285C22.5079 33.1765 22.4647 33.1334 22.4129 33.1334C22.3611 33.1334 22.3263 33.168 22.3178 33.2113L22.0412 35.5372C22.0066 35.7361 21.8337 35.8745 21.6434 35.8484C21.4531 35.8225 21.3234 35.6581 21.3407 35.4679L21.6339 32.9604ZM20.3305 36.1164C20.5837 36.1164 20.7888 36.3216 20.7888 36.5746C20.7888 36.8276 20.5835 37.0328 20.3305 37.0328C20.0773 37.0328 19.8723 36.8276 19.8723 36.5746C19.8723 36.3216 20.0773 36.1164 20.3305 36.1164ZM19.4397 37.6122C19.4138 37.3702 19.604 37.1626 19.8462 37.154H20.8147C21.0568 37.1627 21.2557 37.3702 21.2557 37.6122V38.2435C21.2557 38.3386 21.1779 38.4077 21.0828 38.4077C20.9878 38.4077 20.9099 38.3299 20.9099 38.2435V37.7161C20.9099 37.6816 20.884 37.6642 20.8494 37.6642C20.8148 37.6642 20.7975 37.6901 20.7975 37.7161V39.5924C20.7975 39.7048 20.7109 39.7913 20.5985 39.7913C20.4861 39.7913 20.3995 39.7048 20.3995 39.5924V38.6412C20.3995 38.6067 20.3736 38.5893 20.3476 38.5893C20.313 38.5893 20.2956 38.6152 20.2956 38.6412V39.5924C20.2956 39.7048 20.2091 39.7913 20.0966 39.7913C19.9842 39.7913 19.8977 39.7048 19.8977 39.5924V37.7161C19.8977 37.6816 19.8718 37.6642 19.8457 37.6642C19.8111 37.6642 19.7852 37.6901 19.7852 37.7161V38.2435C19.7852 38.3386 19.7074 38.4077 19.6123 38.4077C19.5173 38.4077 19.4394 38.3299 19.4394 38.2435L19.4397 37.6122ZM17.3879 30.2972C17.8225 30.2972 18.1748 30.6494 18.1748 31.0839C18.1748 31.5185 17.8225 31.8707 17.3879 31.8707C16.9533 31.8707 16.6011 31.5185 16.6011 31.0839C16.6011 30.6494 16.9533 30.2972 17.3879 30.2972ZM16.3934 32.0784H18.3651C18.9099 32.0784 19.3509 32.5194 19.3509 33.0641V35.4766C19.3509 35.6668 19.1952 35.8224 19.005 35.8224C18.8061 35.8224 18.6591 35.6667 18.6591 35.4766V33.2629C18.6591 33.2109 18.6159 33.1678 18.5641 33.1678C18.5121 33.1678 18.469 33.2111 18.469 33.2629V39.255C18.469 39.549 18.2528 39.791 17.9762 39.791C17.6995 39.791 17.4833 39.549 17.4833 39.255V35.8396C17.4833 35.7876 17.44 35.7445 17.3883 35.7445C17.3363 35.7445 17.2932 35.7878 17.2932 35.8396V39.255C17.2932 39.549 17.077 39.791 16.8003 39.791C16.5237 39.791 16.3075 39.549 16.3075 39.255V33.2629C16.3075 33.2109 16.2642 33.1678 16.2124 33.1678C16.1606 33.1678 16.1174 33.2111 16.1174 33.2629V35.4851C16.1174 35.6754 15.9617 35.8309 15.7716 35.8309C15.5726 35.8309 15.4256 35.6752 15.4256 35.4851V33.0641C15.4077 32.5194 15.8573 32.0784 16.3934 32.0784Z" fill="#222D39"/>
<path d="M6.98062 41.2337H33.8426V28.3672H6.98062V41.2337ZM23.3288 30.3404C23.6228 30.3404 23.8822 30.5046 24.0119 30.7382C24.0293 30.7641 24.0465 30.7901 24.0724 30.816C24.2281 30.9717 24.4788 30.9717 24.6259 30.816C24.6518 30.7901 24.6691 30.7641 24.6863 30.7382C24.5913 31.404 24.0204 31.9142 23.3286 31.9142C22.8962 31.9142 22.5417 31.5597 22.5417 31.1274C22.5417 30.6951 22.8964 30.3404 23.3288 30.3404ZM21.6339 32.9604C21.7031 32.4848 22.1095 32.1129 22.611 32.1129H24.1158C24.6086 32.1129 25.0238 32.4848 25.093 32.9604L25.3957 35.4679C25.4216 35.6581 25.2832 35.831 25.093 35.8484C24.9027 35.8743 24.7298 35.736 24.7126 35.5457L24.4272 33.2198C24.4185 33.1765 24.3752 33.1419 24.3321 33.1419C24.2802 33.1419 24.2371 33.1852 24.2371 33.237C24.2371 33.2457 24.2371 33.2542 24.2371 33.2542C24.2371 33.2542 24.4361 34.9058 24.4446 34.9404C24.4533 34.9836 24.4533 35.0269 24.4533 35.07V39.2637C24.4533 39.5577 24.2371 39.7997 23.9604 39.7997C23.6923 39.7997 23.4676 39.5577 23.4676 39.2637V35.8482C23.4676 35.7963 23.4243 35.7532 23.3725 35.7532C23.3206 35.7532 23.2775 35.7965 23.2775 35.8482V39.255C23.2775 39.549 23.0613 39.791 22.7846 39.791C22.5165 39.791 22.2918 39.549 22.2918 39.255V35.0615C22.2918 35.0182 22.2918 34.9749 22.3004 34.9318C22.3004 34.8973 22.5079 33.2457 22.5079 33.2457C22.5079 33.2457 22.5079 33.237 22.5079 33.2285C22.5079 33.1765 22.4647 33.1334 22.4129 33.1334C22.3611 33.1334 22.3263 33.168 22.3178 33.2113L22.0412 35.5372C22.0066 35.7361 21.8337 35.8745 21.6434 35.8484C21.4531 35.8225 21.3234 35.6581 21.3407 35.4679L21.6339 32.9604ZM20.3305 36.1164C20.5837 36.1164 20.7888 36.3216 20.7888 36.5746C20.7888 36.8276 20.5835 37.0328 20.3305 37.0328C20.0773 37.0328 19.8723 36.8276 19.8723 36.5746C19.8723 36.3216 20.0773 36.1164 20.3305 36.1164ZM19.4397 37.6122C19.4138 37.3702 19.604 37.1626 19.8462 37.154H20.8147C21.0568 37.1627 21.2557 37.3702 21.2557 37.6122V38.2435C21.2557 38.3386 21.1779 38.4077 21.0828 38.4077C20.9878 38.4077 20.9099 38.3299 20.9099 38.2435V37.7161C20.9099 37.6816 20.884 37.6642 20.8494 37.6642C20.8148 37.6642 20.7975 37.6901 20.7975 37.7161V39.5924C20.7975 39.7048 20.7109 39.7913 20.5985 39.7913C20.4861 39.7913 20.3995 39.7048 20.3995 39.5924V38.6412C20.3995 38.6067 20.3736 38.5893 20.3476 38.5893C20.313 38.5893 20.2956 38.6152 20.2956 38.6412V39.5924C20.2956 39.7048 20.2091 39.7913 20.0966 39.7913C19.9842 39.7913 19.8977 39.7048 19.8977 39.5924V37.7161C19.8977 37.6816 19.8718 37.6642 19.8457 37.6642C19.8111 37.6642 19.7852 37.6901 19.7852 37.7161V38.2435C19.7852 38.3386 19.7074 38.4077 19.6123 38.4077C19.5173 38.4077 19.4394 38.3299 19.4394 38.2435L19.4397 37.6122ZM17.3879 30.2972C17.8225 30.2972 18.1748 30.6494 18.1748 31.0839C18.1748 31.5185 17.8225 31.8707 17.3879 31.8707C16.9533 31.8707 16.6011 31.5185 16.6011 31.0839C16.6011 30.6494 16.9533 30.2972 17.3879 30.2972ZM16.3934 32.0784H18.3651C18.9099 32.0784 19.3509 32.5194 19.3509 33.0641V35.4766C19.3509 35.6668 19.1952 35.8224 19.005 35.8224C18.8061 35.8224 18.6591 35.6667 18.6591 35.4766V33.2629C18.6591 33.2109 18.6159 33.1678 18.5641 33.1678C18.5121 33.1678 18.469 33.2111 18.469 33.2629V39.255C18.469 39.549 18.2528 39.791 17.9762 39.791C17.6995 39.791 17.4833 39.549 17.4833 39.255V35.8396C17.4833 35.7876 17.44 35.7445 17.3883 35.7445C17.3363 35.7445 17.2932 35.7878 17.2932 35.8396V39.255C17.2932 39.549 17.077 39.791 16.8003 39.791C16.5237 39.791 16.3075 39.549 16.3075 39.255V33.2629C16.3075 33.2109 16.2642 33.1678 16.2124 33.1678C16.1606 33.1678 16.1174 33.2111 16.1174 33.2629V35.4851C16.1174 35.6754 15.9617 35.8309 15.7716 35.8309C15.5726 35.8309 15.4256 35.6752 15.4256 35.4851V33.0641C15.4077 32.5194 15.8573 32.0784 16.3934 32.0784Z" fill="#E98862"/>
</g>
<defs>
<clipPath id="clip0_1_113">
<rect width="39.4082" height="41.1728" fill="white" transform="translate(0.707397 0.382812)"/>
</clipPath>
</defs>
</svg>
