<svg width="62" height="43" viewBox="0 0 62 43" fill="none" xmlns="http://www.w3.org/2000/svg">
<path d="M17.6066 19.2444C22.7093 19.2444 26.846 15.1078 26.846 10.005C26.846 4.90225 22.7093 0.765625 17.6066 0.765625C12.5038 0.765625 8.36716 4.90225 8.36716 10.005C8.36716 15.1078 12.5038 19.2444 17.6066 19.2444Z" fill="#222D39"/>
<path d="M45.0705 19.2444C50.1732 19.2444 54.3099 15.1078 54.3099 10.005C54.3099 4.90225 50.1732 0.765625 45.0705 0.765625C39.9677 0.765625 35.8311 4.90225 35.8311 10.005C35.8311 15.1078 39.9677 19.2444 45.0705 19.2444Z" fill="#222D39"/>
<path d="M19.6162 25.3936V36.6606H15.5971V25.3936C7.29599 26.3864 0.860321 33.4508 0.860321 42.0194H34.3529C34.3529 33.4508 27.9172 26.3864 19.6162 25.3936Z" fill="#222D39"/>
<path d="M47.0795 25.394V36.661H43.0603V25.3936C39.6429 25.8024 36.5417 27.2399 34.0756 29.3883C36.7679 32.8904 38.3714 37.271 38.3714 42.0198H61.8162C61.8162 33.4512 55.3805 26.3868 47.0795 25.394Z" fill="#222D39"/>
</svg>
