<svg width="37" height="37" viewBox="0 0 37 37" fill="none" xmlns="http://www.w3.org/2000/svg">
<circle cx="18.5586" cy="18.3924" r="18.0485" fill="#222D39"/>
<path d="M18.559 20.756C19.983 20.756 21.1374 19.6016 21.1374 18.1776C21.1374 16.7536 19.983 15.5992 18.559 15.5992C17.1351 15.5992 15.9807 16.7536 15.9807 18.1776C15.9807 19.6016 17.1351 20.756 18.559 20.756Z" fill="#E98862"/>
<path d="M27.583 20.756C29.0069 20.756 30.1613 19.6016 30.1613 18.1776C30.1613 16.7536 29.0069 15.5992 27.583 15.5992C26.159 15.5992 25.0046 16.7536 25.0046 18.1776C25.0046 19.6016 26.159 20.756 27.583 20.756Z" fill="#E98862"/>
<path d="M9.53456 20.7561C10.9585 20.7561 12.1129 19.6017 12.1129 18.1777C12.1129 16.7537 10.9585 15.5994 9.53456 15.5994C8.11058 15.5994 6.95621 16.7537 6.95621 18.1777C6.95621 19.6017 8.11058 20.7561 9.53456 20.7561Z" fill="#E98862"/>
</svg>
