<svg width="37" height="37" viewBox="0 0 37 37" fill="none" xmlns="http://www.w3.org/2000/svg">
<path d="M18.0399 34.6393H6.88002V17.5274C6.88002 17.1168 6.54668 16.7834 6.136 16.7834H3.46808L18.0399 2.21158C18.4328 1.81875 19.1321 1.81728 19.5264 2.21158L24.9532 7.6383C25.1674 7.8511 25.4858 7.91806 25.7641 7.799C26.0424 7.6844 26.2239 7.4121 26.2239 7.11155V1.90356H30.6879V13.0635C30.6879 13.2614 30.7668 13.4504 30.9066 13.5902L34.0998 16.7834H31.4318C31.0211 16.7834 30.6878 17.1168 30.6878 17.5274C30.6878 17.9381 31.0211 18.2715 31.4318 18.2715H35.8958C36.1964 18.2715 36.4687 18.0899 36.5833 17.8131C36.6993 17.5349 36.6354 17.215 36.4226 17.0022L32.1759 12.7555V1.15955C32.1759 0.74886 31.8425 0.415527 31.4318 0.415527H25.4799C25.0692 0.415527 24.7359 0.74886 24.7359 1.15955V5.3155L20.5785 1.15955C19.6217 0.201257 17.9492 0.199792 16.988 1.15955L1.14528 17.0007C0.932476 17.2135 0.868516 17.5334 0.984579 17.8117C1.09918 18.0899 1.37148 18.2715 1.67203 18.2715H5.39198V35.3833C5.39198 35.794 5.72531 36.1273 6.136 36.1273H18.0399C18.4506 36.1273 18.784 35.794 18.784 35.3833C18.7839 34.9726 18.4506 34.6393 18.0399 34.6393Z" fill="#222D39"/>
<path d="M23.9919 19.759C24.4025 19.759 24.7359 19.4257 24.7359 19.015C24.7359 18.6043 24.4025 18.271 23.9919 18.271H13.576C13.1653 18.271 12.8319 18.6043 12.8319 19.015V29.4309C12.8319 29.8416 13.1653 30.1749 13.576 30.1749H22.5039C22.9146 30.1749 23.2479 29.8416 23.2479 29.4309C23.2479 29.0202 22.9146 28.6869 22.5039 28.6869H14.3199V19.759H23.9919V19.759Z" fill="#E98862"/>
<path d="M33.5671 31.4436L31.3336 30.8856L31.2399 30.5121C31.8202 29.8723 32.2309 29.0568 32.402 28.2087C32.7978 28.0048 33.0864 27.6135 33.146 27.1448L33.3082 25.8502C33.3573 25.4589 33.2353 25.0631 32.9764 24.7655C32.896 24.6732 32.8037 24.5928 32.7041 24.5259L32.7428 23.7372L32.8797 23.6003C33.2636 23.1926 33.7829 22.3222 32.96 21.0662C32.5702 20.4711 31.7667 19.7598 30.1581 19.7598C29.685 19.7598 28.6151 19.7598 27.575 20.41C24.5127 20.5186 24.1526 22.1688 24.1526 23.4143C24.1526 23.6598 24.1972 24.1196 24.2389 24.5035C24.1287 24.5735 24.0276 24.6583 23.9398 24.7579C23.6764 25.057 23.5529 25.4543 23.602 25.8516L23.7641 27.1462C23.8252 27.6313 24.1332 28.033 24.587 28.2309C24.7566 29.0419 25.1435 29.8275 25.6866 30.451L25.578 30.8884L23.3445 31.4464C21.5352 31.8988 20.2719 33.5177 20.2719 35.3837C20.2719 35.5815 20.3492 35.772 20.4891 35.9104C20.629 36.0488 20.818 36.1277 21.0159 36.1277L35.8957 36.1262C36.3064 36.1262 36.6398 35.7929 36.6398 35.3822C36.6398 33.5179 35.3765 31.8989 33.5671 31.4436ZM21.8685 34.6383C22.1259 33.7902 22.8104 33.1146 23.7062 32.887L26.3726 32.2204C26.639 32.1549 26.8488 31.9466 26.9142 31.6802L27.2312 30.411C27.2981 30.1491 27.2148 29.8723 27.0184 29.6878C26.4395 29.1447 26.0556 28.3486 25.9931 27.5585C25.9619 27.1716 25.6315 26.9589 25.2432 26.9589L25.0527 25.7745C25.267 25.7745 25.4693 25.6837 25.6107 25.523C25.7521 25.3638 25.8175 25.1511 25.7907 24.9382C25.7341 24.4889 25.6434 23.6764 25.6434 23.4146C25.6434 22.6438 25.6434 21.9161 27.8173 21.8938C27.9691 21.8924 28.1194 21.8447 28.2429 21.7554C28.9527 21.248 29.7666 21.248 30.1579 21.248C31.2992 21.248 31.6132 21.7257 31.7129 21.8834C32.0164 22.3461 31.8914 22.4771 31.8096 22.5663L31.4852 22.8892C31.3543 23.0201 31.2769 23.1958 31.2679 23.3803L31.189 24.9992C31.1801 25.2016 31.2054 25.3429 31.3438 25.4902C31.4837 25.6376 31.628 25.6673 31.8304 25.6688L31.7336 26.8785C31.3453 26.8785 31.0224 27.1762 30.9912 27.563C30.9287 28.365 30.5165 29.1968 29.9183 29.7325C29.713 29.917 29.6267 30.1997 29.6937 30.4676L29.9987 31.6832C30.0657 31.9481 30.274 32.1579 30.5403 32.2234L33.2068 32.89C34.1025 33.1146 34.787 33.7902 35.0429 34.6398L21.8685 34.6383Z" fill="#0CBC8B"/>
</svg>
