<svg width="34" height="34" viewBox="0 0 34 34" fill="none" xmlns="http://www.w3.org/2000/svg">
<g clip-path="url(#clip0_22_85)">
<path d="M12.5043 9.76836C13.0023 9.48281 13.6199 9.43633 14.1113 9.79492L23.6738 15.6387C24.1453 15.9309 24.4375 16.4422 24.4375 17C24.4375 17.5578 24.1453 18.0691 23.6738 18.3613L14.1113 24.2051C13.6199 24.5039 13.0023 24.5172 12.5043 24.2316C11.9996 23.9527 11.6875 23.4215 11.6875 22.8438V11.0965C11.6875 10.5785 11.9996 10.0473 12.5043 9.76836ZM34 17C34 26.3898 26.3898 34 17 34C7.61016 34 0 26.3898 0 17C0 7.61016 7.61016 0 17 0C26.3898 0 34 7.61016 34 17ZM17 3.1875C9.36992 3.1875 3.1875 9.36992 3.1875 17C3.1875 24.6301 9.36992 30.8125 17 30.8125C24.6301 30.8125 30.8125 24.6301 30.8125 17C30.8125 9.36992 24.6301 3.1875 17 3.1875Z" fill="#222D39"/>
<path d="M12.5043 9.76836C13.0023 9.48281 13.6199 9.43633 14.1113 9.79492L23.6738 15.6387C24.1453 15.9309 24.4375 16.4422 24.4375 17C24.4375 17.5578 24.1453 18.0691 23.6738 18.3613L14.1113 24.2051C13.6199 24.5039 13.0023 24.5172 12.5043 24.2316C11.9996 23.9527 11.6875 23.4215 11.6875 22.8438V11.0965C11.6875 10.5785 11.9996 10.0473 12.5043 9.76836ZM34 17C34 26.3898 26.3898 34 17 34C7.61016 34 0 26.3898 0 17C0 7.61016 7.61016 0 17 0C26.3898 0 34 7.61016 34 17ZM17 3.1875C9.36992 3.1875 3.1875 9.36992 3.1875 17C3.1875 24.6301 9.36992 30.8125 17 30.8125C24.6301 30.8125 30.8125 24.6301 30.8125 17C30.8125 9.36992 24.6301 3.1875 17 3.1875Z" fill="#222D39"/>
<path d="M12.5043 9.76836C13.0023 9.48281 13.6199 9.43633 14.1113 9.79492L23.6738 15.6387C24.1453 15.9309 24.4375 16.4422 24.4375 17C24.4375 17.5578 24.1453 18.0691 23.6738 18.3613L14.1113 24.2051C13.6199 24.5039 13.0023 24.5172 12.5043 24.2316C11.9996 23.9527 11.6875 23.4215 11.6875 22.8438V11.0965C11.6875 10.5785 11.9996 10.0473 12.5043 9.76836ZM17 3.1875C9.36992 3.1875 3.1875 9.36992 3.1875 17C3.1875 24.6301 9.36992 30.8125 17 30.8125C24.6301 30.8125 30.8125 24.6301 30.8125 17C30.8125 9.36992 24.6301 3.1875 17 3.1875Z" fill="#222D39"/>
<path d="M12.5043 9.76836C13.0023 9.48281 13.6199 9.43633 14.1113 9.79492L23.6738 15.6387C24.1453 15.9309 24.4375 16.4422 24.4375 17C24.4375 17.5578 24.1453 18.0691 23.6738 18.3613L14.1113 24.2051C13.6199 24.5039 13.0023 24.5172 12.5043 24.2316C11.9996 23.9527 11.6875 23.4215 11.6875 22.8438V11.0965C11.6875 10.5785 11.9996 10.0473 12.5043 9.76836ZM17 3.1875C9.36992 3.1875 3.1875 9.36992 3.1875 17C3.1875 24.6301 9.36992 30.8125 17 30.8125C24.6301 30.8125 30.8125 24.6301 30.8125 17C30.8125 9.36992 24.6301 3.1875 17 3.1875Z" fill="#E98862"/>
</g>
<defs>
<clipPath id="clip0_22_85">
<rect width="34" height="34" fill="white"/>
</clipPath>
</defs>
</svg>
