<svg width="62" height="56" viewBox="0 0 62 56" fill="none" xmlns="http://www.w3.org/2000/svg">
<path d="M53.6275 52.2559C53.6275 52.993 53.3347 53.6999 52.8135 54.2211C52.2923 54.7422 51.5855 55.035 50.8484 55.035H11.9409C11.2039 55.035 10.497 54.7422 9.97579 54.2211C9.45461 53.6999 9.16181 52.993 9.16181 52.2559V27.244H0.824493L29.5243 1.15374C30.036 0.688175 30.7029 0.430176 31.3947 0.430176C32.0864 0.430176 32.7533 0.688175 33.265 1.15374L61.9648 27.244H53.6275V52.2559ZM48.0693 49.4768V22.1221L31.3947 6.96485L14.72 22.1221V49.4768H48.0693ZM31.3947 43.9186L22.0596 34.5836C21.479 34.0029 21.0184 33.3136 20.7042 32.555C20.3899 31.7963 20.2282 30.9832 20.2282 30.162C20.2282 29.3409 20.3899 28.5278 20.7042 27.7691C21.0184 27.0105 21.479 26.3211 22.0596 25.7405C22.6403 25.1598 23.3296 24.6992 24.0883 24.385C24.8469 24.0708 25.66 23.909 26.4812 23.909C27.3024 23.909 28.1155 24.0708 28.8741 24.385C29.6328 24.6992 30.3221 25.1598 30.9028 25.7405L31.3947 26.2324L31.8866 25.7405C32.4672 25.1598 33.1565 24.6992 33.9152 24.385C34.6738 24.0708 35.487 23.909 36.3081 23.909C37.1293 23.909 37.9424 24.0708 38.701 24.385C39.4597 24.6992 40.149 25.1598 40.7297 25.7405C41.3103 26.3211 41.7709 27.0105 42.0852 27.7691C42.3994 28.5278 42.5611 29.3409 42.5611 30.162C42.5611 30.9832 42.3994 31.7963 42.0852 32.555C41.7709 33.3136 41.3103 34.0029 40.7297 34.5836L31.3947 43.9186Z" fill="#0CBC8B"/>
<path d="M53.6275 52.2559C53.6275 52.993 53.3347 53.6999 52.8135 54.2211C52.2923 54.7422 51.5855 55.035 50.8484 55.035H11.9409C11.2039 55.035 10.497 54.7422 9.97579 54.2211C9.45461 53.6999 9.16181 52.993 9.16181 52.2559V27.244H0.824493L29.5243 1.15374C30.036 0.688175 30.7029 0.430176 31.3947 0.430176C32.0864 0.430176 32.7533 0.688175 33.265 1.15374L61.9648 27.244H53.6275V52.2559ZM48.0693 49.4768V22.1221L31.3947 6.96485L14.72 22.1221V49.4768H48.0693ZM31.3947 43.9186L22.0596 34.5836C21.479 34.0029 21.0184 33.3136 20.7042 32.555C20.3899 31.7963 20.2282 30.9832 20.2282 30.162C20.2282 29.3409 20.3899 28.5278 20.7042 27.7691C21.0184 27.0105 21.479 26.3211 22.0596 25.7405C22.6403 25.1598 23.3296 24.6992 24.0883 24.385C24.8469 24.0708 25.66 23.909 26.4812 23.909C27.3024 23.909 28.1155 24.0708 28.8741 24.385C29.6328 24.6992 30.3221 25.1598 30.9028 25.7405L31.3947 26.2324L31.8866 25.7405C32.4672 25.1598 33.1565 24.6992 33.9152 24.385C34.6738 24.0708 35.487 23.909 36.3081 23.909C37.1293 23.909 37.9424 24.0708 38.701 24.385C39.4597 24.6992 40.149 25.1598 40.7297 25.7405C41.3103 26.3211 41.7709 27.0105 42.0852 27.7691C42.3994 28.5278 42.5611 29.3409 42.5611 30.162C42.5611 30.9832 42.3994 31.7963 42.0852 32.555C41.7709 33.3136 41.3103 34.0029 40.7297 34.5836L31.3947 43.9186Z" fill="#0CBC8B"/>
<path d="M31.3947 43.9187L22.0596 34.5837C21.479 34.003 21.0184 33.3137 20.7042 32.555C20.3899 31.7964 20.2282 30.9833 20.2282 30.1621C20.2282 29.341 20.3899 28.5278 20.7042 27.7692C21.0184 27.0105 21.479 26.3212 22.0596 25.7406C22.6403 25.1599 23.3296 24.6993 24.0883 24.3851C24.8469 24.0708 25.66 23.9091 26.4812 23.9091C27.3024 23.9091 28.1155 24.0708 28.8741 24.3851C29.6328 24.6993 30.3221 25.1599 30.9028 25.7406L31.3947 26.2325L31.8866 25.7406C32.4672 25.1599 33.1565 24.6993 33.9152 24.3851C34.6738 24.0708 35.487 23.9091 36.3081 23.9091C37.1293 23.9091 37.9424 24.0708 38.701 24.3851C39.4597 24.6993 40.149 25.1599 40.7297 25.7406C41.3103 26.3212 41.7709 27.0105 42.0852 27.7692C42.3994 28.5278 42.5611 29.341 42.5611 30.1621C42.5611 30.9833 42.3994 31.7964 42.0852 32.555C41.7709 33.3137 41.3103 34.003 40.7297 34.5837L31.3947 43.9187Z" fill="#0CBC8B"/>
<path d="M31.3947 43.9187L22.0596 34.5837C21.479 34.003 21.0184 33.3137 20.7042 32.555C20.3899 31.7964 20.2282 30.9833 20.2282 30.1621C20.2282 29.341 20.3899 28.5278 20.7042 27.7692C21.0184 27.0105 21.479 26.3212 22.0596 25.7406C22.6403 25.1599 23.3296 24.6993 24.0883 24.3851C24.8469 24.0708 25.66 23.9091 26.4812 23.9091C27.3024 23.9091 28.1155 24.0708 28.8741 24.3851C29.6328 24.6993 30.3221 25.1599 30.9028 25.7406L31.3947 26.2325L31.8866 25.7406C32.4672 25.1599 33.1565 24.6993 33.9152 24.3851C34.6738 24.0708 35.487 23.9091 36.3081 23.9091C37.1293 23.9091 37.9424 24.0708 38.701 24.3851C39.4597 24.6993 40.149 25.1599 40.7297 25.7406C41.3103 26.3212 41.7709 27.0105 42.0852 27.7692C42.3994 28.5278 42.5611 29.341 42.5611 30.1621C42.5611 30.9833 42.3994 31.7964 42.0852 32.555C41.7709 33.3137 41.3103 34.003 40.7297 34.5837L31.3947 43.9187Z" fill="#E98862"/>
</svg>
