<svg width="57" height="72" viewBox="0 0 57 72" fill="none" xmlns="http://www.w3.org/2000/svg">
<path d="M31.5 25.7142H55.0141C55.0777 25.7143 55.1398 25.6955 55.1926 25.6603C55.2455 25.6251 55.2867 25.575 55.3111 25.5164C55.3355 25.4578 55.342 25.3932 55.3298 25.3309C55.3176 25.2686 55.2871 25.2113 55.2424 25.1662L31.4052 1.32907C31.3602 1.28429 31.3029 1.25386 31.2405 1.24162C31.1782 1.22938 31.1137 1.23588 31.055 1.2603C30.9964 1.28471 30.9463 1.32595 30.9111 1.37881C30.8759 1.43166 30.8571 1.49377 30.8572 1.55728V25.0714C30.8572 25.2419 30.9249 25.4054 31.0455 25.526C31.166 25.6465 31.3295 25.7142 31.5 25.7142Z" fill="#0CBC8B"/>
<path d="M28.2858 38.5714C26.8683 38.5714 25.7144 39.5807 25.7144 40.8214V43.7143H30.8572V40.8214C30.8572 39.5807 29.7033 38.5714 28.2858 38.5714Z" fill="#E98862"/>
<path d="M27 30.8571C26.659 30.8571 26.332 30.7217 26.0909 30.4806C25.8497 30.2394 25.7143 29.9124 25.7143 29.5714V0H1.92857C1.41708 0 0.926543 0.203188 0.564865 0.564865C0.203188 0.926543 0 1.41708 0 1.92857V70.0714C0 70.5829 0.203188 71.0735 0.564865 71.4351C0.926543 71.7968 1.41708 72 1.92857 72H54.6429C55.1544 72 55.6449 71.7968 56.0066 71.4351C56.3682 71.0735 56.5714 70.5829 56.5714 70.0714V30.8571H27ZM41.1429 59.1284C41.1424 59.8141 40.8699 60.4716 40.385 60.9564C39.9001 61.4413 39.2427 61.7139 38.557 61.7143H18.0145C17.3288 61.7139 16.6713 61.4413 16.1864 60.9564C15.7016 60.4716 15.429 59.8141 15.4286 59.1284V46.2857C15.4286 44.6786 16.5536 43.7143 18 43.7143H20.5714V40.8214C20.5714 36.7457 24.0316 33.4286 28.2857 33.4286C32.5398 33.4286 36 36.7457 36 40.8214V43.7143H38.5714C38.9103 43.71 39.2466 43.7735 39.5606 43.9012C39.8745 44.0289 40.1597 44.2182 40.3993 44.4578C40.639 44.6975 40.8282 44.9827 40.9559 45.2966C41.0836 45.6105 41.1472 45.9468 41.1429 46.2857V59.1284Z" fill="#222D39"/>
<rect x="22.1785" y="48.6964" width="12.5357" height="8.19643" rx="0.795455" fill="#E98862"/>
</svg>
