<svg width="50" height="54" viewBox="0 0 50 54" fill="none" xmlns="http://www.w3.org/2000/svg">
<path d="M47.9782 27.6729C48.1951 32.6483 46.7906 37.5597 43.9759 41.6683C41.1613 45.7768 37.0887 48.8604 32.3707 50.4551C27.6527 52.0498 22.5445 52.0695 17.8143 50.5111C13.0842 48.9528 8.988 45.9007 6.1418 41.8139" stroke="#222D39" stroke-width="3.10408" stroke-linecap="round"/>
<path d="M2.00514 25.5519C1.97082 23.9122 2.10849 22.2733 2.41587 20.6622C3.26504 16.2331 5.39803 12.1516 8.54934 8.92557C11.7007 5.69956 15.7311 3.47156 20.1391 2.51887C24.5471 1.56619 29.1379 1.9309 33.3402 3.5676C37.5425 5.20431 41.1706 8.04073 43.7731 11.7238" stroke="#222D39" stroke-width="3.10408" stroke-linecap="round"/>
<path d="M33.4362 10.7457L44.0469 11.9877L45.1031 2.03223" stroke="#222D39" stroke-width="3.10408" stroke-linecap="round"/>
<path d="M16.2734 42.5281L5.67246 41.2861L4.60651 51.2416" stroke="#222D39" stroke-width="3.10408" stroke-linecap="round"/>
<path d="M15.459 23.4805V36.6404C15.459 36.8771 15.553 37.104 15.7203 37.2713C15.8876 37.4386 16.1146 37.5326 16.3512 37.5326H21.7044V29.9489C21.7044 29.594 21.8454 29.2536 22.0964 29.0026C22.3474 28.7516 22.6878 28.6106 23.0427 28.6106H27.5037C27.8587 28.6106 28.1991 28.7516 28.45 29.0026C28.701 29.2536 28.842 29.594 28.842 29.9489V37.5326H34.1952C34.4319 37.5326 34.6588 37.4386 34.8261 37.2713C34.9934 37.104 35.0874 36.8771 35.0874 36.6404V23.4805" stroke="#0CBC8B" stroke-width="2.66251" stroke-linecap="round" stroke-linejoin="round"/>
<path d="M33.3031 21.6402V15.2275H30.6264V19.0752" stroke="#E98862" stroke-width="2.66251" stroke-linecap="round" stroke-linejoin="round"/>
<path d="M37.7641 25.9355L25.8805 14.56C25.6017 14.2655 24.9498 14.2622 24.666 14.56L12.7824 25.9355" stroke="#0CBC8B" stroke-width="2.66251" stroke-linecap="round" stroke-linejoin="round"/>
</svg>
