<svg width="56" height="50" viewBox="0 0 56 50" fill="none" xmlns="http://www.w3.org/2000/svg">
<path d="M45.605 49.7577H10.8564C10.1982 49.7577 9.56685 49.4962 9.10137 49.0308C8.6359 48.5653 8.3744 47.934 8.3744 47.2757V24.9373H0.928284L26.5603 1.63596C27.0173 1.22017 27.6129 0.989746 28.2307 0.989746C28.8485 0.989746 29.4442 1.22017 29.9011 1.63596L55.5331 24.9373H48.087V47.2757C48.087 47.934 47.8255 48.5653 47.3601 49.0308C46.8946 49.4962 46.2633 49.7577 45.605 49.7577ZM13.3385 44.7937H43.1229V20.3629L28.2307 6.82591L13.3385 20.3629V44.7937ZM18.3026 34.8655H38.1589V39.8296H18.3026V34.8655Z" fill="#222D39"/>
<path d="M45.605 49.7577H10.8564C10.1982 49.7577 9.56685 49.4962 9.10137 49.0308C8.6359 48.5653 8.3744 47.934 8.3744 47.2757V24.9373H0.928284L26.5603 1.63596C27.0173 1.22017 27.6129 0.989746 28.2307 0.989746C28.8485 0.989746 29.4442 1.22017 29.9011 1.63596L55.5331 24.9373H48.087V47.2757C48.087 47.934 47.8255 48.5653 47.3601 49.0308C46.8946 49.4962 46.2633 49.7577 45.605 49.7577ZM13.3385 44.7937H43.1229V20.3629L28.2307 6.82591L13.3385 20.3629V44.7937ZM18.3026 34.8655H38.1589V39.8296H18.3026V34.8655Z" fill="#222D39"/>
<path d="M18.3026 34.8653H38.1589V39.8294H18.3026V34.8653Z" fill="#222D39"/>
<path d="M18.3026 34.8653H38.1589V39.8294H18.3026V34.8653Z" fill="#E98862"/>
</svg>
