<svg width="42" height="43" viewBox="0 0 42 43" fill="none" xmlns="http://www.w3.org/2000/svg">
<path d="M21.2785 42.1131C9.88343 42.1131 0.646484 32.8762 0.646484 21.4811C0.646484 10.0861 9.88343 0.849121 21.2785 0.849121C32.6735 0.849121 41.9105 10.0861 41.9105 21.4811C41.9105 32.8762 32.6735 42.1131 21.2785 42.1131ZM21.2785 37.9867C25.656 37.9867 29.8543 36.2477 32.9497 33.1523C36.0451 30.0569 37.7841 25.8587 37.7841 21.4811C37.7841 17.1036 36.0451 12.9053 32.9497 9.8099C29.8543 6.7145 25.656 4.97552 21.2785 4.97552C16.9009 4.97552 12.7027 6.7145 9.60726 9.8099C6.51186 12.9053 4.77288 17.1036 4.77288 21.4811C4.77288 25.8587 6.51186 30.0569 9.60726 33.1523C12.7027 36.2477 16.9009 37.9867 21.2785 37.9867ZM13.0257 25.6075H29.5313V29.7339H13.0257V25.6075ZM13.0257 19.4179C12.2049 19.4179 11.4177 19.0919 10.8373 18.5115C10.2569 17.9311 9.93088 17.1439 9.93088 16.3231C9.93088 15.5023 10.2569 14.7152 10.8373 14.1348C11.4177 13.5544 12.2049 13.2283 13.0257 13.2283C13.8465 13.2283 14.6336 13.5544 15.214 14.1348C15.7944 14.7152 16.1205 15.5023 16.1205 16.3231C16.1205 17.1439 15.7944 17.9311 15.214 18.5115C14.6336 19.0919 13.8465 19.4179 13.0257 19.4179ZM29.5313 19.4179C28.7105 19.4179 27.9233 19.0919 27.3429 18.5115C26.7625 17.9311 26.4365 17.1439 26.4365 16.3231C26.4365 15.5023 26.7625 14.7152 27.3429 14.1348C27.9233 13.5544 28.7105 13.2283 29.5313 13.2283C30.3521 13.2283 31.1392 13.5544 31.7196 14.1348C32.3 14.7152 32.6261 15.5023 32.6261 16.3231C32.6261 17.1439 32.3 17.9311 31.7196 18.5115C31.1392 19.0919 30.3521 19.4179 29.5313 19.4179Z" fill="#0CBC8B"/>
</svg>
