<svg width="42" height="43" viewBox="0 0 42 43" fill="none" xmlns="http://www.w3.org/2000/svg">
<path d="M21.0965 42.1131C9.70142 42.1131 0.464478 32.8762 0.464478 21.4811C0.464478 10.0861 9.70142 0.849121 21.0965 0.849121C32.4915 0.849121 41.7285 10.0861 41.7285 21.4811C41.7285 32.8762 32.4915 42.1131 21.0965 42.1131ZM21.0965 37.9867C25.474 37.9867 29.6723 36.2477 32.7677 33.1523C35.8631 30.0569 37.6021 25.8587 37.6021 21.4811C37.6021 17.1036 35.8631 12.9053 32.7677 9.8099C29.6723 6.7145 25.474 4.97552 21.0965 4.97552C16.7189 4.97552 12.5207 6.7145 9.42525 9.8099C6.32985 12.9053 4.59088 17.1036 4.59088 21.4811C4.59088 25.8587 6.32985 30.0569 9.42525 33.1523C12.5207 36.2477 16.7189 37.9867 21.0965 37.9867ZM10.7805 31.7971C10.7805 29.0611 11.8673 26.4372 13.802 24.5026C15.7366 22.568 18.3605 21.4811 21.0965 21.4811C23.8324 21.4811 26.4564 22.568 28.391 24.5026C30.3256 26.4372 31.4125 29.0611 31.4125 31.7971H27.2861C27.2861 30.1555 26.634 28.5812 25.4732 27.4204C24.3124 26.2596 22.7381 25.6075 21.0965 25.6075C19.4549 25.6075 17.8805 26.2596 16.7198 27.4204C15.559 28.5812 14.9069 30.1555 14.9069 31.7971H10.7805ZM12.8437 19.4179C12.0229 19.4179 11.2357 19.0919 10.6553 18.5115C10.0749 17.9311 9.74888 17.1439 9.74888 16.3231C9.74888 15.5023 10.0749 14.7152 10.6553 14.1348C11.2357 13.5544 12.0229 13.2283 12.8437 13.2283C13.6645 13.2283 14.4516 13.5544 15.032 14.1348C15.6124 14.7152 15.9385 15.5023 15.9385 16.3231C15.9385 17.1439 15.6124 17.9311 15.032 18.5115C14.4516 19.0919 13.6645 19.4179 12.8437 19.4179ZM29.3493 19.4179C28.5285 19.4179 27.7413 19.0919 27.1609 18.5115C26.5805 17.9311 26.2545 17.1439 26.2545 16.3231C26.2545 15.5023 26.5805 14.7152 27.1609 14.1348C27.7413 13.5544 28.5285 13.2283 29.3493 13.2283C30.1701 13.2283 30.9572 13.5544 31.5376 14.1348C32.118 14.7152 32.4441 15.5023 32.4441 16.3231C32.4441 17.1439 32.118 17.9311 31.5376 18.5115C30.9572 19.0919 30.1701 19.4179 29.3493 19.4179Z" fill="#0CBC8B"/>
</svg>
