<svg width="62" height="55" viewBox="0 0 62 55" fill="none" xmlns="http://www.w3.org/2000/svg">
<path d="M14.0655 49.0642H47.4148V21.7095L30.7401 6.55225L14.0655 21.7095V49.0642ZM50.1939 54.6224H11.2864C10.5493 54.6224 9.84246 54.3296 9.32128 53.8085C8.8001 53.2873 8.5073 52.5804 8.5073 51.8433V26.8314H0.169983L28.8698 0.741139C29.3815 0.275577 30.0484 0.0175781 30.7401 0.0175781C31.4319 0.0175781 32.0988 0.275577 32.6105 0.741139L61.3103 26.8314H52.973V51.8433C52.973 52.5804 52.6802 53.2873 52.159 53.8085C51.6378 54.3296 50.9309 54.6224 50.1939 54.6224ZM18.2342 32.3896H23.7924C23.7924 34.2323 24.5244 35.9994 25.8273 37.3024C27.1303 38.6054 28.8975 39.3374 30.7401 39.3374C32.5828 39.3374 34.35 38.6054 35.653 37.3024C36.9559 35.9994 37.6879 34.2323 37.6879 32.3896H43.2461C43.2461 35.7064 41.9285 38.8873 39.5832 41.2327C37.2379 43.578 34.0569 44.8956 30.7401 44.8956C27.4234 44.8956 24.2424 43.578 21.8971 41.2327C19.5518 38.8873 18.2342 35.7064 18.2342 32.3896Z" fill="#222D39"/>
<path d="M18.2342 32.3897H23.7924C23.7924 34.2323 24.5244 35.9995 25.8273 37.3025C27.1303 38.6054 28.8975 39.3374 30.7401 39.3374C32.5828 39.3374 34.35 38.6054 35.653 37.3025C36.9559 35.9995 37.6879 34.2323 37.6879 32.3897H43.2461C43.2461 35.7065 41.9285 38.8874 39.5832 41.2327C37.2379 43.578 34.0569 44.8956 30.7401 44.8956C27.4234 44.8956 24.2424 43.578 21.8971 41.2327C19.5518 38.8874 18.2342 35.7065 18.2342 32.3897Z" fill="#E98862"/>
</svg>
