<svg width="45" height="43" viewBox="0 0 45 43" fill="none" xmlns="http://www.w3.org/2000/svg">
<path d="M19.6131 41.2309L19.615 41.2275H19.6113L19.6131 41.2309Z" fill="#0CBC8B"/>
<path d="M35.3601 23.1664C33.4591 23.1664 31.6907 23.7382 30.2056 24.7114C28.4187 23.5899 26.4281 22.6771 24.2746 22.1311C27.6958 19.8296 30.0515 15.2944 30.0515 11.2073C30.0515 5.44175 25.3746 0.765625 19.6114 0.765625C13.8466 0.765625 9.17123 5.44048 9.17123 11.2073C9.17123 15.2944 11.5269 19.8296 14.9481 22.1311C6.76727 24.2047 0.707508 31.3068 0.707508 36.5676C0.707508 39.6779 10.1587 41.2308 19.6098 41.2293L14.3149 35.9359L18.7732 25.1582H18.7279L16.9954 23.1725C17.8313 23.473 18.7054 23.6547 19.6111 23.6547C20.5146 23.6547 21.3874 23.4728 22.2233 23.174L20.4908 25.1582H20.4485L24.9061 35.9343L19.6129 41.2278C23.3501 41.2278 27.0844 40.9826 30.2395 40.4958C31.7152 41.4539 33.4715 42.0194 35.3601 42.0194C40.5579 42.0194 44.7867 37.7906 44.7867 32.5928C44.7882 27.3952 40.5579 23.1664 35.3601 23.1664ZM35.3601 40.442C31.0341 40.442 27.5112 36.9203 27.5112 32.593C27.5112 28.2643 31.0313 24.7426 35.3601 24.7426C39.6889 24.7426 43.2106 28.2643 43.2106 32.593C43.2108 36.9203 39.6876 40.442 35.3601 40.442Z" fill="#222D39"/>
<path d="M35.6682 28.6246C35.921 28.6246 36.1489 28.5105 36.3523 28.278C36.5557 28.0453 36.6557 27.7928 36.6557 27.5201C36.6557 27.2476 36.5785 27.0224 36.4262 26.8438C36.2721 26.6649 36.072 26.5771 35.8253 26.5771C35.5787 26.5771 35.354 26.7019 35.1476 26.9513C34.9424 27.2008 34.8424 27.4568 34.8424 27.7217C34.8424 27.9899 34.9163 28.2054 35.0643 28.3734C35.2121 28.5414 35.414 28.6246 35.6682 28.6246Z" fill="#222D39"/>
<path d="M36.853 36.9851C36.5648 37.1901 36.3201 37.2933 36.1134 37.2933C35.9085 37.2933 35.8068 37.1177 35.8068 36.7663C35.8068 36.5907 35.8225 36.3719 35.8501 36.1085L36.0995 33.2522C36.2073 32.137 36.2614 31.5391 36.2614 31.4683C36.2614 30.6273 35.9824 30.2084 35.4278 30.2084C34.935 30.2084 34.4358 30.4518 33.9306 30.9355C33.4254 31.4222 33.0416 32.0074 32.7782 32.6963L33.2035 32.9903C33.8319 32.0522 34.2539 31.5839 34.4667 31.5839C34.6792 31.5839 34.784 31.8164 34.784 32.2862C34.784 32.4603 34.7748 32.6576 34.7549 32.8701L34.4328 35.7262C34.3541 36.5214 34.3159 37.0881 34.3159 37.4241C34.3159 37.7613 34.3928 38.0432 34.5469 38.2698C34.7007 38.4965 34.9659 38.6104 35.3418 38.6104C36.5375 38.6104 37.4063 37.8878 37.9454 36.443L37.5664 36.1796C37.3782 36.512 37.1409 36.7804 36.853 36.9851Z" fill="#222D39"/>
</svg>
