<svg width="81" height="72" viewBox="0 0 81 72" fill="none" xmlns="http://www.w3.org/2000/svg">
<g clip-path="url(#clip0_56_539)">
<path d="M29.2501 6.75C29.2501 10.478 26.2266 13.5 22.5001 13.5C18.7735 13.5 15.7501 10.478 15.7501 6.75C15.7501 3.02203 18.7735 0 22.5001 0C26.2266 0 29.2501 3.02203 29.2501 6.75ZM21.3751 49.5V67.5C21.3751 69.9891 19.3641 72 16.8751 72C14.386 72 12.3751 69.9891 12.3751 67.5V36.1266L8.3574 42.8203C7.07771 44.9437 4.31303 45.6328 2.18256 44.3531C0.0520318 43.0734 -0.637115 40.3172 0.643135 38.1797L8.83834 24.5531C11.2782 20.4891 15.6657 18 20.4047 18H24.5954C29.3344 18 33.7219 20.4891 36.1688 24.5531L42.4829 35.0578C40.0922 37.5328 38.4469 40.4578 37.336 43.7062C37.0688 43.4391 36.7172 43.1437 36.6469 42.8203L32.6251 36.1266V67.5C32.6251 69.9891 30.6141 72 28.1251 72C25.636 72 23.6251 69.9891 23.6251 67.5V49.5H21.3751ZM81.0001 51.75C81.0001 62.9297 71.9297 72 60.7501 72C49.5704 72 40.5001 62.9297 40.5001 51.75C40.5001 40.5703 49.5704 31.5 60.7501 31.5C71.9297 31.5 81.0001 40.5703 81.0001 51.75ZM67.036 45.6609L58.5001 54.1969L54.4641 50.1609C53.5922 49.275 52.1579 49.275 51.286 50.1609C50.4001 51.0328 50.4001 52.4672 51.286 53.3391L56.911 58.9641C57.7829 59.85 59.2172 59.85 60.0891 58.9641L70.2141 48.8391C71.1001 47.9672 71.1001 46.5328 70.2141 45.6609C69.3422 44.775 67.9079 44.775 67.036 45.6609Z" fill="#222D39"/>
<path d="M29.2501 6.75C29.2501 10.478 26.2266 13.5 22.5001 13.5C18.7735 13.5 15.7501 10.478 15.7501 6.75C15.7501 3.02203 18.7735 0 22.5001 0C26.2266 0 29.2501 3.02203 29.2501 6.75ZM21.3751 49.5V67.5C21.3751 69.9891 19.3641 72 16.8751 72C14.386 72 12.3751 69.9891 12.3751 67.5V36.1266L8.3574 42.8203C7.07771 44.9437 4.31303 45.6328 2.18256 44.3531C0.0520318 43.0734 -0.637115 40.3172 0.643135 38.1797L8.83834 24.5531C11.2782 20.4891 15.6657 18 20.4047 18H24.5954C29.3344 18 33.7219 20.4891 36.1688 24.5531L42.4829 35.0578C40.0922 37.5328 38.4469 40.4578 37.336 43.7062C37.0688 43.4391 36.7172 43.1437 36.6469 42.8203L32.6251 36.1266V67.5C32.6251 69.9891 30.6141 72 28.1251 72C25.636 72 23.6251 69.9891 23.6251 67.5V49.5H21.3751ZM81.0001 51.75C81.0001 62.9297 71.9297 72 60.7501 72C49.5704 72 40.5001 62.9297 40.5001 51.75C40.5001 40.5703 49.5704 31.5 60.7501 31.5C71.9297 31.5 81.0001 40.5703 81.0001 51.75ZM67.036 45.6609L58.5001 54.1969L54.4641 50.1609C53.5922 49.275 52.1579 49.275 51.286 50.1609C50.4001 51.0328 50.4001 52.4672 51.286 53.3391L56.911 58.9641C57.7829 59.85 59.2172 59.85 60.0891 58.9641L70.2141 48.8391C71.1001 47.9672 71.1001 46.5328 70.2141 45.6609C69.3422 44.775 67.9079 44.775 67.036 45.6609Z" fill="#222D39"/>
</g>
<g clip-path="url(#clip1_56_539)">
<path d="M81 51.75C81 62.9297 71.9297 72 60.75 72C49.5703 72 40.5 62.9297 40.5 51.75C40.5 40.5703 49.5703 31.5 60.75 31.5C71.9297 31.5 81 40.5703 81 51.75ZM67.0359 45.6609L58.5 54.1969L54.4641 50.1609C53.5922 49.275 52.1578 49.275 51.2859 50.1609C50.4 51.0328 50.4 52.4672 51.2859 53.3391L56.9109 58.9641C57.7828 59.85 59.2172 59.85 60.0891 58.9641L70.2141 48.8391C71.1 47.9672 71.1 46.5328 70.2141 45.6609C69.3422 44.775 67.9078 44.775 67.0359 45.6609Z" fill="#E98862"/>
<path d="M81 51.75C81 62.9297 71.9297 72 60.75 72C49.5703 72 40.5 62.9297 40.5 51.75C40.5 40.5703 49.5703 31.5 60.75 31.5C71.9297 31.5 81 40.5703 81 51.75ZM67.0359 45.6609L58.5 54.1969L54.4641 50.1609C53.5922 49.275 52.1578 49.275 51.2859 50.1609C50.4 51.0328 50.4 52.4672 51.2859 53.3391L56.9109 58.9641C57.7828 59.85 59.2172 59.85 60.0891 58.9641L70.2141 48.8391C71.1 47.9672 71.1 46.5328 70.2141 45.6609C69.3422 44.775 67.9078 44.775 67.0359 45.6609Z" fill="#E98862"/>
</g>
<defs>
<clipPath id="clip0_56_539">
<rect width="81" height="72" fill="white"/>
</clipPath>
<clipPath id="clip1_56_539">
<rect width="81" height="72" fill="white"/>
</clipPath>
</defs>
</svg>
