<svg width="37" height="47" viewBox="0 0 37 47" fill="none" xmlns="http://www.w3.org/2000/svg">
<path d="M35.1651 19.9036V39.8511C35.1651 41.155 34.6471 42.4055 33.7251 43.3276C32.8031 44.2496 31.5526 44.7676 30.2486 44.7676H7.30514C6.00121 44.7676 4.75069 44.2496 3.82867 43.3276C2.90666 42.4055 2.38867 41.155 2.38867 39.8511V7.07467C2.38867 5.77074 2.90666 4.52022 3.82867 3.5982C4.75069 2.67619 6.00121 2.1582 7.30514 2.1582H17.4197C18.2887 2.15833 19.1221 2.50354 19.7366 3.11794L34.2054 17.5867C34.8198 18.2012 35.165 19.0346 35.1651 19.9036Z" stroke="#0CBC8B" stroke-width="3.27764" stroke-linejoin="round"/>
<path d="M18.7769 2.97803V15.2692C18.7769 16.1385 19.1222 16.9722 19.7369 17.5868C20.3515 18.2015 21.1852 18.5468 22.0545 18.5468H34.3457" stroke="#0CBC8B" stroke-width="3.27764" stroke-linecap="round" stroke-linejoin="round"/>
<path d="M10.5828 26.7412H26.971" stroke="#E98862" stroke-width="3.27764" stroke-linecap="round" stroke-linejoin="round"/>
<path d="M10.5828 34.9346H26.971" stroke="#E98862" stroke-width="3.27764" stroke-linecap="round" stroke-linejoin="round"/>
</svg>
