<svg width="54" height="54" viewBox="0 0 54 54" fill="none" xmlns="http://www.w3.org/2000/svg">
<path d="M8.39529 22.4863V47.0985C8.39529 47.5411 8.5711 47.9655 8.88402 48.2784C9.19695 48.5913 9.62137 48.7671 10.0639 48.7671H20.0757V34.5838C20.0757 33.92 20.3394 33.2834 20.8087 32.814C21.2781 32.3446 21.9148 32.0809 22.5786 32.0809H30.9217C31.5855 32.0809 32.2222 32.3446 32.6916 32.814C33.1609 33.2834 33.4246 33.92 33.4246 34.5838V48.7671H43.4364C43.8789 48.7671 44.3034 48.5913 44.6163 48.2784C44.9292 47.9655 45.105 47.5411 45.105 47.0985V22.4863" stroke="#0CBC8B" stroke-width="3.2302" stroke-linecap="round" stroke-linejoin="round"/>
<path d="M41.7676 19.044V7.05078H36.7617V14.2467" stroke="#E98862" stroke-width="3.2302" stroke-linecap="round" stroke-linejoin="round"/>
<path d="M50.1107 27.075L27.8857 5.8001C27.3642 5.24945 26.1451 5.2432 25.6142 5.8001L3.38922 27.075" stroke="#0CBC8B" stroke-width="3.2302" stroke-linecap="round" stroke-linejoin="round"/>
</svg>
