<svg width="41" height="42" viewBox="0 0 41 42" fill="none" xmlns="http://www.w3.org/2000/svg">
<path d="M15.7397 19.0941C15.3526 18.707 14.8277 18.4896 14.2804 18.4896C13.733 18.4896 13.2081 18.707 12.8211 19.0941C12.4341 19.4811 12.2166 20.006 12.2166 20.5533C12.2166 21.1007 12.4341 21.6256 12.8211 22.0126L18.9871 28.1787C19.1792 28.3691 19.4069 28.5199 19.6573 28.6221C19.9078 28.7244 20.1759 28.7763 20.4464 28.7747C20.7278 28.7658 21.0043 28.6991 21.2589 28.5789C21.5134 28.4587 21.7406 28.2875 21.9262 28.0759L36.3136 11.6332C36.6458 11.2207 36.806 10.696 36.7607 10.1683C36.7155 9.64064 36.4683 9.15081 36.0707 8.80094C35.6731 8.45108 35.1559 8.26818 34.6267 8.29038C34.0976 8.31259 33.5975 8.53819 33.2306 8.92013L20.4464 23.7186L15.7397 19.0941Z" fill="#E98862"/>
<path d="M38.9447 18.498C38.3996 18.498 37.8768 18.7146 37.4913 19.1C37.1059 19.4855 36.8893 20.0083 36.8893 20.5534C36.8893 24.9143 35.157 29.0965 32.0734 32.1801C28.9898 35.2637 24.8075 36.9961 20.4466 36.9961C17.1994 36.9946 14.0253 36.0316 11.3245 34.2286C8.62382 32.4257 6.51744 29.8634 5.27099 26.8648C4.02454 23.8663 3.69385 20.5659 4.32062 17.3797C4.94738 14.1935 6.50354 11.2642 8.79285 8.96127C10.3152 7.4185 12.1301 6.19487 14.1311 5.36199C16.1321 4.52911 18.2792 4.10371 20.4466 4.11068C21.7609 4.1189 23.0704 4.27053 24.3518 4.56285C24.6199 4.64579 24.9022 4.67293 25.1813 4.6426C25.4603 4.61226 25.7302 4.52509 25.9742 4.38646C26.2183 4.24783 26.4314 4.06067 26.6003 3.83654C26.7693 3.6124 26.8906 3.35604 26.9567 3.08324C27.0228 2.81044 27.0323 2.527 26.9846 2.25039C26.937 1.97378 26.8332 1.70985 26.6796 1.47489C26.5261 1.23993 26.326 1.03891 26.0918 0.88423C25.8576 0.729546 25.5941 0.624475 25.3178 0.575495C23.7211 0.199867 22.0869 0.00679788 20.4466 0C16.386 0.021095 12.4225 1.24455 9.05654 3.51597C5.69054 5.78739 3.07278 9.00497 1.53364 12.7627C-0.00550318 16.5204 -0.397063 20.6498 0.408375 24.6298C1.21381 28.6099 3.18015 32.2621 6.05925 35.1257C9.87538 38.9436 15.0486 41.0942 20.4466 41.1068C25.8977 41.1068 31.1255 38.9413 34.9801 35.0868C38.8346 31.2323 41 26.0045 41 20.5534C41 20.0083 40.7835 19.4855 40.398 19.1C40.0126 18.7146 39.4898 18.498 38.9447 18.498Z" fill="#0CBC8B"/>
</svg>
