<svg width="51" height="30" viewBox="0 0 51 30" fill="none" xmlns="http://www.w3.org/2000/svg">
<path d="M8.50293 9.74316H5.35709C5.01696 9.74316 4.7411 10.019 4.7411 10.3592V14.6732C4.7411 15.0133 5.01696 15.2892 5.35709 15.2892H8.50282C8.84295 15.2892 9.11881 15.0133 9.11881 14.6732V10.3592C9.11891 10.019 8.84305 9.74316 8.50293 9.74316ZM7.88694 10.9751V11.3609H5.97307V10.9751H7.88694ZM5.97307 14.0573V12.5929H7.88684V14.0573H5.97307Z" fill="#E98862"/>
<path d="M11.9183 15.2892H15.0641C15.4042 15.2892 15.6801 15.0133 15.6801 14.6732V10.3592C15.6801 10.019 15.4042 9.74316 15.0641 9.74316H11.9183C11.5781 9.74316 11.3023 10.019 11.3023 10.3592V14.6732C11.3023 15.0133 11.5781 15.2892 11.9183 15.2892ZM12.5342 14.0572V12.5928H14.4481V14.0572H12.5342ZM14.4481 10.975V11.3608H12.5342V10.975H14.4481Z" fill="#E98862"/>
<path d="M8.50293 16.3936H5.35709C5.01696 16.3936 4.7411 16.6694 4.7411 17.0095V21.3237C4.7411 21.6638 5.01696 21.9397 5.35709 21.9397H8.50282C8.84295 21.9397 9.11881 21.6638 9.11881 21.3237V17.0095C9.11891 16.6693 8.84305 16.3936 8.50293 16.3936ZM7.88694 17.6255V18.0113H5.97307V17.6255H7.88694ZM5.97307 20.7077V19.2432H7.88684V20.7077H5.97307Z" fill="#E98862"/>
<path d="M23.4228 11.7959H20.2771C19.937 11.7959 19.6611 12.0718 19.6611 12.4119V16.726C19.6611 17.0662 19.937 17.342 20.2771 17.342H23.4228C23.763 17.342 24.0388 17.0662 24.0388 16.726V12.4119C24.0388 12.0718 23.763 11.7959 23.4228 11.7959ZM22.8068 13.0279V13.4138H20.8931V13.0279H22.8068ZM20.8931 16.1102V14.6458H22.8068V16.1102H20.8931Z" fill="#E98862"/>
<path d="M29.984 11.7959H26.8382C26.498 11.7959 26.2222 12.0718 26.2222 12.4119V16.726C26.2222 17.0662 26.498 17.342 26.8382 17.342H29.984C30.3241 17.342 30.6 17.0662 30.6 16.726V12.4119C30.6 12.0718 30.3241 11.7959 29.984 11.7959ZM29.368 13.0279V13.4138H27.4542V13.0279H29.368ZM27.4542 16.1102V14.6458H29.368V16.1102H27.4542Z" fill="#E98862"/>
<path d="M23.4228 18.4473H20.2771C19.937 18.4473 19.6611 18.7231 19.6611 19.0633V23.3773C19.6611 23.7174 19.937 23.9933 20.2771 23.9933H23.4228C23.763 23.9933 24.0388 23.7174 24.0388 23.3773V19.0633C24.0388 18.723 23.763 18.4473 23.4228 18.4473ZM22.8068 19.6792V20.065H20.8931V19.6792H22.8068ZM20.8931 22.7613V21.2969H22.8068V22.7613H20.8931Z" fill="#E98862"/>
<path d="M35.197 19.4094H38.3427C38.6829 19.4094 38.9587 19.1336 38.9587 18.7934V14.4793C38.9587 14.1391 38.6829 13.8633 38.3427 13.8633H35.197C34.8569 13.8633 34.581 14.1391 34.581 14.4793V18.7934C34.581 19.1336 34.8568 19.4094 35.197 19.4094ZM35.813 18.1774V16.713H37.7268V18.1774H35.813ZM37.7268 15.0952V15.4811H35.813V15.0952H37.7268Z" fill="#E98862"/>
<path d="M41.7581 19.4094H44.9039C45.244 19.4094 45.5199 19.1336 45.5199 18.7934V14.4793C45.5199 14.1391 45.244 13.8633 44.9039 13.8633H41.7581C41.4179 13.8633 41.1421 14.1391 41.1421 14.4793V18.7934C41.1421 19.1336 41.4179 19.4094 41.7581 19.4094ZM42.3741 18.1774V16.713H44.2879V18.1774H42.3741ZM44.2879 15.0952V15.4811H42.3741V15.0952H44.2879Z" fill="#E98862"/>
<path d="M35.197 26.0607H38.3427C38.6829 26.0607 38.9587 25.7848 38.9587 25.4447V21.1306C38.9587 20.7905 38.6829 20.5146 38.3427 20.5146H35.197C34.8569 20.5146 34.581 20.7905 34.581 21.1306V25.4447C34.581 25.7848 34.8568 26.0607 35.197 26.0607ZM35.813 24.8287V23.3643H37.7268V24.8287H35.813ZM37.7268 21.7465V22.1323H35.813V21.7465H37.7268Z" fill="#E98862"/>
<path d="M49.5962 28.2616L48.5021 28.1147V12.8482H49.308C49.6481 12.8482 49.924 12.5724 49.924 12.2323V5.58176C49.924 5.24163 49.6481 4.96577 49.308 4.96577H35.0038V3.514C35.0038 3.17387 34.7279 2.89801 34.3878 2.89801H20.0841V1.46071C20.0841 1.12059 19.8083 0.844727 19.4681 0.844727H0.952991C0.612761 0.844727 0.337005 1.12059 0.337005 1.46071V8.11182C0.337005 8.45195 0.612761 8.72781 0.952991 8.72781H1.75891V21.8395L0.828254 21.7145C0.491207 21.6686 0.181058 21.9059 0.135783 22.2431C0.0905079 22.5802 0.327149 22.8902 0.664299 22.9354L49.4321 29.4824C49.4599 29.4862 49.4876 29.4881 49.5149 29.4881C49.8186 29.4881 50.083 29.2633 50.1246 28.9539C50.17 28.6169 49.9333 28.3069 49.5962 28.2616ZM47.27 27.9494L46.5986 27.8593V26.6136C46.5986 26.2734 46.3227 25.9976 45.9826 25.9976H45.5198V21.1308C45.5198 20.7907 45.2439 20.5148 44.9038 20.5148H41.758C41.4178 20.5148 41.142 20.7907 41.142 21.1308V25.9976H40.6799C40.3398 25.9976 40.0639 26.2734 40.0639 26.6136V26.982L33.5827 26.112V12.8482H47.2699L47.27 27.9494ZM44.2879 25.9976H42.3741V21.7468H44.2879V25.9976ZM45.3667 27.2296V27.6939L41.9078 27.2296H45.3667ZM29.368 23.9299H27.4542V19.6795H29.368V23.9299ZM30.4465 25.1619V25.6908L26.5065 25.1619H30.4465ZM31.0625 23.9299H30.6V19.0635C30.6 18.7234 30.3241 18.4476 29.984 18.4476H26.8382C26.498 18.4476 26.2222 18.7234 26.2222 19.0635V23.9299H25.7598C25.4197 23.9299 25.1438 24.2058 25.1438 24.5459V24.979L18.6626 24.1089V10.7817H32.3508V25.9466L31.6784 25.8563V24.546C31.6785 24.2057 31.4026 23.9299 31.0625 23.9299ZM35.0037 10.1657V6.19785H48.6919V11.6164H33.5828V10.7817H34.3877C34.7279 10.7817 35.0037 10.5059 35.0037 10.1657ZM20.0841 8.11192V4.13009H33.7717V9.54974H18.6626V8.72791H19.4681C19.8083 8.72791 20.0841 8.45205 20.0841 8.11192ZM1.56898 2.0768H18.8521V7.49594H2.38485C2.38157 7.49594 2.37828 7.49543 2.37489 7.49543C2.3715 7.49543 2.36832 7.49583 2.36493 7.49594H1.56898V2.0768ZM2.99098 8.72791H17.4307V23.9435L16.7583 23.8532V22.4926C16.7583 22.1525 16.4824 21.8766 16.1423 21.8766H15.6801V17.0099C15.6801 16.6698 15.4042 16.394 15.0641 16.394H11.9183C11.5781 16.394 11.3023 16.6698 11.3023 17.0099V21.8766H10.8397C10.4995 21.8766 10.2237 22.1525 10.2237 22.4926V22.976L2.99098 22.005V8.72791ZM14.4481 21.8766H12.5342V17.6259H14.4481V21.8766ZM11.4557 23.1086H15.5263V23.6878L11.4557 23.1414V23.1086Z" fill="#222D39"/>
</svg>
