<svg width="28" height="25" viewBox="0 0 28 25" fill="none" xmlns="http://www.w3.org/2000/svg">
<path d="M26.4765 1.52923C26.4765 1.47454 26.4272 1.44173 26.3835 1.48001C25.5249 2.22376 23.4522 2.82533 23.1897 2.85267C23.182 2.85614 23.1736 2.85793 23.1651 2.85793C23.1567 2.85793 23.1483 2.85614 23.1405 2.85267C21.6202 0.424544 18.1147 1.08079 18.1147 1.08079C12.9632 2.17454 13.5319 7.38079 13.6304 7.92767C13.6304 7.95501 13.6304 7.97689 13.5811 7.97689C7.8499 8.26126 2.84599 2.9347 2.27724 2.30579C2.2716 2.29892 2.2645 2.29339 2.25647 2.28959C2.24843 2.28579 2.23965 2.28382 2.23076 2.28382C2.22187 2.28382 2.21309 2.28579 2.20505 2.28959C2.19701 2.29339 2.18992 2.29892 2.18427 2.30579C1.54111 3.49812 1.33717 4.87847 1.60804 6.20585C1.87891 7.53323 2.6074 8.7233 3.6663 9.5683C3.67538 9.57359 3.68291 9.58118 3.68815 9.59029C3.69338 9.59941 3.69613 9.60974 3.69613 9.62025C3.69613 9.63076 3.69338 9.64109 3.68815 9.6502C3.68291 9.65932 3.67538 9.6669 3.6663 9.6722C2.91941 9.64885 2.18099 9.50671 1.4788 9.25111C1.44599 9.25111 1.40771 9.25111 1.40771 9.3058C1.48427 12.6964 4.80927 14.2277 5.58037 14.5503C5.59131 14.5539 5.60083 14.5609 5.60759 14.5702C5.61434 14.5795 5.61798 14.5908 5.61798 14.6023C5.61798 14.6138 5.61434 14.625 5.60759 14.6343C5.60083 14.6437 5.59131 14.6506 5.58037 14.6542C4.88935 14.8048 4.18017 14.8545 3.4749 14.8019C3.46541 14.8015 3.45596 14.8034 3.44734 14.8074C3.43872 14.8114 3.43117 14.8174 3.4253 14.8248C3.41944 14.8323 3.41542 14.8411 3.41358 14.8504C3.41175 14.8597 3.41214 14.8693 3.41474 14.8785C4.10927 17.4925 7.5163 18.5863 8.1288 18.7667C8.13906 18.7689 8.14857 18.7737 8.1564 18.7807C8.16422 18.7877 8.17008 18.7966 8.17339 18.8066C8.17671 18.8165 8.17737 18.8272 8.1753 18.8374C8.17324 18.8477 8.16852 18.8573 8.16162 18.8652C6.05615 20.7464 1.90537 21.2441 1.05224 21.3316C1.04091 21.3331 1.03023 21.3378 1.02147 21.3451C1.01272 21.3525 1.00624 21.3622 1.00279 21.3731C0.999349 21.384 0.999085 21.3957 1.00203 21.4067C1.00498 21.4178 1.01101 21.4277 1.01943 21.4355C4.20224 23.623 12.5366 25.4386 18.9022 19.9972C20.7841 18.3571 22.2711 16.3129 23.2522 14.0175C24.2333 11.722 24.683 9.2346 24.5679 6.74095C24.5679 6.73184 24.5705 6.72293 24.5753 6.71521C24.5802 6.70748 24.5871 6.70125 24.5952 6.6972C25.7384 6.02577 26.691 5.07321 27.3624 3.93001C27.3624 3.87533 27.3624 3.84251 27.2804 3.85892C26.7267 4.05343 26.1291 4.08569 25.5577 3.95189C25.5577 3.95189 26.4929 2.33314 26.4765 1.52923Z" stroke="white" stroke-linecap="round"/>
</svg>
